<svg width="21" height="24" viewBox="0 0 21 24" fill="none" xmlns="http://www.w3.org/2000/svg">
<path d="M8.22567 23.5573C7.16851 23.4244 6.29774 22.8336 5.37057 22.3858C4.69865 22.0608 4.00654 21.8591 3.25863 21.8722C3.10549 21.8745 3.05801 21.8295 3.0586 21.6729C3.06394 20.2226 3.06157 18.7724 3.06216 17.3222C3.06216 17.2303 3.03545 17.1259 3.19275 17.1241C4.28789 17.1122 5.38482 17.0624 6.45919 17.3495C7.21125 17.5506 7.93304 17.8347 8.63702 18.1627C8.97417 18.3199 9.31963 18.3916 9.68883 18.3881C10.3329 18.3827 10.9769 18.3845 11.6215 18.3875C12.1581 18.3898 12.5303 18.7297 12.5303 19.2102C12.5303 19.6882 12.1528 20.0423 11.6269 20.0441C10.4866 20.0477 9.34634 20.0453 8.20608 20.0453C8.09449 20.0453 7.9829 20.04 7.89327 20.1254C7.79948 20.2143 7.75734 20.3217 7.79355 20.4463C7.82857 20.5673 7.90751 20.6562 8.03869 20.6746C8.12595 20.6871 8.21558 20.6889 8.30402 20.6889C9.37008 20.69 10.4367 20.6829 11.5028 20.6924C11.9913 20.6966 12.4246 20.5856 12.7748 20.2256C12.814 20.1853 12.8722 20.1586 12.9262 20.139C14.1353 19.7019 15.3444 19.2641 16.5559 18.8335C16.9738 18.6846 17.4029 18.8228 17.641 19.1615C17.8766 19.4972 17.8677 19.9279 17.6184 20.2582C17.5032 20.4113 17.3495 20.5085 17.1738 20.5767C14.8998 21.4576 12.6252 22.3378 10.3519 23.2204C9.9227 23.387 9.47158 23.4612 9.02462 23.5561H8.22508L8.22567 23.5573Z" fill="white"/>
<path d="M7.09267 5.97115C7.77409 5.97115 8.45492 5.97115 9.13635 5.97115C9.23191 5.97115 9.31798 5.96878 9.39455 6.05716C10.349 7.15684 11.2139 8.31583 11.7605 9.68004C12.1125 10.5585 12.3037 11.4648 12.1113 12.412C11.862 13.6398 11.0987 14.4809 9.99347 14.9827C7.92486 15.921 5.84675 15.9015 3.85768 14.7715C2.27521 13.8729 1.7125 12.2946 2.20517 10.4505C2.53935 9.1996 3.20356 8.12009 3.97699 7.10108C4.23638 6.75943 4.52249 6.43855 4.7896 6.10283C4.8721 5.99962 4.9647 5.9676 5.0941 5.96878C5.76069 5.97471 6.42668 5.97175 7.09326 5.97175L7.09267 5.97115ZM7.43397 9.71148C7.43397 9.71148 7.43279 9.71148 7.43219 9.71148C7.43219 9.52642 7.44228 9.34136 7.42922 9.15749C7.41735 8.99141 7.48443 8.99319 7.60848 9.03768C7.8382 9.12072 8.02458 9.25061 8.15754 9.46236C8.27626 9.65157 8.44899 9.69665 8.60984 9.60294C8.77486 9.50685 8.81463 9.31526 8.70304 9.11834C8.52793 8.80991 8.26913 8.57206 7.93614 8.48131C7.57821 8.38404 7.35206 8.26245 7.41617 7.83361C7.43932 7.67998 7.2838 7.57619 7.11344 7.57559C6.94427 7.57559 6.83268 7.66456 6.80182 7.83183C6.78579 7.91783 6.78223 8.00977 6.79291 8.09696C6.81369 8.26541 6.76086 8.34608 6.58101 8.37811C6.30143 8.42793 6.05094 8.5602 5.8331 8.74526C5.20688 9.27849 5.21875 10.103 5.85863 10.6202C6.08715 10.8052 6.34892 10.925 6.63443 10.9826C6.75314 11.0063 6.79469 11.0496 6.79291 11.1694C6.78698 11.5389 6.78816 11.9085 6.79232 12.278C6.79351 12.4025 6.75136 12.4381 6.63383 12.3948C6.40709 12.3112 6.21002 12.1938 6.07587 11.9808C5.94885 11.7792 5.77493 11.7305 5.60932 11.8308C5.44075 11.9328 5.41285 12.1273 5.53869 12.3361C5.72626 12.6469 5.99574 12.8824 6.34001 12.9642C6.68488 13.0467 6.85761 13.179 6.8036 13.5592C6.77867 13.7335 6.92231 13.8421 7.10276 13.8457C7.2927 13.8492 7.40904 13.746 7.42804 13.5544C7.43872 13.4518 7.43694 13.3474 7.4316 13.2442C7.42566 13.1392 7.45534 13.0894 7.57109 13.0675C7.82751 13.0194 8.06494 12.9156 8.27982 12.7655C9.03959 12.2347 9.04197 11.2732 8.28279 10.7424C8.18663 10.6747 8.07444 10.6308 7.97591 10.5656C7.80911 10.4547 7.52301 10.5294 7.44881 10.3266C7.38233 10.1439 7.43457 9.91789 7.43457 9.71089L7.43397 9.71148Z" fill="white"/>
<path d="M10.9117 6.89259C10.9972 6.84514 11.072 6.86531 11.1426 6.86471C14.1188 6.86353 17.095 6.86531 20.0712 6.85938C20.2635 6.85938 20.3163 6.90089 20.3151 7.0996C20.3068 9.19337 20.3074 11.2866 20.314 13.3803C20.314 13.5601 20.276 13.6158 20.086 13.6152C17.5912 13.6081 15.0958 13.6093 12.601 13.6134C12.436 13.6134 12.3535 13.5956 12.4651 13.4183C12.496 13.3691 12.5138 13.3109 12.5357 13.2558C12.6541 12.9584 12.8711 12.8097 13.1869 12.8097C14.875 12.8097 16.5632 12.8097 18.2507 12.8097C18.6068 12.8097 18.6775 12.7516 18.7434 12.4129C18.7926 12.1585 18.9422 12.0161 19.204 11.9746C19.4871 11.9295 19.5631 11.8494 19.5637 11.5713C19.5655 10.6833 19.5655 9.796 19.5637 8.90807C19.5637 8.62337 19.4924 8.54567 19.2111 8.4994C18.9339 8.45373 18.792 8.31612 18.741 8.04446C18.6822 7.72773 18.6068 7.66367 18.2816 7.66367C16.0752 7.66367 13.8689 7.6613 11.6626 7.66723C11.4952 7.66723 11.3919 7.62512 11.3065 7.47742C11.1901 7.27576 11.0459 7.08951 10.9111 6.89259H10.9117Z" fill="white"/>
<path d="M11.8702 8.3381C11.9408 8.29836 12.0162 8.31675 12.088 8.31675C14.0201 8.31556 15.9522 8.31793 17.8843 8.3126C18.0487 8.3126 18.1508 8.34047 18.2209 8.5107C18.3259 8.76575 18.5307 8.94251 18.7877 9.04453C18.8952 9.08723 18.9272 9.14833 18.926 9.25984C18.9213 9.91051 18.9207 10.5618 18.926 11.2124C18.9272 11.3281 18.8851 11.3821 18.7818 11.4248C18.5028 11.5399 18.2998 11.7427 18.1864 12.0209C18.1407 12.133 18.0772 12.1555 17.9692 12.1549C16.3113 12.1526 14.6529 12.152 12.995 12.1549C12.8567 12.1549 12.7968 12.1312 12.8146 11.9723C12.8621 11.5499 12.8146 11.13 12.7398 10.7148C12.7196 10.6045 12.7285 10.5659 12.849 10.5369C13.0223 10.4953 13.0995 10.3577 13.0722 10.1804C13.0461 10.0107 12.9333 9.90458 12.7665 9.92118C12.5641 9.94076 12.5006 9.83933 12.4471 9.67444C12.3189 9.2806 12.1409 8.90692 11.9503 8.53917C11.9177 8.47571 11.8607 8.42055 11.8702 8.3381ZM14.2041 10.9266C14.1543 10.8672 14.1311 10.8394 14.1074 10.8121C13.9655 10.6484 13.7874 10.6152 13.6408 10.7249C13.4912 10.8364 13.474 11.0078 13.5922 11.1976C13.6972 11.3667 13.8426 11.4918 14.0267 11.5612C14.1525 11.6087 14.2285 11.6591 14.2439 11.8145C14.2599 11.9752 14.387 12.0683 14.5597 12.0654C14.7211 12.0624 14.8464 11.9764 14.8571 11.8222C14.8695 11.652 14.9698 11.6128 15.0939 11.5553C15.418 11.404 15.6382 11.1602 15.6358 10.7866C15.6335 10.4236 15.4275 10.1567 15.101 10.041C14.8262 9.94372 14.8749 9.77824 14.8933 9.58547C14.9669 9.58369 14.977 9.63589 15.0055 9.66614C15.1449 9.81501 15.3177 9.84467 15.4584 9.74087C15.6032 9.63411 15.6293 9.46506 15.526 9.28831C15.4216 9.10977 15.2714 8.97691 15.0791 8.90751C14.9479 8.86006 14.879 8.80015 14.86 8.65128C14.8393 8.48579 14.714 8.39919 14.5431 8.40216C14.3816 8.40512 14.251 8.49706 14.2463 8.64653C14.2403 8.82625 14.1299 8.85413 14.0106 8.91166C13.6978 9.06232 13.4782 9.29305 13.4711 9.65961C13.4639 10.0262 13.6622 10.2907 13.9863 10.4165C14.2445 10.5161 14.254 10.6721 14.2041 10.9271V10.9266ZM16.9886 9.91466C16.7814 9.91466 16.5743 9.90992 16.3671 9.91585C16.1522 9.92178 16.0217 10.0517 16.0258 10.2409C16.03 10.4206 16.1564 10.5481 16.3594 10.5517C16.7814 10.5582 17.2029 10.5582 17.6249 10.5517C17.8439 10.5487 17.968 10.4206 17.9638 10.2261C17.9597 10.0315 17.838 9.92059 17.6101 9.91525C17.4029 9.91051 17.1957 9.91407 16.9886 9.91466Z" fill="white"/>
<path d="M2.40838 19.5835C2.40838 20.7301 2.40542 21.8766 2.41194 23.0226C2.41313 23.1904 2.37752 23.2515 2.19529 23.2474C1.6403 23.2349 1.08471 23.2343 0.530312 23.2474C0.34571 23.2515 0.314844 23.1869 0.315438 23.0214C0.320187 20.7135 0.320187 18.4062 0.315438 16.0983C0.315438 15.9387 0.346897 15.8794 0.520815 15.883C1.08293 15.8942 1.64623 15.8948 2.20835 15.883C2.38464 15.8794 2.41313 15.9429 2.41254 16.1001C2.4066 17.2614 2.40957 18.4222 2.40957 19.5835H2.40838Z" fill="white"/>
<path d="M7.10982 0.844343C7.29382 1.17176 7.46299 1.47188 7.63216 1.7726C7.76334 2.0063 7.86959 2.04545 8.12127 1.94639C8.43527 1.82302 8.68694 1.6 8.96533 1.41909C9.03953 1.37105 9.11432 1.32182 9.19386 1.28386C9.25974 1.25242 9.32682 1.25064 9.33988 1.35088C9.42773 2.02943 9.45681 2.69493 8.98492 3.27206C8.89707 3.37941 8.80447 3.42331 8.66498 3.42271C7.62919 3.41737 6.59341 3.41737 5.55821 3.42271C5.41753 3.42331 5.32612 3.37585 5.23887 3.27028C4.91715 2.88355 4.82158 2.43039 4.83524 1.94461C4.83999 1.76786 4.86135 1.5911 4.87323 1.41435C4.8845 1.2453 4.97057 1.23463 5.09226 1.31411C5.26558 1.4274 5.43593 1.54484 5.60688 1.6605C5.77249 1.77201 5.93572 1.88767 6.12567 1.95588C6.35479 2.03892 6.46579 1.998 6.58332 1.78921C6.75367 1.48671 6.92165 1.18362 7.1116 0.84375L7.10982 0.844343Z" fill="white"/>
<path d="M7.10632 5.31392C6.55905 5.31392 6.01118 5.3157 5.4639 5.31333C5.05493 5.31155 4.77179 5.05887 4.76764 4.69884C4.76289 4.32991 5.05196 4.06833 5.47221 4.06774C6.56736 4.06596 7.6625 4.06596 8.75765 4.06774C9.1684 4.06833 9.44738 4.32042 9.45272 4.6852C9.45807 5.0565 9.17493 5.31155 8.74874 5.31333C8.20147 5.3157 7.6536 5.31333 7.10632 5.31333V5.31392Z" fill="white"/>
<path d="M14.6231 4.46875C14.6231 4.58263 14.6231 4.67872 14.6231 4.77422C14.6231 5.18585 14.6272 5.20187 14.2218 5.30329C13.1676 5.56724 12.1164 5.5708 11.0717 5.23805C10.9269 5.19178 10.8622 5.12773 10.8794 4.9741C10.8978 4.81336 10.8123 4.59687 10.9144 4.50552C11.0035 4.42545 11.194 4.56899 11.3442 4.59865C12.4358 4.81336 13.5184 4.80091 14.6231 4.46934V4.46875Z" fill="white"/>
<path d="M12.7886 4.08703C12.1754 4.07932 11.6181 4.03009 11.0785 3.84503C10.9265 3.79284 10.8731 3.72225 10.8761 3.56151C10.8838 3.12793 10.8749 3.13505 11.2845 3.22639C12.3499 3.46424 13.4124 3.4589 14.4648 3.15344C14.6061 3.11251 14.6221 3.14454 14.6245 3.27384C14.6334 3.79699 14.637 3.79521 14.1247 3.93282C13.6706 4.055 13.2053 4.07695 12.7886 4.08703Z" fill="white"/>
<path d="M14.5839 2.39825C13.8597 2.85496 11.5656 2.84903 10.918 2.39765C11.6843 1.96348 13.7434 1.95873 14.5839 2.39825Z" fill="white"/>
<path d="M6.78981 9.66186C6.78981 9.84692 6.78743 10.032 6.78981 10.2164C6.79159 10.322 6.74173 10.3481 6.65091 10.3167C6.44494 10.2461 6.255 10.1488 6.12322 9.96792C5.98136 9.77396 5.98076 9.56577 6.12322 9.37241C6.16655 9.31369 6.21879 9.25793 6.27755 9.21523C6.4206 9.11202 6.59155 8.96314 6.74885 9.0272C6.85807 9.07169 6.77437 9.29649 6.78803 9.43943C6.79515 9.51298 6.78921 9.58712 6.78921 9.66126L6.78981 9.66186Z" fill="white"/>
<path d="M7.43301 11.7407C7.43301 11.564 7.43657 11.3872 7.43182 11.2111C7.42885 11.1013 7.46209 11.0574 7.5719 11.1049C7.65263 11.1399 7.73692 11.169 7.81349 11.2117C8.11503 11.3795 8.2462 11.6162 8.18507 11.8689C8.12927 12.0978 7.77966 12.3843 7.53629 12.411C7.43004 12.4228 7.4336 12.3618 7.4336 12.2918C7.4336 12.1079 7.4336 11.924 7.4336 11.7401L7.43301 11.7407Z" fill="white"/>
</svg>
