<svg width="21" height="21" viewBox="0 0 21 21" fill="none" xmlns="http://www.w3.org/2000/svg">
<path d="M20.0664 14.988C19.9615 15.1916 19.7898 15.3189 19.5978 15.4358C17.4567 16.7331 15.3166 18.033 13.1796 19.3376C12.7679 19.5891 12.3306 19.7138 11.8484 19.7133C9.06906 19.7102 6.28971 19.7097 3.51036 19.7159C3.32354 19.7159 3.27292 19.6726 3.27344 19.4821C3.28075 17.2497 3.28023 15.0167 3.27344 12.7843C3.27292 12.6006 3.32876 12.5703 3.50044 12.5609C4.40324 12.5129 5.21053 12.7389 5.91189 13.326C6.13159 13.5097 6.39564 13.6297 6.66178 13.7377C7.13353 13.9287 7.62615 13.9986 8.1313 13.9986C8.71055 13.9986 9.2898 13.9944 9.86904 14.0002C10.4243 14.0059 10.8355 14.2648 11.1168 14.7375C11.2238 14.9165 11.2613 15.1107 11.2431 15.3184C11.2112 15.6868 11.1173 15.7724 10.7557 15.7776C10.0073 15.7885 9.25849 15.7411 8.5112 15.8068C7.82445 15.8673 7.2212 16.1455 6.6717 16.5483C6.50523 16.6705 6.47653 16.8714 6.58664 17.0326C6.69362 17.1892 6.89714 17.2361 7.07039 17.1307C7.276 17.0055 7.47064 16.8635 7.69034 16.7623C8.09268 16.5765 8.51538 16.4951 8.95842 16.4972C9.8894 16.5019 10.8198 16.493 11.7508 16.5014C12.1532 16.505 12.5362 16.4414 12.9177 16.313C14.9743 15.62 17.0345 14.9364 19.0932 14.2496C19.59 14.0837 19.8165 14.174 20.0664 14.6368V14.9886V14.988Z" fill="white"/>
<path d="M4.8717 0.0664062C5.28552 0.224525 5.4546 0.52615 5.42485 0.964498C5.39772 1.36632 5.45773 1.77179 5.39093 2.17204C5.32466 2.57125 5.13523 2.90836 4.83152 3.17346C4.73706 3.25591 4.70523 3.33941 4.70993 3.45839C4.71775 3.65356 4.69845 3.84977 4.71515 4.04389C4.7428 4.36222 4.63374 4.60644 4.3963 4.81935C4.13381 5.05418 4.14425 5.06566 4.39473 5.31824C4.71775 5.64387 4.71828 5.91575 4.39578 6.24138C4.1432 6.49604 4.13329 6.50752 4.40621 6.7533C4.63896 6.96256 4.7021 7.20679 4.72193 7.51206C4.75637 8.04487 4.63113 8.49574 4.26062 8.88503C4.11398 9.0395 4.00387 9.22841 3.87132 9.39748C3.54412 9.81548 3.01654 9.81705 2.69247 9.39853C2.46547 9.10525 2.2489 8.80415 2.02347 8.50983C1.89405 8.34075 1.85335 8.15289 1.85387 7.94363C1.857 6.45324 1.85439 4.96286 1.85752 3.473C1.85752 3.34776 1.8283 3.26061 1.72862 3.17189C1.32628 2.81495 1.14103 2.35573 1.13633 1.82136C1.13424 1.5547 1.15146 1.28648 1.13216 1.02138C1.10032 0.578856 1.2454 0.24853 1.66757 0.0669281H4.87066L4.8717 0.0664062ZM3.28216 8.9941C3.51647 8.68152 3.7346 8.39033 3.95169 8.09862C3.97047 8.07305 3.99187 8.04069 3.99239 8.01199C3.99343 7.67697 4.06701 7.34247 3.72886 7.07685C3.22371 6.68025 3.21693 6.34522 3.71946 5.91575C3.84105 5.8119 3.83062 5.74406 3.71686 5.64595C3.21484 5.21491 3.23937 4.88354 3.71477 4.49477C3.95951 4.2949 4.03205 4.06164 4.0023 3.76262C3.9903 3.64051 3.95847 3.61181 3.83949 3.62016C3.4695 3.64573 3.09795 3.64729 2.72796 3.62016C2.59541 3.61024 2.5641 3.64573 2.56462 3.77358C2.5688 5.15333 2.56723 6.53309 2.56723 7.91232C2.56723 7.97651 2.56306 8.03913 2.60741 8.09757C2.82763 8.38667 3.04472 8.67838 3.28216 8.99462V8.9941ZM3.26859 1.85476C3.26859 1.85476 3.26859 1.85424 3.26859 1.85372C3.39175 1.85372 3.51542 1.86155 3.63806 1.85215C3.8541 1.83545 3.99709 1.68308 3.99291 1.48791C3.98926 1.29952 3.85358 1.15236 3.64327 1.14088C3.40427 1.12784 3.16318 1.12784 2.92365 1.14036C2.70448 1.15184 2.5641 1.30683 2.56827 1.502C2.57245 1.69769 2.71648 1.83806 2.93774 1.8532C3.04733 1.8605 3.15796 1.85424 3.26859 1.85424V1.85476Z" fill="white"/>
<path d="M20.0668 9.83332C19.9337 10.0504 19.7291 10.0875 19.4964 10.0697C19.3477 10.0582 19.1802 10.1068 19.0523 10.0541C18.9067 9.99353 18.961 9.79314 18.9104 9.65851C18.7976 9.36053 18.8055 9.3574 19.1316 9.3574C19.2814 9.3574 19.4317 9.36836 19.5804 9.35479C19.7985 9.33444 19.9588 9.40959 20.0673 9.59902V9.83332H20.0668Z" fill="white"/>
<path d="M13.6409 3.63226C14.5066 3.63226 15.3724 3.64113 16.2376 3.62913C16.8075 3.62078 17.2014 3.85039 17.4472 4.37275C17.7541 5.02506 18.0922 5.66327 18.4069 6.31192C18.4721 6.44604 18.5415 6.50344 18.6986 6.50083C19.3107 6.49196 19.3556 6.54258 19.3556 7.14844C19.3556 7.59096 19.352 8.03348 19.3577 8.47601C19.3593 8.59446 19.3222 8.63621 19.2027 8.6336C18.8907 8.62734 18.5781 8.62891 18.2655 8.63308C18.1752 8.63412 18.1048 8.5976 18.0301 8.55585C17.3768 8.18795 16.7177 8.1796 16.0612 8.54228C15.948 8.6049 15.84 8.63465 15.7121 8.6336C15.1981 8.62891 14.6835 8.62734 14.1695 8.63465C14.0312 8.63673 13.9905 8.59238 13.9947 8.45722C14.0036 8.1843 14.0004 7.91033 13.9963 7.6374C13.9926 7.36709 13.8627 7.21419 13.644 7.21054C13.4181 7.20688 13.2808 7.36709 13.2782 7.64419C13.2756 7.91763 13.273 8.19108 13.2798 8.464C13.2829 8.58507 13.2542 8.63517 13.1201 8.63412C12.2152 8.62891 11.3109 8.63047 10.406 8.63256C10.3235 8.63256 10.2562 8.6049 10.1873 8.56524C9.51519 8.17855 8.84044 8.1796 8.16726 8.56107C8.09107 8.60438 8.01906 8.63308 7.93034 8.63256C7.50713 8.62995 7.08443 8.62734 6.66121 8.63412C6.53388 8.63621 6.49631 8.59655 6.49422 8.4687C6.48535 7.91868 6.48118 7.91868 7.03485 7.91816C7.69969 7.91816 8.1109 7.64106 8.24919 7.10251C8.28728 6.95483 8.2805 6.80506 8.2758 6.65582C8.27215 6.5431 8.3019 6.47265 8.42557 6.49665C8.7058 6.55093 8.83209 6.41055 8.94429 6.16789C9.23339 5.54325 9.56059 4.93582 9.86013 4.31587C10.0861 3.84778 10.4529 3.62965 10.9654 3.63069C11.8572 3.63278 12.7485 3.63069 13.6404 3.63069L13.6409 3.63226ZM11.4345 6.49665C11.994 6.49665 12.5534 6.49352 13.1123 6.49874C13.237 6.49979 13.2813 6.46639 13.2798 6.33436C13.273 5.72954 13.2725 5.12473 13.2798 4.51991C13.2819 4.37588 13.2286 4.35031 13.0997 4.35136C12.3712 4.35658 11.6427 4.35658 10.9143 4.3524C10.7212 4.35136 10.5985 4.43276 10.5145 4.60341C10.2306 5.18004 9.94362 5.75564 9.65087 6.32758C9.58146 6.46378 9.59868 6.50135 9.75576 6.49926C10.3152 6.49248 10.8746 6.49665 11.4335 6.49665H11.4345ZM15.8525 6.49665C16.4119 6.49665 16.9713 6.49561 17.5307 6.4977C17.6388 6.4977 17.7134 6.50031 17.6388 6.35471C17.3376 5.76451 17.0433 5.17117 16.7474 4.57836C16.6739 4.43068 16.5606 4.35292 16.3915 4.35344C15.6437 4.35501 14.8954 4.35658 14.1476 4.35136C14.0245 4.35031 13.9947 4.39467 13.9958 4.50948C13.9999 5.11429 14.0015 5.71911 13.9952 6.32445C13.9937 6.46326 14.0417 6.50031 14.1747 6.49926C14.7342 6.493 15.2936 6.49665 15.853 6.49665H15.8525ZM11.4872 7.91711V7.91816C11.6041 7.91816 11.721 7.91816 11.8379 7.91816C11.851 7.91816 11.864 7.91816 11.8771 7.91659C12.0654 7.8978 12.2053 7.75273 12.21 7.57165C12.2147 7.38483 12.0696 7.22045 11.8734 7.21315C11.6208 7.20427 11.3672 7.20427 11.1141 7.21315C10.9252 7.21993 10.7859 7.37387 10.7817 7.55547C10.777 7.74334 10.9205 7.90198 11.1183 7.9145C11.2409 7.92233 11.3646 7.91607 11.4883 7.91607L11.4872 7.91711ZM15.4209 7.91763C15.5441 7.91763 15.6677 7.92285 15.7904 7.91659C15.9949 7.90563 16.1306 7.76265 16.1317 7.56695C16.1327 7.37074 15.9981 7.22045 15.7951 7.21367C15.5488 7.20532 15.3019 7.20584 15.0561 7.21367C14.8542 7.21993 14.7143 7.37022 14.7133 7.56278C14.7122 7.75534 14.8511 7.90511 15.0509 7.91711C15.1736 7.92442 15.2972 7.91868 15.4204 7.91868L15.4209 7.91763Z" fill="white"/>
<path d="M2.56728 15.9691C2.56728 17.1787 2.56728 18.3889 2.56728 19.5985C2.56728 19.9476 2.44882 20.0656 2.09814 20.0656C1.56482 20.0661 1.03149 20.0671 0.498166 20.0656C0.198627 20.0645 0.0686874 19.9356 0.0681656 19.6377C0.0671219 17.1855 0.0671219 14.7334 0.0681656 12.2807C0.0681656 11.9817 0.194974 11.8575 0.497644 11.8565C1.03097 11.8549 1.5643 11.8554 2.09762 11.8565C2.45352 11.8565 2.56676 11.9687 2.56728 12.3204C2.56728 13.5368 2.56728 14.7532 2.56728 15.9696V15.9691Z" fill="white"/>
<path d="M10.4214 10.2572C10.4188 10.9387 9.86203 11.4924 9.17737 11.495C8.48906 11.4976 7.92181 10.9319 7.92285 10.2441C7.9239 9.5532 8.48853 8.9943 9.1805 9.00004C9.87925 9.00578 10.4241 9.55789 10.4214 10.2572Z" fill="white"/>
<path d="M18.2768 10.255C18.2732 10.9397 17.7211 11.4913 17.0359 11.4949C16.3481 11.4986 15.7798 10.9329 15.7793 10.2456C15.7793 9.55629 16.3418 8.99792 17.0359 9.00001C17.7326 9.00209 18.2805 9.55681 18.2768 10.255Z" fill="white"/>
<path d="M15.2641 9.35725C15.1916 9.54407 15.1133 9.69749 15.1008 9.86657C15.0893 10.0273 15.0262 10.0737 14.8597 10.0722C13.7012 10.0633 12.5422 10.0675 11.3837 10.0675C11.3446 10.0675 11.3054 10.0643 11.2668 10.068C11.1718 10.0779 11.128 10.0456 11.1181 9.94172C11.1024 9.77942 11.0513 9.62339 10.9782 9.47728C10.9302 9.38073 10.9568 9.34838 11.0586 9.35673C11.0972 9.35986 11.1369 9.35673 11.1755 9.35673C12.4577 9.35673 13.7404 9.35673 15.0225 9.35673C15.0935 9.35673 15.165 9.35673 15.2636 9.35673L15.2641 9.35725Z" fill="white"/>
<path d="M7.40678 9.35701C7.31493 9.57984 7.24135 9.77449 7.221 9.98218C7.21265 10.0683 7.16099 10.0667 7.09993 10.0667C6.78161 10.0662 6.46276 10.0714 6.14443 10.0641C5.93152 10.0594 5.77914 9.90025 5.78227 9.70717C5.78541 9.51461 5.94091 9.36067 6.15174 9.35806C6.56087 9.35336 6.96947 9.35649 7.4073 9.35649L7.40678 9.35701Z" fill="white"/>
<path d="M6.89803 7.21073C6.87872 7.21073 6.8568 7.21647 6.8401 7.20969C6.71955 7.16325 6.49151 7.34276 6.49516 7.03331C6.49934 6.64767 6.58596 6.50886 6.87298 6.49946C7.06084 6.4932 7.24923 6.50259 7.43709 6.49633C7.53937 6.49268 7.56651 6.53077 7.56964 6.63097C7.58373 7.04166 7.47205 7.20239 7.15112 7.21073C7.06658 7.21282 6.98256 7.21073 6.89803 7.21073Z" fill="white"/>
</svg>
