<svg width="21" height="16" viewBox="0 0 21 16" fill="none" xmlns="http://www.w3.org/2000/svg">
<path d="M0.251953 5.5396C0.395463 5.16856 0.621947 4.88623 1.04099 4.81787C1.13023 4.80326 1.22208 4.80117 1.31288 4.80117C7.26878 4.80065 13.2247 4.80065 19.1806 4.80117C19.8825 4.80117 20.252 5.17169 20.252 5.87358C20.252 8.70516 20.252 11.5367 20.252 14.3683C20.252 15.0593 19.8835 15.4266 19.1915 15.4266C13.268 15.4266 7.34497 15.4225 1.42142 15.4334C0.839559 15.4345 0.443995 15.2403 0.251953 14.6814L0.251953 5.5396ZM10.2413 14.1752C12.4842 14.1799 14.3091 12.366 14.3148 10.1262C14.3206 7.88898 12.4983 6.05675 10.2632 6.05154C8.02651 6.04632 6.19481 7.86915 6.19011 10.1048C6.18594 12.3467 8.00146 14.1705 10.2413 14.1752ZM19.0021 10.1309C19.0021 9.21971 19.0021 8.30855 19.0021 7.3974C19.0021 7.10933 18.9186 7.01905 18.6279 6.98565C18.3368 6.95226 18.1108 6.7336 18.0685 6.44449C18.02 6.11207 17.9506 6.05049 17.6166 6.05049C16.3542 6.05049 15.0914 6.05049 13.829 6.05049C13.758 6.05049 13.6834 6.04788 13.6161 6.06615C13.46 6.10946 13.3713 6.21853 13.3812 6.38239C13.3912 6.54573 13.4919 6.64227 13.651 6.66993C13.7142 6.68089 13.781 6.67515 13.8457 6.67515C14.9849 6.67515 16.1236 6.67724 17.2628 6.67254C17.4047 6.67202 17.4887 6.71011 17.5435 6.84997C17.6683 7.1683 17.9015 7.39166 18.2167 7.51847C18.3409 7.56857 18.3795 7.63902 18.379 7.76739C18.3754 9.3293 18.3754 10.8912 18.3795 12.4531C18.3795 12.5904 18.3399 12.6666 18.2094 12.7177C17.9052 12.8372 17.6771 13.0512 17.5576 13.3538C17.4919 13.5203 17.3964 13.5542 17.2336 13.5532C16.075 13.5469 14.9165 13.549 13.758 13.5506C13.5195 13.5506 13.3718 13.6821 13.3781 13.8747C13.3844 14.0604 13.5253 14.1742 13.7596 14.1742C15.0679 14.1752 16.3762 14.1752 17.6839 14.1742C17.9407 14.1742 18.0388 14.0839 18.0649 13.8355C18.0998 13.5041 18.3107 13.285 18.6363 13.2411C18.9306 13.2015 19.0011 13.1221 19.0016 12.8247C19.0021 11.9266 19.0016 11.0285 19.0016 10.1303L19.0021 10.1309ZM1.50179 10.1079C1.50179 11.0253 1.50075 11.9433 1.50231 12.8607C1.50231 13.1018 1.59364 13.2109 1.80499 13.2375C2.20994 13.2886 2.3905 13.4686 2.43956 13.8715C2.46304 14.0636 2.56689 14.1726 2.75737 14.1726C4.10479 14.1758 5.45169 14.1752 6.79912 14.1726C6.99011 14.1726 7.11692 14.0495 7.12475 13.8793C7.13258 13.715 7.00786 13.5762 6.82573 13.5537C6.76154 13.5459 6.69579 13.5495 6.63056 13.5495C5.49814 13.5495 4.36572 13.5469 3.2333 13.5521C3.08927 13.5527 3.01099 13.5114 2.95567 13.3731C2.83147 13.0637 2.60707 12.8414 2.29605 12.7182C2.16715 12.6671 2.12279 12.594 2.12332 12.4552C2.12801 10.8933 2.12801 9.33139 2.12332 7.76948C2.12332 7.62806 2.17498 7.56178 2.30127 7.51064C2.6102 7.38487 2.83512 7.16256 2.95828 6.85206C3.01308 6.71429 3.09292 6.67045 3.23747 6.6715C4.01816 6.67776 4.79938 6.67463 5.58059 6.67411C5.98398 6.67411 6.3879 6.67672 6.79129 6.67254C6.99846 6.67045 7.13571 6.5306 7.12527 6.34795C7.11431 6.16112 6.96559 6.04997 6.71718 6.04945C5.42873 6.0484 4.13975 6.0484 2.8513 6.04945C2.56115 6.04945 2.47191 6.1319 2.43695 6.42049C2.3999 6.72421 2.17759 6.94912 1.87909 6.98409C1.57955 7.01905 1.50231 7.1062 1.50179 7.41201C1.50179 8.31012 1.50179 9.20823 1.50179 10.1063V10.1079ZM4.00094 11.0499C4.51497 11.0499 4.93401 10.6376 4.93871 10.1257C4.94393 9.60745 4.51914 9.17744 4.00251 9.17692C3.49422 9.1764 3.06944 9.59649 3.06474 10.1048C3.06004 10.6266 3.47909 11.0493 4.00094 11.0499ZM16.4936 11.0499C17.0165 11.053 17.4397 10.6345 17.4392 10.1142C17.4386 9.60432 17.0201 9.18214 16.5108 9.17692C15.9952 9.1717 15.5647 9.5991 15.5657 10.1168C15.5662 10.6298 15.9816 11.0467 16.4941 11.0499H16.4936Z" fill="white"/>
<path d="M6.06836 4.10512C6.44566 4.0498 6.82244 3.99344 7.19974 3.93969C8.87906 3.69964 10.5589 3.46115 12.2382 3.2211C13.8408 2.992 15.4434 2.76187 17.0466 2.53225C17.3618 2.48685 17.6775 2.44354 17.9927 2.39761C18.5276 2.31986 19.0014 2.66585 19.0771 3.19553C19.1157 3.46585 19.1413 3.73826 19.1809 4.00805C19.1982 4.12704 19.1653 4.1834 19.0411 4.17505C19.0025 4.17244 18.9628 4.17505 18.9242 4.17505C14.7128 4.17505 10.502 4.17505 6.29067 4.17505C6.21709 4.17505 6.14351 4.17505 6.06993 4.17505C6.06993 4.15209 6.06888 4.1286 6.06836 4.10564V4.10512Z" fill="white"/>
<path d="M6.23685 3.38144C6.65329 3.26298 7.03111 3.15391 7.40945 3.04745C10.2729 2.24432 13.1363 1.44171 16.0002 0.639096C16.6593 0.45436 17.1248 0.722071 17.2954 1.38535C17.4139 1.84615 17.4144 1.84771 16.9479 1.91451C14.2196 2.30538 11.4914 2.69468 8.76262 3.08555C7.9908 3.19618 7.21898 3.3089 6.44716 3.41954C6.39236 3.42736 6.33496 3.45033 6.23633 3.38144H6.23685Z" fill="white"/>
<path d="M10.2399 13.5496C8.34297 13.5455 6.80873 11.9992 6.81447 10.0981C6.82021 8.21421 8.3675 6.67474 10.2535 6.67578C12.1473 6.67683 13.6914 8.22569 13.6888 10.1216C13.6862 12.018 12.141 13.5538 10.2399 13.5496ZM11.5012 9.08257C11.459 8.63482 11.2293 8.25335 10.7665 8.04617C10.6109 7.97676 10.5332 7.90266 10.5635 7.73254C10.5702 7.69444 10.5661 7.65426 10.5635 7.61564C10.5488 7.43299 10.4184 7.30253 10.2524 7.30253C10.0891 7.30253 9.95654 7.4356 9.94141 7.61721C9.93776 7.66261 9.93306 7.70957 9.94141 7.75341C9.96959 7.91049 9.89288 7.97572 9.75406 8.03834C9.28492 8.24813 9.02765 8.62282 9.00677 9.1358C8.97807 9.84239 9.50305 10.3815 10.2404 10.4243C10.6162 10.4462 10.8807 10.7081 10.8771 11.0541C10.8734 11.3793 10.613 11.6543 10.2911 11.6725C9.93828 11.6924 9.669 11.4492 9.6283 11.0745C9.60534 10.8611 9.47435 10.7285 9.29849 10.74C9.12262 10.7515 8.9932 10.9049 9.00573 11.1115C9.03182 11.5436 9.2176 11.9048 9.60064 12.1036C9.84748 12.232 9.98316 12.3556 9.95185 12.6515C9.93567 12.805 10.0661 12.9099 10.231 12.9208C10.4079 12.9328 10.5118 12.8331 10.5551 12.6714C10.5713 12.6103 10.5723 12.5404 10.5629 12.4772C10.5395 12.3207 10.6083 12.2523 10.7508 12.1913C11.3207 11.947 11.6098 11.3453 11.4626 10.7457C11.3306 10.2056 10.8672 9.83978 10.265 9.7996C9.90697 9.7756 9.64448 9.53189 9.6283 9.20834C9.6116 8.87018 9.87566 8.57481 10.2164 8.55185C10.5551 8.52889 10.8359 8.78616 10.8766 9.15668C10.9006 9.37533 11.0232 9.4964 11.2085 9.48492C11.3812 9.47396 11.4986 9.33306 11.5012 9.08205V9.08257Z" fill="white"/>
<path d="M4.31294 10.1147C4.31398 10.2858 4.17673 10.4241 4.00452 10.4252C3.83179 10.4262 3.69246 10.2905 3.69141 10.1194C3.69037 9.95134 3.83283 9.80627 3.99983 9.8047C4.1663 9.80313 4.31189 9.94717 4.31294 10.1147Z" fill="white"/>
<path d="M16.8125 10.1152C16.8135 10.2864 16.6758 10.4247 16.503 10.4252C16.3303 10.4262 16.1915 10.29 16.1904 10.1188C16.1894 9.95081 16.3324 9.80574 16.4994 9.80469C16.6658 9.80365 16.8114 9.94768 16.812 10.1152H16.8125Z" fill="white"/>
</svg>
