<svg width="121" height="121" viewBox="0 0 121 121" fill="none" xmlns="http://www.w3.org/2000/svg">
<circle cx="60.4309" cy="60.5051" r="60" fill="#B22234"/>
<path d="M70.4708 99.2459L63.2113 98.8463L92.1829 59.5515C92.7823 58.7523 93.4483 57.8864 94.1143 57.1538C95.5796 55.4888 98.843 50.2939 86.8548 45.2322C86.8548 45.2322 105.037 48.096 98.177 59.2185L70.4708 99.2459Z" fill="white"/>
<path d="M58.4828 99.3091L52.5553 99.9085L24.1831 61.6793C24.1831 61.6793 18.6552 53.6871 25.3153 49.1582C25.3153 49.1582 31.5093 45.9614 34.3065 46.0946C34.3065 46.0946 29.378 47.9594 27.047 51.1563C25.8481 52.8879 25.8481 55.219 27.047 57.0172C27.2468 57.2836 27.4466 57.6166 27.6464 57.9496C28.046 58.4824 28.379 59.0818 28.7786 59.6147L58.4828 99.3091Z" fill="white"/>
<path d="M62.5914 84.1705L58.6093 84.5034L59.436 94.3922L63.4181 94.0594L62.5914 84.1705Z" fill="white"/>
<path d="M61.5553 68.3024L58.1596 68.389L58.4127 78.3096L61.8083 78.223L61.5553 68.3024Z" fill="white"/>
<path d="M60.6233 54.6504L57.2277 54.737L57.4807 64.6576L60.8764 64.571L60.6233 54.6504Z" fill="white"/>
<path d="M32.2426 42.5667L38.9693 40.3022" stroke="white" stroke-width="0.0625" stroke-miterlimit="10"/>
<path d="M27.3812 40.3073L41.3009 35.1124" stroke="white" stroke-width="0.0625" stroke-miterlimit="10"/>
<path d="M86.3893 44.9665L83.3257 43.2349" stroke="white" stroke-width="0.0625" stroke-miterlimit="10"/>
<path d="M88.3873 41.838L81.6605 38.0417" stroke="white" stroke-width="0.0625" stroke-miterlimit="10"/>
<path d="M85.1241 51.6286L84.7911 40.1066C85.1241 37.2427 80.9949 33.0468 80.9949 33.0468C84.2583 33.9126 83.5923 30.516 83.5923 30.516C82.4601 28.1183 78.9968 30.1164 78.9968 30.1164L75.9997 24.9214C74.4679 22.1908 69.4728 22.324 69.4728 22.324C55.0203 21.5914 48.2269 22.99 48.2269 22.99C44.2975 23.656 41.8332 31.1154 41.8332 31.1154C41.1672 29.6501 39.6354 29.5169 39.6354 29.5169C37.9037 29.0507 37.5041 29.9832 37.5041 29.9832C35.8391 31.5816 37.5041 32.7138 37.5041 32.7138L39.9018 33.3132C40.7676 33.9792 39.5688 34.7119 39.5688 34.7119C35.8391 36.3103 36.7049 41.2388 36.7049 41.2388C36.6383 49.4974 37.3043 53.8931 37.3043 53.8931C38.9028 57.6227 40.9008 56.8901 40.9008 56.8901C46.0291 58.3554 46.6951 54.2261 46.6951 54.2261H43.4316C43.4316 54.2261 40.7676 54.3593 40.6344 52.1614L40.1682 39.4406C40.1682 39.4406 39.9684 38.1751 41.7666 37.1761C41.7666 37.1761 45.9625 31.9812 46.7617 28.1849C46.7617 28.1849 48.0272 25.5875 50.1584 25.5875C50.1584 25.5875 61.2142 25.1879 70.5384 25.4543C70.5384 25.4543 72.1369 25.5209 73.4023 27.1193C73.4023 27.1193 78.5306 35.8441 79.463 36.8431C79.463 36.8431 81.3945 37.9087 81.0615 40.5062L81.4611 51.7618C81.4611 51.7618 81.8607 54.4925 79.1966 54.0929L76.5992 54.2261C76.1995 57.6893 79.9958 57.7559 79.9958 57.7559C85.657 57.4895 85.1241 51.6286 85.1241 51.6286Z" fill="white"/>
<path d="M50.5584 49.8995C50.5584 49.8995 68.4742 49.6331 68.8072 49.6331C69.1402 49.6331 71.9375 49.5665 72.0707 51.1649C72.0707 51.1649 72.4037 53.2296 69.4732 53.2296L52.3567 53.3628C52.3567 53.3628 49.8924 53.6958 49.1598 51.8309C49.2264 51.8309 48.96 49.8995 50.5584 49.8995Z" fill="white"/>
<path d="M52.4889 44.1026C52.4889 44.1026 67.0746 43.9028 67.4077 43.9028C67.7407 43.9028 70.0051 43.8362 70.0717 45.1683C70.0717 45.1683 70.3381 46.8333 68.0071 46.8333L54.0208 46.9665C54.0208 46.9665 52.0227 47.2329 51.4233 45.7011C51.3567 45.7011 51.1569 44.1026 52.4889 44.1026Z" fill="white"/>
<path d="M45.0297 47.2969C47.0895 47.2969 48.7594 45.6271 48.7594 43.5672C48.7594 41.5074 47.0895 39.8375 45.0297 39.8375C42.9699 39.8375 41.3 41.5074 41.3 43.5672C41.3 45.6271 42.9699 47.2969 45.0297 47.2969Z" fill="white"/>
<path d="M75.7326 47.4998C77.7924 47.4998 79.4623 45.8299 79.4623 43.7701C79.4623 41.7102 77.7924 40.0404 75.7326 40.0404C73.6728 40.0404 72.0029 41.7102 72.0029 43.7701C72.0029 45.8299 73.6728 47.4998 75.7326 47.4998Z" fill="white"/>
<path d="M45.6954 32.842L75.2664 32.9752C75.2664 32.9752 75.8658 31.843 74.8002 30.7108L72.6023 27.5139C72.6023 27.5139 72.4025 26.5149 70.6043 26.3817L50.5573 26.6481C50.5573 26.6481 48.8256 26.8479 48.1596 28.0467L45.6954 32.842Z" fill="white"/>
</svg>
