<svg width="20" height="20" viewBox="0 0 20 20" fill="none" xmlns="http://www.w3.org/2000/svg">
<path d="M18.7573 7.86404L17.0829 7.02683C16.7731 6.87613 16.388 6.99334 16.2373 7.30311C16.0783 7.62125 16.2038 7.99799 16.5136 8.14869L17.8448 8.81009V12.8203L14.7052 12.8287V4.23892C14.7052 2.5645 13.5834 1.72729 12.1936 1.72729H5.49593C4.10617 1.72729 2.98431 2.5645 2.98431 4.23892V17.8436H1.72849C1.38524 17.8436 1.10059 18.1282 1.10059 18.4715C1.10059 18.8147 1.38524 19.0994 1.72849 19.0994H15.9611C16.3043 19.0994 16.589 18.8147 16.589 18.4715C16.589 18.1282 16.3043 17.8436 15.9611 17.8436H14.7052V14.0845L18.4727 14.0761C18.8243 14.0761 19.1006 13.7915 19.1006 13.4482V8.42497C19.1006 8.19055 18.9666 7.97288 18.7573 7.86404ZM5.07733 5.82125C5.07733 4.65753 5.78896 4.23892 6.65966 4.23892H11.0383C11.9006 4.23892 12.6122 4.65753 12.6122 5.82125V6.85102C12.6122 8.00636 11.9006 8.42497 11.0299 8.42497H6.65966C5.78896 8.42497 5.07733 8.00636 5.07733 6.84264V5.82125ZM5.49593 10.3087H8.00756C8.35082 10.3087 8.63547 10.5933 8.63547 10.9366C8.63547 11.2799 8.35082 11.5645 8.00756 11.5645H5.49593C5.15268 11.5645 4.86803 11.2799 4.86803 10.9366C4.86803 10.5933 5.15268 10.3087 5.49593 10.3087Z" fill="#B22234"/>
</svg>
