<svg width="201" height="169" viewBox="0 0 201 169" fill="none" xmlns="http://www.w3.org/2000/svg">
<path d="M169.397 0.222656H2.83342C1.52124 0.222656 0.45752 1.28639 0.45752 2.59856V142.354C0.45752 142.859 0.63846 143.379 0.939959 143.784C50.2131 209.977 100.714 114.205 196.831 164.81C198.436 165.655 200.458 164.543 200.458 162.729V31.2523C200.45 23.0299 197.176 15.146 191.353 9.32924C185.531 3.51248 177.635 0.237603 169.397 0.222656Z" fill="url(#paint0_linear_1218_209)"/>
<path opacity="0.3" d="M0.45752 45.5155C0.45752 45.9739 0.588598 46.4213 0.840002 46.8046C20.1859 76.3025 54.1605 100.842 96.4405 112.173C133.151 122 169.314 120.092 198.936 109.052C199.856 108.709 200.458 107.827 200.458 106.845V31.2253C200.458 22.9883 197.179 15.0886 191.343 9.26412C185.508 3.43964 177.593 0.16748 169.34 0.16748H2.83342C1.52124 0.16748 0.45752 1.23121 0.45752 2.54339V45.5155Z" fill="url(#paint1_linear_1218_209)"/>
<path opacity="0.3" d="M158.179 151.186C159.42 151.409 160.633 150.65 160.948 149.43L195.492 15.9181C195.655 15.2903 195.557 14.6207 195.198 14.0808C191.745 8.89215 186.815 4.8687 181.06 2.51871C179.799 2.00362 178.416 2.77374 178.074 4.09285L141.222 146.511C140.838 147.995 141.938 149.447 143.469 149.521C148.403 149.759 153.317 150.315 158.179 151.186Z" fill="url(#paint2_linear_1218_209)"/>
<path opacity="0.3" d="M73.7106 0.222656C72.6279 0.222656 71.6821 0.954636 71.4106 2.00273L29.5152 163.725C29.1959 164.958 29.9041 166.229 31.1381 166.544C36.4057 167.887 41.8596 168.361 47.2833 167.946C48.2673 167.871 49.0793 167.162 49.3269 166.207L91.5822 3.19473C91.9722 1.69026 90.8365 0.222656 89.2823 0.222656H73.7106Z" fill="url(#paint3_linear_1218_209)"/>
<path opacity="0.3" d="M169.396 0.222656H162.493C161.41 0.222656 160.465 0.954282 160.193 2.00204L122.586 146.991C122.163 148.622 123.525 150.165 125.2 149.993C130.292 149.471 135.411 149.264 140.528 149.372C141.643 149.396 142.636 148.659 142.916 147.579L180.024 4.36216C180.327 3.19379 179.708 1.97432 178.555 1.61731C175.593 0.699974 172.505 0.228712 169.396 0.222656Z" fill="url(#paint4_linear_1218_209)"/>
<defs>
<linearGradient id="paint0_linear_1218_209" x1="0.45752" y1="84.1353" x2="200.458" y2="84.1353" gradientUnits="userSpaceOnUse">
<stop stop-color="#C53F3F"/>
<stop offset="1" stop-color="#B22234"/>
</linearGradient>
<linearGradient id="paint1_linear_1218_209" x1="83.8097" y1="73.1817" x2="153.546" y2="-6.0072" gradientUnits="userSpaceOnUse">
<stop stop-color="white" stop-opacity="0.3"/>
<stop offset="1" stop-color="white" stop-opacity="0"/>
</linearGradient>
<linearGradient id="paint2_linear_1218_209" x1="140.471" y1="76.6274" x2="195.789" y2="76.6274" gradientUnits="userSpaceOnUse">
<stop stop-color="white" stop-opacity="0.3"/>
<stop offset="1" stop-color="white" stop-opacity="0"/>
</linearGradient>
<linearGradient id="paint3_linear_1218_209" x1="28.9438" y1="84.1353" x2="92.3526" y2="84.1353" gradientUnits="userSpaceOnUse">
<stop stop-color="white" stop-opacity="0.3"/>
<stop offset="1" stop-color="white" stop-opacity="0"/>
</linearGradient>
<linearGradient id="paint4_linear_1218_209" x1="121.701" y1="75.3262" x2="180.555" y2="75.3262" gradientUnits="userSpaceOnUse">
<stop stop-color="white" stop-opacity="0.3"/>
<stop offset="1" stop-color="white" stop-opacity="0"/>
</linearGradient>
</defs>
</svg>
