<svg width="32" height="32" viewBox="0 0 32 32" fill="none" xmlns="http://www.w3.org/2000/svg">
<g clip-path="url(#clip0_1115_145)">
<path d="M15.9832 0.15918C13.0031 0.161561 10.0842 1.00545 7.5625 2.59372H24.381C21.8659 1.00962 18.9556 0.165895 15.9832 0.15918Z" fill="#B22234"/>
<path d="M7.56307 2.59387C6.47679 3.28155 5.47835 4.09905 4.58984 5.02828H27.3965C26.495 4.09637 25.4824 3.27876 24.3815 2.59387H7.56307Z" fill="white"/>
<path d="M4.58914 5.02588C3.87093 5.77257 3.22777 6.58801 2.66895 7.46041H29.3155C28.7568 6.58801 28.1138 5.7726 27.3957 5.02588H4.58914Z" fill="#B22234"/>
<path d="M2.66941 7.4624C2.16995 8.2349 1.7388 9.04943 1.38086 9.89683H30.5747C30.2263 9.05048 29.8051 8.23596 29.3159 7.4624H2.66941Z" fill="white"/>
<path d="M1.38089 9.89563C1.05688 10.6849 0.797238 11.499 0.604492 12.3302H31.3616C31.1654 11.4988 30.9023 10.6846 30.5747 9.89563H1.38089Z" fill="#B22234"/>
<path d="M0.60387 12.3309C0.412725 13.1312 0.284286 13.9452 0.219727 14.7655H31.7556C31.6876 13.9449 31.5557 13.131 31.361 12.3309H0.60387Z" fill="white"/>
<path d="M0.220092 14.7656C0.184165 15.1704 0.163846 15.5765 0.15918 15.9828C0.160719 16.3891 0.177903 16.7951 0.210691 17.2001H31.7466C31.7825 16.7952 31.8029 16.3892 31.8076 15.9828C31.806 15.5766 31.7888 15.1705 31.756 14.7656H0.220092Z" fill="#B22234"/>
<path d="M0.210938 17.2001C0.278968 18.0206 0.410937 18.8346 0.605641 19.6346H31.3627C31.5539 18.8343 31.6823 18.0203 31.7469 17.2001H0.210938Z" fill="white"/>
<path d="M0.605469 19.6354C0.801604 20.4668 1.06474 21.2809 1.3923 22.0699H30.5861C30.9101 21.2806 31.1698 20.4665 31.3625 19.6354H0.605469Z" fill="#B22234"/>
<path d="M1.39258 22.0687C1.74099 22.9151 2.16217 23.7296 2.65138 24.5032H29.2979C29.7973 23.7307 30.2285 22.9161 30.5864 22.0687H1.39258Z" fill="white"/>
<path d="M2.65039 24.5039C3.20905 25.3763 3.85204 26.1917 4.57007 26.9384H27.3767C28.0949 26.1917 28.7381 25.3763 29.2969 24.5039H2.65039Z" fill="#B22234"/>
<path d="M4.57031 26.9398C5.47176 27.8717 6.48433 28.6893 7.58524 29.3742H24.4037C25.49 28.6865 26.4884 27.8691 27.3769 26.9398H4.57031Z" fill="white"/>
<path d="M7.58594 29.3718C10.101 30.9559 13.0113 31.7996 15.9836 31.8064C18.9638 31.804 21.8827 30.9601 24.4044 29.3718H7.58594Z" fill="#B22234"/>
<path d="M15.9834 0.15918C11.7865 0.15918 7.76159 1.82637 4.79396 4.79399C1.82637 7.76159 0.15918 11.7865 0.15918 15.9834C0.16125 16.4015 0.179895 16.8194 0.215069 17.2361H17.2361V0.221894C16.8195 0.184441 16.4016 0.16352 15.9834 0.15918Z" fill="#3C3B6E"/>
<path d="M10.3201 1.22716C10.1092 1.30413 9.90005 1.38558 9.69268 1.47145L9.92382 1.6471L9.76747 2.1523L10.1816 1.8431L10.6079 2.16711L10.4478 1.64427L10.8741 1.32606H10.3503L10.3201 1.22716ZM13.0043 0.794922L12.8399 1.32602H12.3179L12.7404 1.64713L12.584 2.15226L12.9981 1.84309L13.4244 2.16708L13.2644 1.64433L13.6906 1.32602H13.1669L13.0043 0.794922ZM15.8208 0.794922L15.6564 1.32602H15.1345L15.5569 1.64713L15.4006 2.15226L15.8147 1.84309L16.241 2.16708L16.0809 1.64433L16.5071 1.32602H15.9835L15.8208 0.794922ZM6.24864 3.53226C6.17423 3.58778 6.10031 3.64391 6.02689 3.70073L6.38307 3.97154L6.24864 3.53226ZM8.77945 2.59934L8.61502 3.13044H8.0931L8.51557 3.45155L8.35923 3.9567L8.77333 3.64749L9.19963 3.9715L9.03956 3.44875L9.4658 3.13044H8.94209L8.77945 2.59934ZM11.596 2.59934L11.4316 3.13044H10.9097L11.3321 3.45155L11.1758 3.9567L11.5899 3.64749L12.0162 3.9715L11.8561 3.44875L12.2823 3.13044H11.7586L11.596 2.59934ZM14.4125 2.59934L14.2481 3.13044H13.7262L14.1487 3.45155L13.9923 3.9567L14.4064 3.64749L14.8327 3.9715L14.6726 3.44875L15.0989 3.13044H14.5752L14.4125 2.59934ZM4.7042 4.89229C4.54813 5.05753 4.39562 5.22608 4.24681 5.39786L4.13438 5.76104L4.54852 5.45184L4.97479 5.77584L4.81472 5.25312L5.24095 4.93481H4.71721L4.7042 4.89229ZM7.37117 4.40368L7.20677 4.93477H6.68485L7.10733 5.2559L6.95095 5.76104L7.36505 5.45184L7.79135 5.77584L7.63128 5.25308L8.05751 4.93477H7.5338L7.37117 4.40368ZM10.1877 4.40368L10.0233 4.93477H9.50138L9.92385 5.2559L9.76747 5.76104L10.1816 5.45184L10.6079 5.77584L10.4478 5.25308L10.874 4.93477H10.3504L10.1877 4.40368ZM13.0043 4.40368L12.8399 4.93477H12.3179L12.7404 5.2559L12.584 5.76104L12.9981 5.45184L13.4244 5.77584L13.2644 5.25308L13.6906 4.93477H13.1669L13.0043 4.40368ZM15.8208 4.40368L15.6564 4.93477H15.1345L15.5569 5.2559L15.4006 5.76104L15.8147 5.45184L16.241 5.77584L16.0809 5.25308L16.5071 4.93477H15.9835L15.8208 4.40368ZM3.2659 6.59835C3.1201 6.79264 2.97879 6.9903 2.84209 7.19109L2.72619 7.56545L3.14021 7.25625L3.56658 7.58026L3.40652 7.05757L3.83264 6.73922H3.30904L3.2659 6.59835ZM5.96292 6.20809L5.79849 6.73919H5.27657L5.69904 7.06031L5.54267 7.56545L5.9568 7.25628L6.38311 7.58026L6.223 7.0575L6.64923 6.73919H6.12556L5.96292 6.20809ZM8.77945 6.20809L8.61502 6.73919H8.0931L8.51557 7.06031L8.35923 7.56545L8.77333 7.25628L9.19963 7.58026L9.03956 7.0575L9.4658 6.73919H8.94209L8.77945 6.20809ZM11.596 6.20809L11.4316 6.73919H10.9097L11.3321 7.06031L11.1758 7.56545L11.5899 7.25628L12.0162 7.58026L11.8561 7.0575L12.2823 6.73919H11.7586L11.596 6.20809ZM14.4125 6.20809L14.2481 6.73919H13.7262L14.1487 7.06031L13.9923 7.56545L14.4064 7.25628L14.8327 7.58026L14.6726 7.0575L15.0989 6.73919H14.5752L14.4125 6.20809ZM2.03169 8.54363C1.93712 8.7209 1.84593 8.89992 1.75817 9.08064L2.15828 9.38471L1.99821 8.86198L2.42447 8.54363H2.03169ZM4.55464 8.01254L4.39021 8.54363H3.86829L4.29076 8.86472L4.13442 9.36987L4.54852 9.0607L4.97482 9.38467L4.81475 8.86195L5.24099 8.54363H4.71728L4.55464 8.01254ZM7.37117 8.01254L7.20677 8.54363H6.68485L7.10733 8.86472L6.95095 9.36987L7.36505 9.0607L7.79135 9.38467L7.63128 8.86195L8.05751 8.54363H7.5338L7.37117 8.01254ZM10.1877 8.01254L10.0233 8.54363H9.50138L9.92385 8.86472L9.76747 9.36987L10.1816 9.0607L10.6079 9.38467L10.4478 8.86195L10.874 8.54363H10.3504L10.1877 8.01254ZM13.0043 8.01254L12.8399 8.54363H12.3179L12.7404 8.86472L12.584 9.36987L12.9981 9.0607L13.4244 9.38467L13.2644 8.86195L13.6906 8.54363H13.1669L13.0043 8.01254ZM15.8208 8.01254L15.6564 8.54363H15.1345L15.5569 8.86472L15.4006 9.36987L15.8147 9.0607L16.241 9.38467L16.0809 8.86195L16.5071 8.54363H15.9835L15.8208 8.01254ZM3.14637 9.81688L2.98195 10.348H2.46003L2.88251 10.6691L2.72614 11.1742L3.14025 10.865L3.56654 11.189L3.40647 10.6663L3.83271 10.348H3.30901L3.14637 9.81688ZM5.96292 9.81688L5.79849 10.348H5.27657L5.69904 10.6691L5.54267 11.1742L5.9568 10.865L6.38311 11.189L6.223 10.6663L6.64923 10.348H6.12556L5.96292 9.81688ZM8.77945 9.81688L8.61502 10.348H8.0931L8.51557 10.6691L8.35923 11.1742L8.77333 10.865L9.19963 11.189L9.03956 10.6663L9.4658 10.348H8.94209L8.77945 9.81688ZM11.596 9.81688L11.4316 10.348H10.9097L11.3321 10.6691L11.1758 11.1742L11.5899 10.865L12.0162 11.189L11.8561 10.6663L12.2823 10.348H11.7586L11.596 9.81688ZM14.4125 9.81688L14.2481 10.348H13.7262L14.1487 10.6691L13.9923 11.1742L14.4064 10.865L14.8327 11.189L14.6726 10.6663L15.0989 10.348H14.5752L14.4125 9.81688ZM1.7381 11.6213L1.57368 12.1524H1.05176L1.47424 12.4735L1.31787 12.9786L1.73199 12.6695L2.15828 12.9935L1.9982 12.4707L2.42443 12.1524H1.90074L1.7381 11.6213ZM4.55464 11.6213L4.39021 12.1524H3.86829L4.29076 12.4735L4.13442 12.9786L4.54852 12.6695L4.97482 12.9935L4.81475 12.4707L5.24099 12.1524H4.71728L4.55464 11.6213ZM7.37117 11.6213L7.20677 12.1524H6.68485L7.10733 12.4735L6.95095 12.9786L7.36505 12.6695L7.79135 12.9935L7.63128 12.4707L8.05751 12.1524H7.5338L7.37117 11.6213ZM10.1877 11.6213L10.0233 12.1524H9.50138L9.92385 12.4735L9.76747 12.9786L10.1816 12.6695L10.6079 12.9935L10.4478 12.4707L10.874 12.1524H10.3504L10.1877 11.6213ZM13.0043 11.6213L12.8399 12.1524H12.3179L12.7404 12.4735L12.584 12.9786L12.9981 12.6695L13.4244 12.9935L13.2644 12.4707L13.6906 12.1524H13.1669L13.0043 11.6213ZM15.8208 11.6213L15.6564 12.1524H15.1345L15.5569 12.4735L15.4006 12.9786L15.8147 12.6695L16.241 12.9935L16.0809 12.4707L16.5071 12.1524H15.9835L15.8208 11.6213ZM3.14637 13.4257L2.98195 13.9568H2.46003L2.88251 14.2779L2.72614 14.783L3.14025 14.4739L3.56654 14.7979L3.40647 14.2751L3.83271 13.9568H3.30901L3.14637 13.4257ZM5.96292 13.4257L5.79849 13.9568H5.27657L5.69904 14.2779L5.54267 14.783L5.9568 14.4739L6.38311 14.7979L6.223 14.2751L6.64923 13.9568H6.12556L5.96292 13.4257ZM8.77945 13.4257L8.61502 13.9568H8.0931L8.51557 14.2779L8.35923 14.783L8.77333 14.4739L9.19963 14.7979L9.03956 14.2751L9.4658 13.9568H8.94209L8.77945 13.4257ZM11.596 13.4257L11.4316 13.9568H10.9097L11.3321 14.2779L11.1758 14.783L11.5899 14.4739L12.0162 14.7979L11.8561 14.2751L12.2823 13.9568H11.7586L11.596 13.4257ZM14.4125 13.4257L14.2481 13.9568H13.7262L14.1487 14.2779L13.9923 14.783L14.4064 14.4739L14.8327 14.7979L14.6726 14.2751L15.0989 13.9568H14.5752L14.4125 13.4257ZM1.7381 15.2301L1.57368 15.7611H1.05176L1.47424 16.0823L1.31787 16.5874L1.73199 16.2782L2.15828 16.6022L1.9982 16.0795L2.42443 15.7611H1.90074L1.7381 15.2301ZM4.55464 15.2301L4.39021 15.7611H3.86829L4.29076 16.0823L4.13442 16.5874L4.54852 16.2782L4.97482 16.6022L4.81475 16.0795L5.24099 15.7611H4.71728L4.55464 15.2301ZM7.37117 15.2301L7.20677 15.7611H6.68485L7.10733 16.0823L6.95095 16.5874L7.36505 16.2782L7.79135 16.6022L7.63128 16.0795L8.05751 15.7611H7.5338L7.37117 15.2301ZM10.1877 15.2301L10.0233 15.7611H9.50138L9.92385 16.0823L9.76747 16.5874L10.1816 16.2782L10.6079 16.6022L10.4478 16.0795L10.874 15.7611H10.3504L10.1877 15.2301ZM13.0043 15.2301L12.8399 15.7611H12.3179L12.7404 16.0823L12.584 16.5874L12.9981 16.2782L13.4244 16.6022L13.2644 16.0795L13.6906 15.7611H13.1669L13.0043 15.2301ZM15.8208 15.2301L15.6564 15.7611H15.1345L15.5569 16.0823L15.4006 16.5874L15.8147 16.2782L16.241 16.6022L16.0809 16.0795L16.5071 15.7611H15.9835L15.8208 15.2301Z" fill="white"/>
</g>
<defs>
<clipPath id="clip0_1115_145">
<rect width="32" height="32" fill="white"/>
</clipPath>
</defs>
</svg>
