<svg width="91" height="91" viewBox="0 0 91 91" fill="none" xmlns="http://www.w3.org/2000/svg">
<path d="M45.4528 0.452759C36.978 0.45953 28.6773 2.85935 21.5063 7.37598H69.3338C62.1817 2.87119 53.9054 0.471855 45.4528 0.452759V0.452759Z" fill="#B22234"/>
<path d="M21.5064 7.37616C18.4173 9.33174 15.578 11.6565 13.0513 14.299H77.9076C75.3441 11.6489 72.4646 9.32381 69.3339 7.37616H21.5064Z" fill="white"/>
<path d="M13.0498 14.2922C11.0074 16.4156 9.17841 18.7345 7.58925 21.2154H83.3653C81.7766 18.7345 79.9481 16.4157 77.9061 14.2922H13.0498Z" fill="#B22234"/>
<path d="M7.5909 21.2211C6.17057 23.4179 4.94449 25.7342 3.92659 28.144H86.9466C85.9558 25.7372 84.7581 23.4209 83.3669 21.2211H7.5909Z" fill="white"/>
<path d="M3.9267 28.1408C3.0053 30.3853 2.26693 32.7005 1.71881 35.064H89.1843C88.6265 32.6997 87.8782 30.3844 86.9467 28.1408H3.9267Z" fill="#B22234"/>
<path d="M1.71843 35.066C1.17486 37.3419 0.809613 39.6566 0.626022 41.9893H90.3063C90.1129 39.6558 89.7376 37.3411 89.1839 35.066H1.71843Z" fill="white"/>
<path d="M0.626068 41.9896C0.523902 43.1408 0.46612 44.2954 0.45285 45.451C0.457228 46.6063 0.506093 47.761 0.599335 48.9125H90.2796C90.3818 47.7613 90.4396 46.6067 90.4529 45.451C90.4485 44.2958 90.3996 43.1411 90.3064 41.9896H0.626068Z" fill="#B22234"/>
<path d="M0.598251 48.9129C0.791713 51.2463 1.167 53.5611 1.72069 55.8361H89.1861C89.7297 53.5603 90.095 51.2455 90.2785 48.9129H0.598251Z" fill="white"/>
<path d="M1.72159 55.838C2.27935 58.2023 3.02764 60.5176 3.95914 62.7612H86.9791C87.9005 60.5167 88.6389 58.2014 89.187 55.838H1.72159Z" fill="#B22234"/>
<path d="M3.96086 62.7578C4.95165 65.1646 6.14938 67.4809 7.54057 69.6807H83.3166C84.7369 67.4839 85.963 65.1675 86.9809 62.7578H3.96086Z" fill="white"/>
<path d="M7.5374 69.6831C9.1261 72.164 10.9546 74.4828 12.9965 76.6063H77.8528C79.8953 74.4829 81.7242 72.164 83.3134 69.6831H7.5374Z" fill="#B22234"/>
<path d="M12.9976 76.6102C15.5611 79.2603 18.4406 81.5854 21.5713 83.533H69.3988C72.488 81.5774 75.3272 79.2527 77.8539 76.6102H12.9976Z" fill="white"/>
<path d="M21.5713 83.5262C28.7234 88.031 36.9997 90.4303 45.4522 90.4494C53.9271 90.4426 62.2278 88.0428 69.3988 83.5262H21.5713Z" fill="#B22234"/>
<path d="M45.4529 0.452759C33.5181 0.452759 22.0722 5.19382 13.633 13.633C5.19391 22.0721 0.45285 33.518 0.45285 45.4528C0.458738 46.6419 0.511758 47.8303 0.611786 49.0153H49.0154V0.631104C47.8307 0.524596 46.6422 0.465101 45.4529 0.452759V0.452759Z" fill="#3C3B6E"/>
<path d="M29.3481 3.48967C28.7486 3.70856 28.1537 3.94018 27.564 4.18437L28.2213 4.68389L27.7767 6.12053L28.9545 5.24126L30.1666 6.16265L29.7114 4.67583L30.9236 3.77092H29.4342L29.3481 3.48967ZM36.9813 2.2605L36.5138 3.7708H35.0295L36.231 4.68398L35.7863 6.12044L36.9639 5.24122L38.1762 6.16258L37.721 4.67601L38.9331 3.7708H37.4438L36.9813 2.2605V2.2605ZM44.9908 2.2605L44.5233 3.7708H43.0391L44.2405 4.68398L43.7958 6.12044L44.9735 5.24122L46.1857 6.16258L45.7305 4.67601L46.9426 3.7708H45.4534L44.9908 2.2605ZM17.77 10.0448C17.5584 10.2027 17.3482 10.3623 17.1394 10.5239L18.1523 11.294L17.77 10.0448ZM24.967 7.39181L24.4994 8.90212H23.0152L24.2166 9.8153L23.772 11.2518L24.9496 10.3725L26.1619 11.2939L25.7067 9.80732L26.9188 8.90212H25.4295L24.967 7.39181ZM32.9765 7.39181L32.509 8.90212H31.0248L32.2262 9.8153L31.7815 11.2518L32.9592 10.3725L34.1714 11.2939L33.7162 9.80732L34.9283 8.90212H33.4391L32.9765 7.39181V7.39181ZM40.9861 7.39181L40.5185 8.90212H39.0343L40.2357 9.8153L39.791 11.2518L40.9687 10.3725L42.181 11.2939L41.7257 9.80732L42.9379 8.90212H41.4486L40.9861 7.39181V7.39181ZM13.378 13.9124C12.9342 14.3823 12.5005 14.8616 12.0773 15.3501L11.7576 16.3829L12.9353 15.5036L14.1475 16.425L13.6923 14.9385L14.9044 14.0333H13.415L13.378 13.9124ZM20.9622 12.5229L20.4947 14.0332H19.0105L20.2119 14.9464L19.7672 16.3829L20.9448 15.5036L22.1571 16.425L21.7019 14.9384L22.914 14.0332H21.4247L20.9622 12.5229V12.5229ZM28.9718 12.5229L28.5042 14.0332H27.02L28.2214 14.9464L27.7767 16.3829L28.9544 15.5036L30.1666 16.425L29.7114 14.9384L30.9235 14.0332H29.4343L28.9718 12.5229V12.5229ZM36.9813 12.5229L36.5138 14.0332H35.0295L36.231 14.9464L35.7863 16.3829L36.9639 15.5036L38.1762 16.425L37.721 14.9384L38.9331 14.0332H37.4438L36.9813 12.5229V12.5229ZM44.9908 12.5229L44.5233 14.0332H43.0391L44.2405 14.9464L43.7958 16.3829L44.9735 15.5036L46.1857 16.425L45.7305 14.9384L46.9426 14.0332H45.4534L44.9908 12.5229V12.5229ZM9.28784 18.764C8.87322 19.3165 8.47138 19.8786 8.08264 20.4496L7.75305 21.5142L8.93042 20.6349L10.1429 21.5563L9.68774 20.0699L10.8995 19.1646H9.41052L9.28784 18.764ZM16.9575 17.6542L16.4899 19.1645H15.0057L16.2071 20.0777L15.7624 21.5142L16.9401 20.635L18.1524 21.5563L17.6971 20.0697L18.9092 19.1645H17.42L16.9575 17.6542V17.6542ZM24.967 17.6542L24.4994 19.1645H23.0152L24.2166 20.0777L23.772 21.5142L24.9496 20.635L26.1619 21.5563L25.7067 20.0697L26.9188 19.1645H25.4295L24.967 17.6542V17.6542ZM32.9765 17.6542L32.509 19.1645H31.0248L32.2262 20.0777L31.7815 21.5142L32.9592 20.635L34.1714 21.5563L33.7162 20.0697L34.9283 19.1645H33.4391L32.9765 17.6542V17.6542ZM40.9861 17.6542L40.5185 19.1645H39.0343L40.2357 20.0777L39.791 21.5142L40.9687 20.635L42.181 21.5563L41.7257 20.0697L42.9379 19.1645H41.4486L40.9861 17.6542V17.6542ZM5.77807 24.2959C5.50912 24.8 5.2498 25.3091 5.00024 25.823L6.13806 26.6877L5.68286 25.2012L6.89502 24.2959H5.77807ZM12.9527 22.7856L12.4851 24.2959H11.0009L12.2023 25.209L11.7577 26.6455L12.9353 25.7663L14.1476 26.6876L13.6924 25.2011L14.9045 24.2959H13.4152L12.9527 22.7856ZM20.9622 22.7856L20.4947 24.2959H19.0105L20.2119 25.209L19.7672 26.6455L20.9448 25.7663L22.1571 26.6876L21.7019 25.2011L22.914 24.2959H21.4247L20.9622 22.7856V22.7856ZM28.9718 22.7856L28.5042 24.2959H27.02L28.2214 25.209L27.7767 26.6455L28.9544 25.7663L30.1666 26.6876L29.7114 25.2011L30.9235 24.2959H29.4343L28.9718 22.7856ZM36.9813 22.7856L36.5138 24.2959H35.0295L36.231 25.209L35.7863 26.6455L36.9639 25.7663L38.1762 26.6876L37.721 25.2011L38.9331 24.2959H37.4438L36.9813 22.7856V22.7856ZM44.9908 22.7856L44.5233 24.2959H43.0391L44.2405 25.209L43.7958 26.6455L44.9735 25.7663L46.1857 26.6876L45.7305 25.2011L46.9426 24.2959H45.4534L44.9908 22.7856ZM8.94793 27.9167L8.48037 29.427H6.99615L8.19758 30.3402L7.7529 31.7766L8.93054 30.8974L10.1428 31.8188L9.68759 30.3322L10.8997 29.427H9.41043L8.94793 27.9167V27.9167ZM16.9575 27.9167L16.4899 29.427H15.0057L16.2071 30.3402L15.7624 31.7766L16.9401 30.8974L18.1524 31.8188L17.6971 30.3322L18.9092 29.427H17.42L16.9575 27.9167ZM24.967 27.9167L24.4994 29.427H23.0152L24.2166 30.3402L23.772 31.7766L24.9496 30.8974L26.1619 31.8188L25.7067 30.3322L26.9188 29.427H25.4295L24.967 27.9167ZM32.9765 27.9167L32.509 29.427H31.0248L32.2262 30.3402L31.7815 31.7766L32.9592 30.8974L34.1714 31.8188L33.7162 30.3322L34.9283 29.427H33.4391L32.9765 27.9167V27.9167ZM40.9861 27.9167L40.5185 29.427H39.0343L40.2357 30.3402L39.791 31.7766L40.9687 30.8974L42.181 31.8188L41.7257 30.3322L42.9379 29.427H41.4486L40.9861 27.9167V27.9167ZM4.94316 33.048L4.4756 34.5583H2.99138L4.19281 35.4715L3.74813 36.9079L4.92579 36.0287L6.13804 36.9501L5.68282 35.4635L6.89493 34.5583H5.40568L4.94316 33.048ZM12.9527 33.048L12.4851 34.5583H11.0009L12.2023 35.4715L11.7577 36.9079L12.9353 36.0287L14.1476 36.9501L13.6924 35.4635L14.9045 34.5583H13.4152L12.9527 33.048ZM20.9622 33.048L20.4947 34.5583H19.0105L20.2119 35.4715L19.7672 36.9079L20.9448 36.0287L22.1571 36.9501L21.7019 35.4635L22.914 34.5583H21.4247L20.9622 33.048V33.048ZM28.9718 33.048L28.5042 34.5583H27.02L28.2214 35.4715L27.7767 36.9079L28.9544 36.0287L30.1666 36.9501L29.7114 35.4635L30.9235 34.5583H29.4343L28.9718 33.048ZM36.9813 33.048L36.5138 34.5583H35.0295L36.231 35.4715L35.7863 36.9079L36.9639 36.0287L38.1762 36.9501L37.721 35.4635L38.9331 34.5583H37.4438L36.9813 33.048V33.048ZM44.9908 33.048L44.5233 34.5583H43.0391L44.2405 35.4715L43.7958 36.9079L44.9735 36.0287L46.1857 36.9501L45.7305 35.4635L46.9426 34.5583H45.4534L44.9908 33.048ZM8.94793 38.1793L8.48037 39.6896H6.99615L8.19758 40.6028L7.7529 42.0392L8.93054 41.16L10.1428 42.0814L9.68759 40.5948L10.8997 39.6896H9.41043L8.94793 38.1793V38.1793ZM16.9575 38.1793L16.4899 39.6896H15.0057L16.2071 40.6028L15.7624 42.0392L16.9401 41.16L18.1524 42.0814L17.6971 40.5948L18.9092 39.6896H17.42L16.9575 38.1793ZM24.967 38.1793L24.4994 39.6896H23.0152L24.2166 40.6028L23.772 42.0392L24.9496 41.16L26.1619 42.0814L25.7067 40.5948L26.9188 39.6896H25.4295L24.967 38.1793ZM32.9765 38.1793L32.509 39.6896H31.0248L32.2262 40.6028L31.7815 42.0392L32.9592 41.16L34.1714 42.0814L33.7162 40.5948L34.9283 39.6896H33.4391L32.9765 38.1793V38.1793ZM40.9861 38.1793L40.5185 39.6896H39.0343L40.2357 40.6028L39.791 42.0392L40.9687 41.16L42.181 42.0814L41.7257 40.5948L42.9379 39.6896H41.4486L40.9861 38.1793V38.1793ZM4.94316 43.3104L4.4756 44.8207H2.99138L4.19281 45.7339L3.74813 47.1704L4.92579 46.2911L6.13804 47.2125L5.68282 45.7259L6.89493 44.8207H5.40568L4.94316 43.3104V43.3104ZM12.9527 43.3104L12.4851 44.8207H11.0009L12.2023 45.7339L11.7577 47.1704L12.9353 46.2911L14.1476 47.2125L13.6924 45.7259L14.9045 44.8207H13.4152L12.9527 43.3104V43.3104ZM20.9622 43.3104L20.4947 44.8207H19.0105L20.2119 45.7339L19.7672 47.1704L20.9448 46.2911L22.1571 47.2125L21.7019 45.7259L22.914 44.8207H21.4247L20.9622 43.3104V43.3104ZM28.9718 43.3104L28.5042 44.8207H27.02L28.2214 45.7339L27.7767 47.1704L28.9544 46.2911L30.1666 47.2125L29.7114 45.7259L30.9235 44.8207H29.4343L28.9718 43.3104V43.3104ZM36.9813 43.3104L36.5138 44.8207H35.0295L36.231 45.7339L35.7863 47.1704L36.9639 46.2911L38.1762 47.2125L37.721 45.7259L38.9331 44.8207H37.4438L36.9813 43.3104V43.3104ZM44.9908 43.3104L44.5233 44.8207H43.0391L44.2405 45.7339L43.7958 47.1704L44.9735 46.2911L46.1857 47.2125L45.7305 45.7259L46.9426 44.8207H45.4534L44.9908 43.3104V43.3104Z" fill="white"/>
</svg>
