<svg width="115" height="29" viewBox="0 0 115 29" fill="none" xmlns="http://www.w3.org/2000/svg">
<rect x="0.282227" y="0.453125" width="114.498" height="28.2028" rx="2.41007" fill="#B22234"/>
<path d="M14.0167 16.9375C14.0167 17.7089 13.7805 18.3453 13.3081 18.8466C12.8356 19.348 12.1896 19.6662 11.37 19.8012C11.3218 19.8205 11.2977 19.8494 11.2977 19.888L11.3122 20.8281C11.3122 20.8763 11.2929 20.9148 11.2543 20.9438C11.2254 20.9823 11.1868 21.0016 11.1386 21.0016H9.69232C9.64411 21.0016 9.60072 20.9823 9.56215 20.9438C9.53322 20.9148 9.51876 20.8763 9.51876 20.8281L9.53322 19.8735C9.53322 19.8349 9.50912 19.806 9.46091 19.7867C8.64134 19.6228 7.99533 19.2854 7.52287 18.7743C7.06006 18.2633 6.82865 17.6221 6.82865 16.8508V16.5326C6.82865 16.4844 6.84311 16.4458 6.87204 16.4169C6.91061 16.3783 6.954 16.359 7.00221 16.359H8.5642C8.61241 16.359 8.65098 16.3783 8.67991 16.4169C8.71848 16.4458 8.73776 16.4844 8.73776 16.5326V16.7495C8.73776 17.1352 8.90649 17.463 9.24396 17.733C9.58143 17.9933 10.0442 18.1235 10.6324 18.1235C11.1241 18.1235 11.4857 18.0174 11.7171 17.8053C11.9582 17.5835 12.0787 17.3136 12.0787 16.9954C12.0787 16.764 12.0064 16.5711 11.8618 16.4169C11.7171 16.253 11.5146 16.1131 11.2543 15.9974C11.0036 15.8721 10.6035 15.7034 10.0539 15.4912C9.42716 15.2695 8.90167 15.0429 8.47743 14.8115C8.05318 14.5801 7.69161 14.2667 7.39271 13.8714C7.10345 13.4664 6.95882 12.9699 6.95882 12.3817C6.95882 11.6393 7.18058 11.027 7.62411 10.5449C8.07729 10.0532 8.68473 9.73498 9.44645 9.59035C9.49466 9.57107 9.51876 9.54214 9.51876 9.50358L9.48983 8.44778C9.48983 8.39957 9.5043 8.361 9.53322 8.33208C9.57179 8.29351 9.61518 8.27422 9.66339 8.27422H11.1097C11.1579 8.27422 11.1965 8.29351 11.2254 8.33208C11.264 8.361 11.2832 8.39957 11.2832 8.44778L11.2688 9.5325C11.2688 9.57107 11.2929 9.6 11.3411 9.61928C12.1414 9.78319 12.7777 10.1351 13.2502 10.6751C13.7227 11.2054 13.9589 11.8562 13.9589 12.6276V12.8445C13.9589 12.8927 13.9396 12.9361 13.901 12.9747C13.8721 13.0036 13.8335 13.0181 13.7853 13.0181H12.2089C12.1607 13.0181 12.1173 13.0036 12.0787 12.9747C12.0498 12.9361 12.0353 12.8927 12.0353 12.8445V12.7288C12.0353 12.3239 11.8762 11.9816 11.558 11.7019C11.2399 11.4127 10.806 11.2681 10.2564 11.2681C9.82248 11.2681 9.48501 11.3645 9.24396 11.5573C9.00291 11.7502 8.88239 12.0153 8.88239 12.3528C8.88239 12.5938 8.94988 12.7963 9.08487 12.9602C9.2295 13.1241 9.44162 13.2736 9.72124 13.4086C10.0009 13.5436 10.4347 13.7171 11.0229 13.9292C11.6689 14.1703 12.1799 14.3872 12.556 14.5801C12.932 14.7729 13.2695 15.0622 13.5684 15.4479C13.8673 15.8335 14.0167 16.3301 14.0167 16.9375ZM21.4835 14.9272C21.6763 15.3707 21.7727 15.8817 21.7727 16.4603C21.7727 16.9809 21.6859 17.463 21.5124 17.9066C21.281 18.5236 20.8905 19.0057 20.3409 19.3528C19.8009 19.7 19.1598 19.8735 18.4173 19.8735C17.6845 19.8735 17.0385 19.6903 16.4793 19.3239C15.9297 18.9575 15.5344 18.461 15.2933 17.8342C15.1583 17.4582 15.0812 17.0532 15.0619 16.6194C15.0619 16.5036 15.1198 16.4458 15.2355 16.4458H16.9421C17.0578 16.4458 17.1157 16.5036 17.1157 16.6194C17.1542 16.9375 17.2073 17.1738 17.2747 17.328C17.3615 17.5787 17.5013 17.7764 17.6942 17.921C17.8967 18.056 18.1329 18.1235 18.4029 18.1235C18.9428 18.1235 19.314 17.8873 19.5165 17.4148C19.6515 17.1256 19.719 16.7881 19.719 16.4024C19.719 15.9492 19.6467 15.578 19.502 15.2888C19.2803 14.8356 18.9091 14.609 18.3884 14.609C18.2823 14.609 18.1714 14.6427 18.0557 14.7102C17.94 14.7681 17.8002 14.8549 17.6363 14.9706C17.5978 14.9995 17.5592 15.014 17.5206 15.014C17.4628 15.014 17.4194 14.985 17.3904 14.9272L16.5371 13.7268C16.5179 13.6978 16.5082 13.6641 16.5082 13.6255C16.5082 13.5677 16.5275 13.5195 16.5661 13.4809L18.8657 11.4705C18.885 11.4513 18.8898 11.432 18.8801 11.4127C18.8801 11.3934 18.8657 11.3838 18.8367 11.3838H15.438C15.3897 11.3838 15.3464 11.3693 15.3078 11.3404C15.2789 11.3018 15.2644 11.2584 15.2644 11.2102V9.8073C15.2644 9.75909 15.2789 9.72052 15.3078 9.69159C15.3464 9.65303 15.3897 9.63374 15.438 9.63374H21.469C21.5172 9.63374 21.5558 9.65303 21.5847 9.69159C21.6233 9.72052 21.6426 9.75909 21.6426 9.8073V11.3982C21.6426 11.4754 21.6088 11.5477 21.5413 11.6152L19.6467 13.3507C19.6274 13.37 19.6177 13.3893 19.6177 13.4086C19.6274 13.4279 19.6515 13.4375 19.6901 13.4375C20.5289 13.6014 21.1267 14.098 21.4835 14.9272ZM25.7651 17.921C25.7458 17.9403 25.741 17.9596 25.7506 17.9789C25.7602 17.9982 25.7795 18.0078 25.8085 18.0078H29.7279C29.7761 18.0078 29.8147 18.0271 29.8436 18.0656C29.8822 18.0946 29.9015 18.1331 29.9015 18.1814V19.5843C29.9015 19.6325 29.8822 19.6759 29.8436 19.7144C29.8147 19.7433 29.7761 19.7578 29.7279 19.7578H23.2196C23.1714 19.7578 23.128 19.7433 23.0894 19.7144C23.0605 19.6759 23.046 19.6325 23.046 19.5843V18.2537C23.046 18.1669 23.075 18.0946 23.1328 18.0367C23.6053 17.5739 24.0874 17.0725 24.5791 16.5326C25.0708 15.983 25.3794 15.6407 25.5047 15.5057C25.7747 15.1875 26.0495 14.8838 26.3291 14.5945C27.2065 13.6207 27.6453 12.8975 27.6453 12.4251C27.6453 12.0876 27.5247 11.8128 27.2837 11.6007C27.0426 11.3789 26.7293 11.2681 26.3436 11.2681C25.9579 11.2681 25.6445 11.3789 25.4035 11.6007C25.1624 11.8128 25.0419 12.0973 25.0419 12.454V12.8156C25.0419 12.8638 25.0226 12.9072 24.9841 12.9458C24.9551 12.9747 24.9166 12.9891 24.8684 12.9891H23.1617C23.1135 12.9891 23.0701 12.9747 23.0316 12.9458C23.0026 12.9072 22.9882 12.8638 22.9882 12.8156V12.1358C23.0171 11.6152 23.181 11.1572 23.4799 10.7619C23.7788 10.3569 24.1741 10.0483 24.6659 9.83622C25.1673 9.6241 25.7265 9.51804 26.3436 9.51804C27.0282 9.51804 27.6211 9.64821 28.1225 9.90854C28.6336 10.1592 29.0241 10.5015 29.294 10.9354C29.5736 11.3693 29.7135 11.8514 29.7135 12.3817C29.7135 12.7867 29.6122 13.2013 29.4097 13.6255C29.2072 14.0498 28.9035 14.5078 28.4986 14.9995C28.1997 15.3755 27.8767 15.7468 27.5295 16.1131C27.1824 16.4795 26.6666 17.0099 25.982 17.7041L25.7651 17.921ZM37.1893 14.9272C37.3822 15.3707 37.4786 15.8817 37.4786 16.4603C37.4786 16.9809 37.3918 17.463 37.2183 17.9066C36.9869 18.5236 36.5964 19.0057 36.0468 19.3528C35.5068 19.7 34.8656 19.8735 34.1232 19.8735C33.3904 19.8735 32.7444 19.6903 32.1852 19.3239C31.6356 18.9575 31.2402 18.461 30.9992 17.8342C30.8642 17.4582 30.7871 17.0532 30.7678 16.6194C30.7678 16.5036 30.8256 16.4458 30.9413 16.4458H32.648C32.7637 16.4458 32.8215 16.5036 32.8215 16.6194C32.8601 16.9375 32.9131 17.1738 32.9806 17.328C33.0674 17.5787 33.2072 17.7764 33.4 17.921C33.6025 18.056 33.8387 18.1235 34.1087 18.1235C34.6487 18.1235 35.0199 17.8873 35.2224 17.4148C35.3574 17.1256 35.4249 16.7881 35.4249 16.4024C35.4249 15.9492 35.3525 15.578 35.2079 15.2888C34.9861 14.8356 34.6149 14.609 34.0943 14.609C33.9882 14.609 33.8773 14.6427 33.7616 14.7102C33.6459 14.7681 33.5061 14.8549 33.3422 14.9706C33.3036 14.9995 33.2651 15.014 33.2265 15.014C33.1686 15.014 33.1252 14.985 33.0963 14.9272L32.243 13.7268C32.2237 13.6978 32.2141 13.6641 32.2141 13.6255C32.2141 13.5677 32.2334 13.5195 32.2719 13.4809L34.5715 11.4705C34.5908 11.4513 34.5956 11.432 34.586 11.4127C34.586 11.3934 34.5715 11.3838 34.5426 11.3838H31.1438C31.0956 11.3838 31.0522 11.3693 31.0137 11.3404C30.9847 11.3018 30.9703 11.2584 30.9703 11.2102V9.8073C30.9703 9.75909 30.9847 9.72052 31.0137 9.69159C31.0522 9.65303 31.0956 9.63374 31.1438 9.63374H37.1749C37.2231 9.63374 37.2616 9.65303 37.2906 9.69159C37.3291 9.72052 37.3484 9.75909 37.3484 9.8073V11.3982C37.3484 11.4754 37.3147 11.5477 37.2472 11.6152L35.3525 13.3507C35.3333 13.37 35.3236 13.3893 35.3236 13.4086C35.3333 13.4279 35.3574 13.4375 35.3959 13.4375C36.2348 13.6014 36.8326 14.098 37.1893 14.9272ZM42.9345 21.1463C42.8381 21.1463 42.7706 21.1125 42.732 21.045C42.2017 20.3219 41.7727 19.4444 41.4448 18.4128C41.1266 17.3714 40.9676 16.2289 40.9676 14.985C40.9676 13.7316 41.1266 12.5842 41.4448 11.5429C41.7727 10.4919 42.2065 9.6 42.7465 8.86721C42.7851 8.79971 42.8526 8.76596 42.949 8.76596H44.2217C44.2892 8.76596 44.3326 8.78525 44.3519 8.82382C44.3808 8.86238 44.3808 8.91059 44.3519 8.96845C43.9084 9.7398 43.5468 10.6413 43.2672 11.673C42.9875 12.6951 42.8477 13.7991 42.8477 14.985C42.8477 16.1614 42.9875 17.2557 43.2672 18.2681C43.5468 19.2805 43.9084 20.1724 44.3519 20.9438C44.3712 20.9823 44.3808 21.0113 44.3808 21.0306C44.3808 21.1077 44.3278 21.1463 44.2217 21.1463H42.9345ZM52.269 14.7681C52.5293 15.2598 52.6595 15.8576 52.6595 16.5615C52.6595 17.1497 52.5631 17.6655 52.3702 18.109C52.1388 18.6683 51.7724 19.1022 51.2711 19.4107C50.7793 19.7096 50.1863 19.8591 49.4921 19.8591C48.769 19.8591 48.1519 19.6951 47.6409 19.3673C47.1298 19.0298 46.7634 18.5622 46.5417 17.9644C46.3874 17.5594 46.3103 17.087 46.3103 16.547V12.1358C46.3103 11.6152 46.4404 11.1572 46.7008 10.7619C46.9611 10.3665 47.3227 10.0628 47.7855 9.85069C48.2579 9.62892 48.7979 9.51804 49.4053 9.51804C49.9935 9.51804 50.5142 9.6241 50.9673 9.83622C51.4301 10.0483 51.7869 10.3472 52.0376 10.7329C52.2979 11.1186 52.4281 11.5621 52.4281 12.0635V12.3817C52.4281 12.4299 52.4088 12.4733 52.3702 12.5119C52.3413 12.5408 52.3027 12.5553 52.2545 12.5553H50.9239C50.8757 12.5553 50.8323 12.5408 50.7938 12.5119C50.7649 12.4733 50.7504 12.4299 50.7504 12.3817V12.2805C50.7504 11.8948 50.6202 11.5814 50.3599 11.3404C50.1092 11.0897 49.7862 10.9643 49.3909 10.9643C48.9859 10.9643 48.6484 11.0945 48.3785 11.3548C48.1181 11.6055 47.988 11.9334 47.988 12.3383V13.9148C47.988 13.9437 47.9976 13.963 48.0169 13.9726C48.0362 13.9823 48.0555 13.9775 48.0747 13.9582C48.4797 13.5628 49.0389 13.3652 49.7524 13.3652C50.3213 13.3652 50.8179 13.4857 51.2421 13.7268C51.676 13.9678 52.0183 14.3149 52.269 14.7681ZM50.7649 17.6173C50.9095 17.328 50.9818 16.9857 50.9818 16.5904C50.9818 16.1565 50.8998 15.7853 50.7359 15.4768C50.466 15.014 50.0465 14.7826 49.4776 14.7826C48.8798 14.7826 48.4556 15.0236 48.2049 15.5057C48.0603 15.795 47.988 16.171 47.988 16.6338C47.988 17.0291 48.0506 17.3521 48.176 17.6028C48.4074 18.1331 48.8413 18.3983 49.4776 18.3983C50.0851 18.3983 50.5142 18.138 50.7649 17.6173ZM64.9312 12.2515C65.6736 12.2515 66.2522 12.4781 66.6668 12.9313C67.091 13.3748 67.3031 13.9967 67.3031 14.797V19.5843C67.3031 19.6325 67.2838 19.6759 67.2453 19.7144C67.2164 19.7433 67.1778 19.7578 67.1296 19.7578H65.8134C65.7652 19.7578 65.7218 19.7433 65.6833 19.7144C65.6544 19.6759 65.6399 19.6325 65.6399 19.5843V15.1441C65.6399 14.7006 65.5194 14.3487 65.2783 14.0883C65.0469 13.828 64.7335 13.6978 64.3382 13.6978C63.9429 13.6978 63.6199 13.828 63.3692 14.0883C63.1185 14.3487 62.9932 14.6958 62.9932 15.1297V19.5843C62.9932 19.6325 62.9739 19.6759 62.9353 19.7144C62.9064 19.7433 62.8678 19.7578 62.8196 19.7578H61.5035C61.4553 19.7578 61.4119 19.7433 61.3733 19.7144C61.3444 19.6759 61.3299 19.6325 61.3299 19.5843V15.1441C61.3299 14.7006 61.2094 14.3487 60.9684 14.0883C60.7273 13.828 60.4091 13.6978 60.0138 13.6978C59.6474 13.6978 59.3437 13.8039 59.1026 14.016C58.8712 14.2281 58.7362 14.5174 58.6977 14.8838V19.5843C58.6977 19.6325 58.6784 19.6759 58.6398 19.7144C58.6109 19.7433 58.5723 19.7578 58.5241 19.7578H57.1935C57.1453 19.7578 57.1019 19.7433 57.0634 19.7144C57.0344 19.6759 57.02 19.6325 57.02 19.5843V12.5408C57.02 12.4926 57.0344 12.454 57.0634 12.4251C57.1019 12.3865 57.1453 12.3672 57.1935 12.3672H58.5241C58.5723 12.3672 58.6109 12.3865 58.6398 12.4251C58.6784 12.454 58.6977 12.4926 58.6977 12.5408V13.0181C58.6977 13.047 58.7073 13.0663 58.7266 13.0759C58.7459 13.0856 58.7652 13.0759 58.7844 13.047C58.9966 12.777 59.2569 12.5794 59.5654 12.454C59.8836 12.319 60.2356 12.2515 60.6212 12.2515C61.0937 12.2515 61.5083 12.348 61.8651 12.5408C62.2218 12.7336 62.4966 13.0133 62.6894 13.3796C62.7184 13.4182 62.7521 13.4182 62.7907 13.3796C63.0028 12.994 63.2969 12.7095 63.6729 12.5263C64.049 12.3431 64.4684 12.2515 64.9312 12.2515ZM72.0932 19.8735C71.3315 19.8735 70.6758 19.6807 70.1262 19.295C69.5863 18.9093 69.2054 18.3742 68.9837 17.6896C68.8197 17.1689 68.7378 16.6194 68.7378 16.0408C68.7378 15.4237 68.8149 14.8742 68.9692 14.3921C69.191 13.7171 69.5766 13.1916 70.1262 12.8156C70.6758 12.4396 71.3363 12.2515 72.1077 12.2515C72.8404 12.2515 73.472 12.4396 74.0023 12.8156C74.5423 13.1916 74.9231 13.7123 75.1449 14.3776C75.3184 14.8404 75.4052 15.39 75.4052 16.0264C75.4052 16.6338 75.3233 17.1834 75.1593 17.6751C74.9376 18.3597 74.5567 18.8997 74.0168 19.295C73.4768 19.6807 72.8356 19.8735 72.0932 19.8735ZM72.0932 18.4272C72.4499 18.4272 72.7537 18.326 73.0044 18.1235C73.2647 17.921 73.4527 17.6366 73.5684 17.2702C73.6648 16.952 73.713 16.547 73.713 16.0553C73.713 15.5346 73.6648 15.1297 73.5684 14.8404C73.4624 14.474 73.2792 14.1944 73.0188 14.0016C72.7585 13.7991 72.4403 13.6978 72.0643 13.6978C71.7075 13.6978 71.399 13.7991 71.1386 14.0016C70.8783 14.1944 70.6903 14.474 70.5746 14.8404C70.4782 15.1779 70.43 15.5828 70.43 16.0553C70.43 16.5278 70.4782 16.9327 70.5746 17.2702C70.6806 17.6366 70.8638 17.921 71.1242 18.1235C71.3942 18.326 71.7172 18.4272 72.0932 18.4272ZM80.5347 12.2515C81.3157 12.2515 81.9376 12.4829 82.4004 12.9458C82.8729 13.4086 83.1091 14.0401 83.1091 14.8404V19.5843C83.1091 19.6325 83.0898 19.6759 83.0513 19.7144C83.0223 19.7433 82.9838 19.7578 82.9356 19.7578H81.605C81.5568 19.7578 81.5134 19.7433 81.4748 19.7144C81.4459 19.6759 81.4314 19.6325 81.4314 19.5843V15.1875C81.4314 14.744 81.3061 14.3872 81.0554 14.1173C80.8047 13.8376 80.472 13.6978 80.0574 13.6978C79.6428 13.6978 79.3054 13.8328 79.045 14.1028C78.7943 14.3728 78.669 14.7295 78.669 15.1731V19.5843C78.669 19.6325 78.6497 19.6759 78.6111 19.7144C78.5822 19.7433 78.5436 19.7578 78.4954 19.7578H77.1648C77.1166 19.7578 77.0732 19.7433 77.0347 19.7144C77.0057 19.6759 76.9913 19.6325 76.9913 19.5843V12.5408C76.9913 12.4926 77.0057 12.454 77.0347 12.4251C77.0732 12.3865 77.1166 12.3672 77.1648 12.3672H78.4954C78.5436 12.3672 78.5822 12.3865 78.6111 12.4251C78.6497 12.454 78.669 12.4926 78.669 12.5408V13.0036C78.669 13.0325 78.6786 13.0518 78.6979 13.0615C78.7172 13.0711 78.7317 13.0615 78.7413 13.0325C79.1366 12.5119 79.7344 12.2515 80.5347 12.2515ZM88.7778 13.5532C88.7778 13.6014 88.7585 13.6448 88.7199 13.6834C88.691 13.7123 88.6525 13.7268 88.6042 13.7268H87.129C87.0808 13.7268 87.0567 13.7509 87.0567 13.7991V17.2846C87.0567 17.651 87.1338 17.9162 87.2881 18.0801C87.452 18.244 87.7075 18.326 88.0546 18.326H88.4885C88.5367 18.326 88.5753 18.3453 88.6042 18.3838C88.6428 18.4128 88.6621 18.4513 88.6621 18.4995V19.5843C88.6621 19.6903 88.6042 19.753 88.4885 19.7723L87.7365 19.7867C86.9747 19.7867 86.4059 19.6566 86.0298 19.3962C85.6538 19.1359 85.461 18.6442 85.4513 17.921V13.7991C85.4513 13.7509 85.4272 13.7268 85.379 13.7268H84.5546C84.5064 13.7268 84.463 13.7123 84.4244 13.6834C84.3955 13.6448 84.3811 13.6014 84.3811 13.5532V12.5408C84.3811 12.4926 84.3955 12.454 84.4244 12.4251C84.463 12.3865 84.5064 12.3672 84.5546 12.3672H85.379C85.4272 12.3672 85.4513 12.3431 85.4513 12.2949V10.6028C85.4513 10.5546 85.4658 10.516 85.4947 10.4871C85.5333 10.4485 85.5767 10.4292 85.6249 10.4292H86.8831C86.9314 10.4292 86.9699 10.4485 86.9989 10.4871C87.0374 10.516 87.0567 10.5546 87.0567 10.6028V12.2949C87.0567 12.3431 87.0808 12.3672 87.129 12.3672H88.6042C88.6525 12.3672 88.691 12.3865 88.7199 12.4251C88.7585 12.454 88.7778 12.4926 88.7778 12.5408V13.5532ZM93.8112 12.2515C94.5922 12.2515 95.2142 12.4829 95.677 12.9458C96.1494 13.4086 96.3857 14.0401 96.3857 14.8404V19.5843C96.3857 19.6325 96.3664 19.6759 96.3278 19.7144C96.2989 19.7433 96.2603 19.7578 96.2121 19.7578H94.8815C94.8333 19.7578 94.7899 19.7433 94.7513 19.7144C94.7224 19.6759 94.7079 19.6325 94.7079 19.5843V15.1875C94.7079 14.744 94.5826 14.3872 94.3319 14.1173C94.0812 13.8376 93.7486 13.6978 93.334 13.6978C92.9194 13.6978 92.5819 13.8328 92.3216 14.1028C92.0709 14.3728 91.9455 14.7295 91.9455 15.1731V19.5843C91.9455 19.6325 91.9262 19.6759 91.8877 19.7144C91.8587 19.7433 91.8202 19.7578 91.772 19.7578H90.4414C90.3932 19.7578 90.3498 19.7433 90.3112 19.7144C90.2823 19.6759 90.2678 19.6325 90.2678 19.5843V9.8073C90.2678 9.75909 90.2823 9.72052 90.3112 9.69159C90.3498 9.65303 90.3932 9.63374 90.4414 9.63374H91.772C91.8202 9.63374 91.8587 9.65303 91.8877 9.69159C91.9262 9.72052 91.9455 9.75909 91.9455 9.8073V13.0036C91.9455 13.0325 91.9552 13.0518 91.9744 13.0615C91.9937 13.0711 92.0082 13.0615 92.0178 13.0325C92.4132 12.5119 93.011 12.2515 93.8112 12.2515ZM100.883 19.8446C100.275 19.8446 99.7403 19.7578 99.2775 19.5843C98.8243 19.4011 98.4723 19.1552 98.2217 18.8466C97.971 18.5285 97.8456 18.1765 97.8456 17.7909V17.6607C97.8456 17.6125 97.8601 17.5739 97.889 17.545C97.9276 17.5064 97.971 17.4871 98.0192 17.4871H99.2919C99.3401 17.4871 99.3787 17.5064 99.4076 17.545C99.4462 17.5739 99.4655 17.6125 99.4655 17.6607V17.6896C99.4655 17.9307 99.5956 18.1428 99.856 18.326C100.126 18.4995 100.463 18.5863 100.868 18.5863C101.254 18.5863 101.567 18.5092 101.808 18.3549C102.05 18.191 102.17 17.9885 102.17 17.7475C102.17 17.5257 102.069 17.3618 101.866 17.2557C101.673 17.14 101.355 17.0195 100.912 16.8941L100.362 16.7206C99.8704 16.576 99.4558 16.4217 99.1184 16.2578C98.7809 16.0939 98.4965 15.8721 98.265 15.5925C98.0336 15.3032 97.9179 14.9368 97.9179 14.4933C97.9179 13.8184 98.1831 13.2832 98.7134 12.8879C99.2437 12.4829 99.9427 12.2805 100.811 12.2805C101.399 12.2805 101.915 12.3769 102.358 12.5697C102.802 12.7529 103.144 13.0133 103.385 13.3507C103.626 13.6785 103.747 14.0546 103.747 14.4788C103.747 14.527 103.727 14.5704 103.689 14.609C103.66 14.6379 103.621 14.6524 103.573 14.6524H102.344C102.295 14.6524 102.252 14.6379 102.213 14.609C102.185 14.5704 102.17 14.527 102.17 14.4788C102.17 14.2281 102.045 14.0208 101.794 13.8569C101.553 13.6834 101.22 13.5966 100.796 13.5966C100.42 13.5966 100.111 13.6689 99.8704 13.8135C99.639 13.9485 99.5233 14.1414 99.5233 14.3921C99.5233 14.6235 99.6342 14.8018 99.856 14.9272C100.087 15.0429 100.468 15.1731 100.999 15.3177L101.317 15.4045C101.828 15.5587 102.257 15.7178 102.604 15.8817C102.951 16.036 103.245 16.2578 103.486 16.547C103.727 16.8267 103.848 17.193 103.848 17.6462C103.848 18.3308 103.578 18.8708 103.038 19.2661C102.498 19.6518 101.78 19.8446 100.883 19.8446ZM107.018 8.76596C107.114 8.76596 107.181 8.79971 107.22 8.86721C107.75 9.59035 108.175 10.4726 108.493 11.5139C108.821 12.5456 108.984 13.6785 108.984 14.9127C108.984 16.1565 108.821 17.3088 108.493 18.3694C108.165 19.4203 107.731 20.3122 107.191 21.045C107.152 21.1125 107.085 21.1463 106.989 21.1463H105.716C105.648 21.1463 105.6 21.127 105.571 21.0884C105.552 21.0498 105.557 21.0016 105.586 20.9438C106.029 20.1724 106.391 19.2757 106.67 18.2537C106.95 17.222 107.09 16.1131 107.09 14.9272C107.09 13.7412 106.95 12.642 106.67 11.6296C106.391 10.6172 106.029 9.73016 105.586 8.96845C105.566 8.92988 105.557 8.90095 105.557 8.88167C105.557 8.80453 105.61 8.76596 105.716 8.76596H107.018Z" fill="white"/>
</svg>
