<svg width="175" height="57" viewBox="0 0 175 57" fill="none" xmlns="http://www.w3.org/2000/svg">
<path d="M57.578 28.5412C57.578 43.887 44.8686 56.3372 29.1782 56.3372C13.4878 56.3372 0.778342 43.887 0.778342 28.5412C0.778342 13.1954 13.4878 0.745108 29.1782 0.745108C44.8686 0.745108 57.578 13.1954 57.578 28.5412Z" fill="#B22234" stroke="white" stroke-width="0.556683"/>
<path d="M45.4825 27.1607L45.4825 27.1607L45.4855 27.1573C45.8512 26.7506 46.4977 25.8541 46.2257 24.7136C46.0448 23.9548 45.4709 23.1467 44.2514 22.3385C44.7033 22.507 45.1698 22.7114 45.6083 22.9565C46.4669 23.4366 47.182 24.0525 47.5007 24.8253C47.8111 25.5778 47.7698 26.5401 46.9888 27.7827L33.8391 46.3802L31.0444 46.2296L44.5763 28.2624C44.5765 28.2621 44.5768 28.2618 44.577 28.2615C44.863 27.8883 45.1741 27.4927 45.4825 27.1607Z" fill="white" stroke="white" stroke-width="0.556683"/>
<path d="M14.1459 22.7494C14.2839 22.6937 14.4253 22.6384 14.5682 22.5848C14.0015 22.9598 13.4202 23.4344 12.9988 24L12.9988 24L12.9948 24.0056C12.3524 24.9139 12.3559 26.1312 12.992 27.0653L12.9964 27.0718L13.0011 27.078C13.086 27.1888 13.1736 27.3311 13.2712 27.4904L13.2788 27.5028L13.2876 27.5142C13.3762 27.6299 13.4585 27.7541 13.5469 27.888L13.5494 27.8917C13.6353 28.0217 13.7274 28.1609 13.8288 28.2933L27.723 46.4696L25.5419 46.6855L12.0784 28.9264L12.0752 28.9218L12.056 28.8934C12.039 28.8677 12.0138 28.829 11.9824 28.7785C11.9196 28.6774 11.8326 28.5294 11.7375 28.3451C11.5465 27.9749 11.3265 27.4647 11.202 26.8959C11.0774 26.3268 11.0512 25.712 11.2328 25.1228C11.4117 24.5428 11.798 23.9668 12.5346 23.4725L12.5519 23.4639C12.5733 23.4532 12.6051 23.4375 12.6463 23.4174C12.7286 23.3772 12.848 23.3198 12.9956 23.2509C13.291 23.1131 13.6981 22.9301 14.1459 22.7494Z" fill="white" stroke="white" stroke-width="0.556683"/>
<path d="M28.9575 44.0966L28.6097 40.0239L29.9583 39.9135L30.3061 43.9862L28.9575 44.0966Z" fill="white" stroke="white" stroke-width="0.556683"/>
<path d="M28.4857 36.5859L28.3793 32.5002L29.4459 32.4736L29.5523 36.5593L28.4857 36.5859Z" fill="white" stroke="white" stroke-width="0.556683"/>
<path d="M28.0404 30.198L27.9339 26.1122L29.0005 26.0856L29.107 30.1713L28.0404 30.198Z" fill="white" stroke="white" stroke-width="0.556683"/>
<path d="M15.7031 20.1462L18.9185 19.0866" stroke="white" stroke-width="0.0556683" stroke-miterlimit="10"/>
<path d="M13.3789 19.087L20.0321 16.6563" stroke="white" stroke-width="0.0556683" stroke-miterlimit="10"/>
<path d="M41.5855 21.2681L40.1211 20.4579" stroke="white" stroke-width="0.0556683" stroke-miterlimit="10"/>
<path d="M42.5396 19.8029L39.3242 18.0265" stroke="white" stroke-width="0.0556683" stroke-miterlimit="10"/>
<path d="M40.7034 24.4015L40.7032 24.3927L40.544 19.0014L40.5434 18.9809L40.5458 18.9604C40.5773 18.6958 40.5045 18.3751 40.3508 18.0231C40.1988 17.6752 39.979 17.3218 39.7487 17.0016C39.5191 16.6825 39.284 16.4029 39.1057 16.2027C39.0168 16.1029 38.9425 16.0233 38.8907 15.9689C38.8648 15.9418 38.8446 15.921 38.8311 15.9071L38.8159 15.8917L38.8123 15.8881L38.8115 15.8873L38.8114 15.8873L38.8114 15.8872L38.0823 15.162L39.0777 15.4205C39.4309 15.5123 39.6295 15.4782 39.7382 15.4254C39.8416 15.3752 39.9078 15.2864 39.9493 15.1618C39.9922 15.033 40.0013 14.8843 39.9965 14.7584C39.9941 14.6973 39.9887 14.6456 39.9839 14.6098C39.9831 14.6039 39.9824 14.5984 39.9816 14.5934C39.8827 14.4081 39.7479 14.3153 39.597 14.2696C39.4259 14.2177 39.2186 14.2225 39.0011 14.2648C38.7863 14.3065 38.5823 14.3805 38.4294 14.446C38.3537 14.4785 38.2923 14.5081 38.2503 14.5293C38.2293 14.5398 38.2134 14.5482 38.203 14.5538L38.1918 14.5599L38.1896 14.5611L38.1895 14.5611L38.1895 14.5612L38.1894 14.5612L38.1893 14.5613L37.9517 14.6955L37.8129 14.4601L36.3804 12.0293L36.3787 12.0264L36.3787 12.0264C36.0759 11.498 35.4034 11.2149 34.7288 11.0736C34.4015 11.0051 34.0943 10.9743 33.8683 10.9607C33.7557 10.9539 33.6641 10.9515 33.6012 10.9508C33.5699 10.9504 33.5457 10.9505 33.5298 10.9506L33.5122 10.9508L33.5083 10.9509L33.5078 10.9509L33.5077 10.9509L33.5076 10.9509L33.5076 10.9509L33.4973 10.9512L33.4867 10.9506C30.0437 10.7798 27.5163 10.8576 25.8527 10.9775C25.0208 11.0375 24.4049 11.108 23.9984 11.1632C23.7951 11.1908 23.6443 11.2146 23.5449 11.2313C23.4952 11.2397 23.4584 11.2463 23.4344 11.2507L23.408 11.2557L23.4019 11.2569L23.4007 11.2571L23.4007 11.2571L23.4006 11.2571L23.4005 11.2572L23.3913 11.259L23.3912 11.2589C22.9998 11.3238 22.6238 11.5587 22.2717 11.9075C21.9209 12.255 21.6118 12.6979 21.3541 13.1419C21.0971 13.5844 20.8963 14.0191 20.7596 14.3439C20.6914 14.506 20.6394 14.64 20.6047 14.733C20.5873 14.7795 20.5743 14.8156 20.5657 14.8399L20.5562 14.8671L20.5539 14.8736L20.5534 14.875L20.5534 14.8752L40.7034 24.4015ZM40.7034 24.4015L40.7042 24.4096L40.7042 24.4098L40.7042 24.41L40.7042 24.41L40.7042 24.4102L40.7045 24.4137L40.7057 24.4319C40.7068 24.4488 40.708 24.4749 40.7088 24.5088C40.7103 24.5767 40.7098 24.6755 40.7013 24.7952C40.6842 25.036 40.6353 25.3531 40.5113 25.6697C40.3878 25.9851 40.1925 26.2936 39.8849 26.5304C39.5809 26.7645 39.1495 26.9425 38.5283 26.9729L38.523 26.9727C38.5127 26.9722 38.4965 26.9713 38.4753 26.9696C38.4327 26.9661 38.3706 26.9594 38.2961 26.9469C38.1453 26.9214 37.9524 26.873 37.7692 26.7834C37.5866 26.694 37.4244 26.569 37.3163 26.3948C37.2357 26.2649 37.1767 26.0942 37.1713 25.8652L38.1358 25.8168C38.485 25.8636 38.7703 25.8166 38.9942 25.6867C39.2246 25.5531 39.3554 25.3517 39.4274 25.1603C39.4983 24.9718 39.5165 24.7832 39.5188 24.6483C39.52 24.5795 39.5171 24.5212 39.5137 24.4794C39.5121 24.4584 39.5103 24.4413 39.5088 24.4288L39.5083 24.424M40.7034 24.4015L39.5083 24.424M35.3787 12.9164C34.7739 12.1685 34.0099 12.1373 34.0099 12.1373L39.0396 19.1802C39.1987 17.9648 38.2755 17.4662 38.2755 17.4662C37.8299 16.9988 35.3787 12.9164 35.3787 12.9164ZM35.3787 12.9164L35.6174 12.7732L35.6174 12.7733L35.6178 12.7738L35.6191 12.776L35.6243 12.7847L35.6448 12.8188L35.7232 12.9489C35.791 13.0613 35.8884 13.2224 36.0066 13.4171C36.2431 13.8067 36.563 14.3309 36.8966 14.8694C37.2305 15.4083 37.5773 15.9603 37.868 16.4061C38.0135 16.6291 38.1439 16.824 38.251 16.9767C38.3434 17.1084 38.4115 17.1987 38.4544 17.2489C38.4579 17.2511 38.4615 17.2534 38.4653 17.2558C38.4967 17.276 38.5393 17.3051 38.5888 17.3439C38.6875 17.4211 38.8159 17.5378 38.9386 17.6987C39.1846 18.0214 39.401 18.5143 39.3185 19.1927L39.5083 24.424M35.3787 12.9164L35.6173 12.7731L35.6073 12.7565L35.5951 12.7414C35.2564 12.3225 34.8704 12.1017 34.5663 11.9862C34.4147 11.9286 34.2835 11.8971 34.188 11.8799C34.1403 11.8713 34.1013 11.8663 34.0729 11.8633C34.0587 11.8618 34.0471 11.8608 34.0385 11.8602L34.0276 11.8595L34.0238 11.8593L34.0224 11.8593L34.0218 11.8592L34.0215 11.8592C34.0213 11.8592 34.0212 11.8592 34.0101 12.1312L34.0212 11.8592L34.0176 11.8591C31.7833 11.7966 29.3434 11.8122 27.4635 11.8434C26.5232 11.859 25.7223 11.8785 25.1565 11.8941C24.8735 11.9019 24.6493 11.9088 24.4958 11.9136L24.3199 11.9194L24.2745 11.9209L24.2637 11.9213C23.6419 11.9233 23.1687 12.2933 22.8699 12.6192C22.7169 12.7861 22.5998 12.9518 22.521 13.0755C22.4814 13.1376 22.4511 13.1898 22.4302 13.2272C22.4198 13.246 22.4117 13.261 22.406 13.2719L22.3993 13.2848L22.3972 13.2888L22.3966 13.2901L22.3963 13.2906L22.3962 13.2908C22.3962 13.2909 22.3961 13.291 22.6453 13.415L22.3961 13.291L22.3806 13.3223L22.3732 13.3565C22.194 14.1896 21.6236 15.204 21.0762 16.031C20.8057 16.4397 20.5468 16.7941 20.3554 17.0462C20.2598 17.1722 20.1813 17.2725 20.1268 17.3409C20.1061 17.367 20.0889 17.3884 20.0756 17.405C19.6279 17.6605 19.4018 17.9599 19.2955 18.2227C19.2415 18.3562 19.221 18.4739 19.2147 18.562C19.2116 18.606 19.212 18.6427 19.2135 18.6704C19.2142 18.6835 19.2151 18.6946 19.2161 18.7036L19.4385 24.6442L19.4384 24.6442L19.4388 24.651C19.4586 24.9705 19.5752 25.2206 19.7481 25.4076C19.9169 25.5901 20.1268 25.6993 20.318 25.7655C20.5097 25.8319 20.6952 25.8594 20.8301 25.8709C20.8983 25.8766 20.9555 25.8785 20.9964 25.8788C21.0169 25.879 21.0335 25.8788 21.0455 25.8786L21.0589 25.8782H22.2276C22.167 26.0068 22.0776 26.1531 21.9483 26.2863C21.6453 26.5982 21.064 26.8986 19.919 26.5783L19.8335 26.5544L19.7545 26.5828C19.7525 26.5833 19.7485 26.5844 19.7427 26.5856C19.7284 26.5887 19.7034 26.593 19.6695 26.5946C19.6024 26.5979 19.4993 26.5907 19.3735 26.5409C19.1308 26.4447 18.7529 26.168 18.3949 25.3661C18.3928 25.3519 18.3903 25.3334 18.3872 25.3107C18.3788 25.2487 18.3667 25.155 18.3522 25.0302C18.3233 24.7806 18.2849 24.4064 18.2473 23.9116C18.1723 22.9218 18.101 21.4494 18.1168 19.5253L18.117 19.4994L18.1125 19.4743L18.1125 19.4742L18.1125 19.474L18.1125 19.4739L18.1124 19.4738L18.1119 19.4708L18.1094 19.4551C18.1072 19.4406 18.1041 19.4182 18.1005 19.3889C18.0934 19.3302 18.0848 19.244 18.0797 19.1376C18.0694 18.924 18.0734 18.6342 18.1284 18.3253C18.2386 17.7069 18.5436 17.0493 19.315 16.7257L19.3332 16.718L19.3502 16.7079L19.2073 16.469C19.3502 16.7079 19.3503 16.7078 19.3504 16.7078L19.3506 16.7076L19.351 16.7074L19.352 16.7068L19.3546 16.7052L19.3623 16.7004C19.3684 16.6965 19.3766 16.6913 19.3863 16.6847C19.4058 16.6717 19.4322 16.6531 19.462 16.6297C19.5195 16.5847 19.5998 16.5142 19.6665 16.4234C19.7314 16.335 19.8039 16.199 19.7941 16.0319C19.7835 15.8529 19.6832 15.7046 19.5339 15.5922L19.4882 15.5578L19.4327 15.5442L18.3435 15.2777C18.3321 15.268 18.3186 15.2559 18.3041 15.2415C18.2573 15.1954 18.2078 15.134 18.1768 15.0636C18.1475 14.997 18.1345 14.9231 18.1553 14.8368C18.1768 14.7478 18.2405 14.6196 18.4111 14.4592L18.4526 14.4202L18.4712 14.3778C18.4726 14.3757 18.4749 14.3725 18.4782 14.3685C18.4892 14.3552 18.5118 14.3321 18.5519 14.3104C18.6266 14.27 18.8053 14.2118 19.1682 14.3074L19.1915 14.3136L19.214 14.3155L19.2147 14.3155L19.2151 14.3156L19.2153 14.3156L19.2157 14.3157C19.2184 14.316 19.2234 14.3166 19.2306 14.3177C19.2451 14.3198 19.2681 14.3237 19.2975 14.3303C19.3566 14.3436 19.4393 14.3674 19.5299 14.4085C19.7104 14.4906 19.9135 14.6369 20.0372 14.9034L20.3306 15.5353L20.5534 14.8753L39.5083 24.424" fill="white" stroke="white" stroke-width="0.556683"/>
<path d="M24.4576 23.8526V23.8526L24.4616 23.8526L24.4576 23.5743L24.4617 23.8526L24.462 23.8526L24.4632 23.8526L24.4678 23.8525L24.4862 23.8522L24.5578 23.8512L24.8299 23.8472L25.8021 23.8331L28.7631 23.7903C30.9263 23.7591 33.103 23.728 33.1799 23.728C33.1852 23.728 33.1914 23.7279 33.1986 23.7279C33.307 23.7275 33.6264 23.7262 33.9316 23.7984C34.0946 23.837 34.2312 23.8917 34.3249 23.9618C34.4113 24.0264 34.4545 24.0973 34.4624 24.19L34.4634 24.2009L34.4647 24.2089C34.4647 24.209 34.4647 24.2092 34.4647 24.2094C34.465 24.2118 34.4656 24.2171 34.466 24.2249C34.467 24.2406 34.4676 24.2653 34.4652 24.296C34.4604 24.3583 34.4442 24.4371 34.4014 24.5134C34.3289 24.6428 34.129 24.8541 33.4983 24.8541L33.4961 24.8541L25.3149 24.9164L25.2977 24.9166L25.2814 24.9187L25.2812 24.9187L25.2812 24.9187L25.2808 24.9188L25.2806 24.9188L25.2743 24.9195C25.268 24.9202 25.2579 24.9212 25.2442 24.9222C25.2169 24.9244 25.1759 24.9267 25.1252 24.9271C25.0228 24.928 24.8854 24.921 24.7409 24.891C24.4675 24.8344 24.2098 24.7067 24.0743 24.4345C24.0746 24.4264 24.0748 24.4191 24.0751 24.4119C24.0756 24.3946 24.0761 24.3776 24.0775 24.3515C24.0815 24.2759 24.0908 24.1882 24.1154 24.106C24.1401 24.0235 24.1752 23.9632 24.2195 23.9242C24.2586 23.8896 24.3259 23.8526 24.4576 23.8526Z" fill="white" stroke="white" stroke-width="0.556683"/>
<path d="M25.3814 21.1412V21.1413L25.3851 21.1412L25.3814 20.8629L25.3852 21.1412L25.3854 21.1412L25.3864 21.1412L25.3901 21.1411L25.4051 21.1409L25.4634 21.1402L25.6849 21.1372L26.4769 21.1266L28.8907 21.0945C30.6557 21.0711 32.4349 21.0477 32.512 21.0477C32.5186 21.0477 32.5262 21.0477 32.5348 21.0477C32.6407 21.0472 32.8946 21.046 33.132 21.1025C33.2605 21.1331 33.3601 21.1755 33.424 21.2254C33.4793 21.2686 33.5042 21.3129 33.5074 21.3757L33.5082 21.3911L33.5101 21.403C33.5103 21.4045 33.5106 21.4076 33.5109 21.412C33.5115 21.4227 33.512 21.4404 33.5103 21.4624C33.5069 21.5077 33.4954 21.5635 33.4661 21.6166C33.4206 21.6991 33.2843 21.8623 32.7985 21.8622L32.7959 21.8623L26.1109 21.9246L26.0941 21.9247L26.0782 21.9268L26.0782 21.9268L26.0779 21.9269L26.0777 21.9269L26.0738 21.9273C26.0693 21.9278 26.0615 21.9285 26.051 21.9293C26.03 21.9309 25.9981 21.9327 25.9584 21.9329C25.8781 21.9333 25.7706 21.9273 25.6581 21.9034C25.4302 21.8549 25.2253 21.7447 25.1305 21.5075L25.1283 21.5019C25.1276 21.4958 25.1271 21.4885 25.1266 21.4801C25.1243 21.4325 25.128 21.3697 25.1443 21.3111C25.1605 21.2526 25.1846 21.2132 25.2121 21.1892C25.235 21.1691 25.2807 21.1412 25.3814 21.1412Z" fill="white" stroke="white" stroke-width="0.556683"/>
<path d="M23.3185 20.6141C23.3185 21.4187 22.6505 22.081 21.814 22.081C20.9775 22.081 20.3096 21.4187 20.3096 20.6141C20.3096 19.8095 20.9775 19.1472 21.814 19.1472C22.6505 19.1472 23.3185 19.8095 23.3185 20.6141Z" fill="white" stroke="white" stroke-width="0.556683"/>
<path d="M37.9942 20.7085C37.9942 21.5131 37.3263 22.1754 36.4898 22.1754C35.6533 22.1754 34.9854 21.5131 34.9854 20.7085C34.9854 19.9039 35.6533 19.2416 36.4898 19.2416C37.3263 19.2416 37.9942 19.9039 37.9942 20.7085Z" fill="white" stroke="white" stroke-width="0.556683"/>
<path d="M36.0683 15.3166C36.0674 15.3389 36.0654 15.3599 36.0626 15.3796L22.5922 15.3202L23.5548 13.4865C23.6676 13.2906 23.8811 13.159 24.1017 13.0754C24.2087 13.0349 24.3079 13.0093 24.3802 12.994C24.4161 12.9863 24.4447 12.9814 24.4637 12.9784L24.4772 12.9764L34.0299 12.8521C34.4002 12.881 34.5713 12.9922 34.6467 13.0638C34.6865 13.1016 34.7067 13.1349 34.7162 13.1538C34.7196 13.1606 34.7217 13.1657 34.7227 13.1686L34.7324 13.216L34.7657 13.2634L35.8162 14.7592L35.8285 14.7767L35.8434 14.7922C36.0409 14.9976 36.0735 15.1867 36.0683 15.3166Z" fill="white" stroke="white" stroke-width="0.556683"/>
<path d="M161.389 26.2539C161.437 26.2539 161.475 26.273 161.504 26.3111C161.542 26.3396 161.561 26.3777 161.561 26.4253V27.8681C161.561 27.9157 161.542 27.9586 161.504 27.9967C161.475 28.0253 161.437 28.0395 161.389 28.0395H160.775C160.728 28.0395 160.704 28.0633 160.704 28.111V30.4394C160.704 30.487 160.685 30.5299 160.647 30.568C160.618 30.5965 160.58 30.6108 160.532 30.6108H158.861C158.813 30.6108 158.77 30.5965 158.732 30.568C158.704 30.5299 158.69 30.487 158.69 30.4394V28.111C158.69 28.0633 158.666 28.0395 158.618 28.0395H154.233C154.185 28.0395 154.142 28.0253 154.104 27.9967C154.076 27.9586 154.061 27.9157 154.061 27.8681V26.7253C154.061 26.6682 154.076 26.5968 154.104 26.5111L156.675 20.74C156.713 20.6543 156.78 20.6114 156.875 20.6114H158.661C158.728 20.6114 158.77 20.6305 158.79 20.6686C158.818 20.6971 158.818 20.7447 158.79 20.8114L156.404 26.1682C156.394 26.1873 156.394 26.2063 156.404 26.2254C156.413 26.2444 156.428 26.2539 156.447 26.2539H158.618C158.666 26.2539 158.69 26.2301 158.69 26.1825V24.4112C158.69 24.3636 158.704 24.3255 158.732 24.2969C158.77 24.2588 158.813 24.2398 158.861 24.2398H160.532C160.58 24.2398 160.618 24.2588 160.647 24.2969C160.685 24.3255 160.704 24.3636 160.704 24.4112V26.1825C160.704 26.2301 160.728 26.2539 160.775 26.2539H161.389ZM164.096 30.6679C163.772 30.6679 163.501 30.5632 163.282 30.3537C163.072 30.1346 162.967 29.8632 162.967 29.5394C162.967 29.2061 163.072 28.9347 163.282 28.7252C163.491 28.5157 163.763 28.4109 164.096 28.4109C164.429 28.4109 164.701 28.5157 164.91 28.7252C165.12 28.9347 165.224 29.2061 165.224 29.5394C165.224 29.8632 165.115 30.1346 164.896 30.3537C164.686 30.5632 164.42 30.6679 164.096 30.6679ZM173.103 26.0539C173.246 26.5206 173.317 26.9729 173.317 27.411C173.317 27.8967 173.241 28.3348 173.089 28.7252C172.87 29.3347 172.484 29.8204 171.932 30.1823C171.379 30.5346 170.732 30.7108 169.989 30.7108C169.265 30.7108 168.627 30.5394 168.075 30.1965C167.532 29.8442 167.146 29.368 166.918 28.7681C166.822 28.5205 166.751 28.2586 166.703 27.9824V27.9538C166.703 27.8491 166.76 27.7967 166.875 27.7967H168.603C168.698 27.7967 168.76 27.8491 168.789 27.9538C168.798 28.011 168.813 28.0586 168.832 28.0967C168.851 28.1348 168.865 28.1681 168.875 28.1967C168.97 28.4443 169.113 28.6347 169.303 28.7681C169.494 28.9014 169.717 28.9681 169.975 28.9681C170.241 28.9681 170.475 28.8966 170.675 28.7538C170.875 28.6109 171.022 28.4109 171.117 28.1538C171.213 27.9634 171.26 27.7157 171.26 27.411C171.26 27.1348 171.217 26.8872 171.132 26.6682C171.065 26.4206 170.932 26.2301 170.732 26.0968C170.532 25.9635 170.298 25.8968 170.032 25.8968C169.765 25.8968 169.517 25.9587 169.289 26.0825C169.06 26.2063 168.908 26.3682 168.832 26.5682C168.803 26.6634 168.741 26.711 168.646 26.711H166.889C166.841 26.711 166.799 26.6968 166.76 26.6682C166.732 26.6301 166.718 26.5872 166.718 26.5396V20.7828C166.718 20.7352 166.732 20.6971 166.76 20.6686C166.799 20.6305 166.841 20.6114 166.889 20.6114H172.789C172.836 20.6114 172.874 20.6305 172.903 20.6686C172.941 20.6971 172.96 20.7352 172.96 20.7828V22.1685C172.96 22.2161 172.941 22.2589 172.903 22.297C172.874 22.3256 172.836 22.3399 172.789 22.3399H168.803C168.756 22.3399 168.732 22.3637 168.732 22.4113L168.717 24.5255C168.717 24.5921 168.746 24.6064 168.803 24.5683C169.232 24.2921 169.727 24.1541 170.289 24.1541C170.955 24.1541 171.536 24.3255 172.032 24.6683C172.536 25.0016 172.893 25.4635 173.103 26.0539Z" fill="black"/>
<path d="M66.4429 29.6078C66.7611 29.926 66.9429 30.5623 66.8429 31.0078L66.3702 33.0532C66.3702 33.0532 65.6793 35.5531 66.6792 36.1458C67.6792 36.7385 68.0974 36.4549 69.1065 35.864L71.77 34.2822C72.1882 34.0368 72.8791 34.0368 73.2973 34.2822L75.9608 35.864C76.5608 36.2185 77.1063 36.3913 77.5699 36.3913C77.8619 36.3992 78.1487 36.3131 78.3881 36.1458C78.9517 35.7367 79.1153 34.8822 78.8517 33.7459L78.2244 31.0096C78.1153 30.5641 78.2972 29.9369 78.6244 29.6096L80.8244 27.4006C81.5153 26.7097 81.788 25.9733 81.588 25.337C81.3789 24.7006 80.7335 24.2643 79.7698 24.1007L78.8517 23.9461C78.279 23.8461 76.4699 23.4352 76.4699 23.4352C76.2063 23.2807 75.9608 23.0534 75.8427 22.817L74.2791 19.6808C73.8245 18.7808 73.2064 18.2808 72.5337 18.2808C71.8609 18.2808 71.2428 18.7808 70.7882 19.6808L69.2246 22.817C69.0337 23.1898 68.5338 23.5534 68.1247 23.6261L65.2884 24.0988C64.3248 24.2625 63.6793 24.6988 63.4702 25.3352C63.2702 25.9715 63.543 26.7079 64.2339 27.3988L66.4429 29.6078Z" fill="#FBCF2C"/>
<path d="M87.4702 29.6078C87.7884 29.926 87.9702 30.5623 87.8702 31.0078L87.3975 33.0532C87.3975 33.0532 86.7066 35.5531 87.7066 36.1458C88.7066 36.7385 89.1247 36.4549 90.1338 35.864L92.7974 34.2822C93.2156 34.0368 93.9064 34.0368 94.3246 34.2822L96.9882 35.864C97.5882 36.2185 98.1336 36.3913 98.5972 36.3913C98.8892 36.3992 99.176 36.3131 99.4154 36.1458C99.979 35.7367 100.143 34.8822 99.879 33.7459L99.2518 31.0096C99.1427 30.5641 99.3245 29.9369 99.6518 29.6096L101.852 27.4006C102.543 26.7097 102.815 25.9733 102.615 25.337C102.406 24.7006 101.761 24.2643 100.797 24.1007L99.879 23.9461C99.3063 23.8461 97.4973 23.4352 97.4973 23.4352C97.2336 23.2807 96.9882 23.0534 96.87 22.817L95.3064 19.6808C94.8519 18.7808 94.2337 18.2808 93.561 18.2808C92.8883 18.2808 92.2701 18.7808 91.8156 19.6808L90.252 22.817C90.0611 23.1898 89.5611 23.5534 89.152 23.6261L86.3157 24.0988C85.3521 24.2625 84.7067 24.6988 84.4976 25.3352C84.2976 25.9715 84.5703 26.7079 85.2612 27.3988L87.4702 29.6078Z" fill="#FBCF2C"/>
<path d="M108.501 29.6078C108.82 29.926 109.001 30.5623 108.901 31.0078L108.429 33.0532C108.429 33.0532 107.738 35.5531 108.738 36.1458C109.738 36.7385 110.156 36.4549 111.165 35.864L113.829 34.2822C114.247 34.0368 114.938 34.0368 115.356 34.2822L118.019 35.864C118.619 36.2185 119.165 36.3913 119.628 36.3913C119.92 36.3992 120.207 36.3131 120.447 36.1458C121.01 35.7367 121.174 34.8822 120.91 33.7459L120.283 31.0096C120.174 30.5641 120.356 29.9369 120.683 29.6096L122.883 27.4006C123.574 26.7097 123.847 25.9733 123.647 25.337C123.437 24.7006 122.792 24.2643 121.828 24.1007L120.91 23.9461C120.338 23.8461 118.529 23.4352 118.529 23.4352C118.265 23.2807 118.019 23.0534 117.901 22.817L116.338 19.6808C115.883 18.7808 115.265 18.2808 114.592 18.2808C113.92 18.2808 113.301 18.7808 112.847 19.6808L111.283 22.817C111.092 23.1898 110.592 23.5534 110.183 23.6261L107.347 24.0988C106.383 24.2625 105.738 24.6988 105.529 25.3352C105.329 25.9715 105.602 26.7079 106.292 27.3988L108.501 29.6078Z" fill="#FBCF2C"/>
<path d="M129.529 29.6078C129.847 29.926 130.029 30.5623 129.929 31.0078L129.456 33.0532C129.456 33.0532 128.765 35.5531 129.765 36.1458C130.765 36.7385 131.183 36.4549 132.192 35.864L134.856 34.2822C135.274 34.0368 135.965 34.0368 136.383 34.2822L139.047 35.864C139.647 36.2185 140.192 36.3913 140.656 36.3913C140.948 36.3992 141.235 36.3131 141.474 36.1458C142.038 35.7367 142.201 34.8822 141.938 33.7459L141.31 31.0096C141.201 30.5641 141.383 29.9369 141.71 29.6096L143.91 27.4006C144.601 26.7097 144.874 25.9733 144.674 25.337C144.465 24.7006 143.819 24.2643 142.856 24.1007L141.938 23.9461C141.365 23.8461 139.556 23.4352 139.556 23.4352C139.292 23.2807 139.047 23.0534 138.929 22.817L137.365 19.6808C136.91 18.7808 136.292 18.2808 135.62 18.2808C134.947 18.2808 134.329 18.7808 133.874 19.6808L132.311 22.817C132.12 23.1898 131.62 23.5534 131.211 23.6261L128.374 24.0988C127.411 24.2625 126.765 24.6988 126.556 25.3352C126.356 25.9715 126.629 26.7079 127.32 27.3988L129.529 29.6078Z" fill="#FBCF2C"/>
</svg>
