<svg width="83" height="22" viewBox="0 0 83 22" fill="none" xmlns="http://www.w3.org/2000/svg">
<rect x="0.680298" y="0.960938" width="81.7903" height="20.5352" rx="1.877" fill="#B22234"/>
<path d="M61.0638 6.70044C61.1549 6.67441 61.2591 6.65164 61.3762 6.63212C61.4998 6.6126 61.6072 6.60284 61.6983 6.60284C61.8089 6.60284 61.9163 6.61585 62.0204 6.64188C62.1245 6.6614 62.2156 6.69719 62.2937 6.74924C62.3782 6.8013 62.4433 6.87287 62.4889 6.96397C62.5409 7.05507 62.5669 7.16894 62.5669 7.30558V10.302H63.4356C63.4682 10.3541 63.4974 10.4257 63.5235 10.5167C63.5495 10.6013 63.5625 10.6924 63.5625 10.79C63.5625 10.9657 63.5202 11.0959 63.4356 11.1805C63.3575 11.265 63.2502 11.3073 63.1135 11.3073H62.5669V12.6055C62.5149 12.6185 62.4368 12.6347 62.3327 12.6543C62.2286 12.6738 62.1245 12.6836 62.0204 12.6836C61.8121 12.6836 61.6495 12.651 61.5323 12.5859C61.4152 12.5209 61.3567 12.3777 61.3567 12.1565V11.3073H58.7994C58.6888 11.2553 58.5945 11.1707 58.5164 11.0536C58.4383 10.9299 58.3993 10.7835 58.3993 10.6144C58.3993 10.5233 58.409 10.4289 58.4285 10.3313C58.4481 10.2337 58.4839 10.1459 58.5359 10.0678L61.0638 6.70044ZM61.4152 7.86192H61.3957L59.7169 10.302H61.4055L61.4152 7.86192ZM63.9253 12.0003C63.9253 11.7856 63.9904 11.6067 64.1205 11.4635C64.2572 11.3138 64.4426 11.239 64.6769 11.239C64.9046 11.239 65.0835 11.3138 65.2137 11.4635C65.3503 11.6067 65.4187 11.7856 65.4187 12.0003C65.4187 12.2085 65.3503 12.3875 65.2137 12.5371C65.0835 12.6803 64.9046 12.7519 64.6769 12.7519C64.4426 12.7519 64.2572 12.6803 64.1205 12.5371C63.9904 12.3875 63.9253 12.2085 63.9253 12.0003ZM66.4854 7.35438C66.4984 7.14616 66.5634 6.98024 66.6806 6.85661C66.7977 6.73297 66.9604 6.67116 67.1686 6.67116H70.0674C70.0999 6.72321 70.1292 6.79154 70.1553 6.87613C70.1878 6.96072 70.2041 7.05507 70.2041 7.15918C70.2041 7.32836 70.1618 7.4585 70.0772 7.54959C69.9991 7.64069 69.8917 7.68624 69.7551 7.68624H67.5785L67.4614 9.00389C67.5785 8.95834 67.7184 8.91605 67.8811 8.877C68.0438 8.83796 68.2292 8.81844 68.4374 8.81844C68.7498 8.81844 69.0296 8.86399 69.2768 8.95509C69.5306 9.04618 69.7453 9.17632 69.921 9.3455C70.0967 9.51468 70.2301 9.71965 70.3212 9.96041C70.4188 10.1947 70.4676 10.4549 70.4676 10.7412C70.4676 11.0145 70.4188 11.2748 70.3212 11.5221C70.2236 11.7628 70.0772 11.9743 69.882 12.1565C69.6933 12.3387 69.4525 12.4851 69.1597 12.5957C68.8669 12.6998 68.5253 12.7519 68.1349 12.7519C67.842 12.7519 67.5753 12.7258 67.3345 12.6738C67.1003 12.6282 66.8985 12.5632 66.7294 12.4786C66.5602 12.394 66.43 12.2964 66.3389 12.1858C66.2479 12.0686 66.2023 11.9418 66.2023 11.8051C66.2023 11.662 66.2446 11.5416 66.3292 11.444C66.4138 11.3399 66.5081 11.2618 66.6122 11.2097C66.7749 11.3399 66.9701 11.4635 67.1979 11.5806C67.4321 11.6978 67.7249 11.7563 68.0763 11.7563C68.4472 11.7563 68.727 11.662 68.9157 11.4733C69.1109 11.2781 69.2085 11.034 69.2085 10.7412C69.2085 10.4484 69.1141 10.2174 68.9254 10.0482C68.7433 9.87907 68.4797 9.79448 68.1349 9.79448C67.9331 9.79448 67.7542 9.82376 67.598 9.88232C67.4484 9.93438 67.2987 10.0027 67.1491 10.0873C66.9018 10.0743 66.7033 10.006 66.5537 9.88232C66.404 9.75218 66.3292 9.56348 66.3292 9.31622C66.3292 9.28369 66.3292 9.2479 66.3292 9.20886C66.3357 9.16331 66.3422 9.10149 66.3487 9.02341L66.4854 7.35438Z" fill="white"/>
<path d="M13.0037 11.9459C13.162 12.116 13.2525 12.4562 13.2027 12.6943L12.9675 13.7878C12.9675 13.7878 12.6238 15.1242 13.1213 15.4411C13.6188 15.7579 13.8268 15.6063 14.3288 15.2904L15.6539 14.4448C15.8619 14.3136 16.2056 14.3136 16.4137 14.4448L17.7388 15.2904C18.0372 15.48 18.3086 15.5723 18.5392 15.5723C18.6845 15.5765 18.8272 15.5305 18.9463 15.4411C19.2267 15.2224 19.3081 14.7656 19.1769 14.1581L18.8649 12.6953C18.8106 12.4572 18.901 12.1219 19.0638 11.9469L20.1583 10.766C20.502 10.3966 20.6377 10.003 20.5382 9.6628C20.4342 9.32261 20.1131 9.08934 19.6337 9.00186L19.1769 8.91925C18.892 8.86579 17.992 8.64613 17.992 8.64613C17.8609 8.56351 17.7388 8.44202 17.68 8.31566L16.9021 6.63903C16.676 6.15791 16.3684 5.89062 16.0338 5.89062C15.6991 5.89062 15.3916 6.15791 15.1655 6.63903L14.3876 8.31566C14.2926 8.51491 14.0439 8.7093 13.8404 8.74818L12.4294 9.00089C11.95 9.08837 11.6289 9.32164 11.5249 9.66182C11.4254 10.002 11.5611 10.3957 11.9048 10.765L13.0037 11.9459Z" fill="#FBCF2C"/>
<path d="M23.9915 11.9459C24.1498 12.116 24.2403 12.4562 24.1905 12.6943L23.9553 13.7878C23.9553 13.7878 23.6116 15.1242 24.1091 15.4411C24.6066 15.7579 24.8146 15.6063 25.3166 15.2904L26.6417 14.4448C26.8497 14.3136 27.1934 14.3136 27.4015 14.4448L28.7265 15.2904C29.025 15.48 29.2964 15.5723 29.527 15.5723C29.6723 15.5765 29.815 15.5305 29.934 15.4411C30.2144 15.2224 30.2958 14.7656 30.1647 14.1581L29.8526 12.6953C29.7984 12.4572 29.8888 12.1219 30.0516 11.9469L31.1461 10.766C31.4898 10.3966 31.6255 10.003 31.526 9.6628C31.4219 9.32261 31.1008 9.08934 30.6215 9.00186L30.1647 8.91925C29.8798 8.86579 28.9798 8.64613 28.9798 8.64613C28.8487 8.56351 28.7265 8.44202 28.6678 8.31566L27.8899 6.63903C27.6638 6.15791 27.3562 5.89062 27.0216 5.89062C26.6869 5.89062 26.3794 6.15791 26.1533 6.63903L25.3754 8.31566C25.2804 8.51491 25.0317 8.7093 24.8282 8.74818L23.4172 9.00089C22.9378 9.08837 22.6167 9.32164 22.5127 9.66182C22.4132 10.002 22.5488 10.3957 22.8926 10.765L23.9915 11.9459Z" fill="#FBCF2C"/>
<path d="M34.9831 11.9459C35.1414 12.116 35.2318 12.4562 35.1821 12.6943L34.9469 13.7878C34.9469 13.7878 34.6032 15.1242 35.1007 15.4411C35.5982 15.7579 35.8062 15.6063 36.3082 15.2904L37.6333 14.4448C37.8413 14.3136 38.185 14.3136 38.393 14.4448L39.7181 15.2904C40.0166 15.48 40.288 15.5723 40.5186 15.5723C40.6639 15.5765 40.8065 15.5305 40.9256 15.4411C41.206 15.2224 41.2874 14.7656 41.1563 14.1581L40.8442 12.6953C40.79 12.4572 40.8804 12.1219 41.0432 11.9469L42.1377 10.766C42.4814 10.3966 42.617 10.003 42.5175 9.6628C42.4135 9.32261 42.0924 9.08934 41.613 9.00186L41.1563 8.91925C40.8714 8.86579 39.9714 8.64613 39.9714 8.64613C39.8402 8.56351 39.7181 8.44202 39.6593 8.31566L38.8815 6.63903C38.6553 6.15791 38.3478 5.89062 38.0132 5.89062C37.6785 5.89062 37.371 6.15791 37.1448 6.63903L36.367 8.31566C36.272 8.51491 36.0233 8.7093 35.8198 8.74818L34.4087 9.00089C33.9294 9.08837 33.6083 9.32164 33.5042 9.66182C33.4047 10.002 33.5404 10.3957 33.8841 10.765L34.9831 11.9459Z" fill="#FBCF2C"/>
<path d="M45.9708 11.9459C46.1291 12.116 46.2195 12.4562 46.1698 12.6943L45.9346 13.7878C45.9346 13.7878 45.5909 15.1242 46.0883 15.4411C46.5858 15.7579 46.7939 15.6063 47.2958 15.2904L48.6209 14.4448C48.829 14.3136 49.1727 14.3136 49.3807 14.4448L50.7058 15.2904C51.0043 15.48 51.2756 15.5723 51.5063 15.5723C51.6515 15.5765 51.7942 15.5305 51.9133 15.4411C52.1937 15.2224 52.2751 14.7656 52.1439 14.1581L51.8319 12.6953C51.7776 12.4572 51.8681 12.1219 52.0309 11.9469L53.1253 10.766C53.469 10.3966 53.6047 10.003 53.5052 9.6628C53.4012 9.32261 53.0801 9.08934 52.6007 9.00186L52.1439 8.91925C51.859 8.86579 50.9591 8.64613 50.9591 8.64613C50.8279 8.56351 50.7058 8.44202 50.647 8.31566L49.8691 6.63903C49.643 6.15791 49.3355 5.89062 49.0008 5.89062C48.6662 5.89062 48.3586 6.15791 48.1325 6.63903L47.3546 8.31566C47.2597 8.51491 47.0109 8.7093 46.8074 8.74818L45.3964 9.00089C44.917 9.08837 44.5959 9.32164 44.4919 9.66182C44.3924 10.002 44.5281 10.3957 44.8718 10.765L45.9708 11.9459Z" fill="#FBCF2C"/>
</svg>
