<svg width="24" height="24" viewBox="0 0 24 24" fill="none" xmlns="http://www.w3.org/2000/svg">
<path d="M18.6851 1C20.0046 1.43196 20.4645 2.4721 20.4236 3.34032C20.3957 3.92272 20.1873 4.4256 19.7703 4.84252C19.1385 5.47434 18.5153 6.11476 17.8749 6.73799C17.675 6.93355 17.6621 7.07754 17.8706 7.26665C18.0919 7.46652 18.3004 7.68142 18.5045 7.89633C18.7581 8.16496 18.7818 8.39061 18.5368 8.65065C18.137 9.07616 17.718 9.48233 17.2946 9.88421C17.0539 10.112 16.796 10.0819 16.5639 9.85627C16.3404 9.64136 16.1126 9.42861 15.9063 9.19866C15.7258 8.99664 15.5969 9.01599 15.412 9.20295C13.7186 10.8964 12.0036 12.5705 10.3231 14.2769C9.74498 14.8636 9.17333 15.4116 8.3223 15.562C8.06012 15.6093 7.90753 15.8306 7.72271 15.9961C6.70621 16.9073 5.19757 16.4431 4.89455 15.1172C4.76131 14.5348 4.94398 14.0211 5.3566 13.615C5.64243 13.3334 5.81865 13.0132 5.91106 12.6393C6.02496 12.173 6.27855 11.8098 6.62025 11.4724C8.45554 9.665 10.2693 7.8383 12.1003 6.03094C12.3389 5.79455 12.3862 5.63767 12.1068 5.40987C11.8768 5.2229 11.677 4.99725 11.4728 4.78019C11.2601 4.55239 11.2493 4.3074 11.4707 4.08175C11.879 3.66483 12.2895 3.24791 12.7107 2.84389C12.9471 2.61824 13.2071 2.63328 13.4435 2.85679C13.6692 3.06954 13.8991 3.28015 14.1011 3.5144C14.2838 3.72501 14.4106 3.73575 14.6104 3.52514C15.1026 3.00722 15.6291 2.52153 16.1212 2.00146C16.5296 1.57165 16.9787 1.21061 17.5375 1H18.6829L18.6851 1ZM8.62102 10.8298C9.88467 10.8298 11.0516 10.8298 12.2185 10.8319C12.3905 10.8319 12.5087 10.7524 12.6226 10.6385C13.3296 9.93148 14.0323 9.22015 14.7523 8.52385C14.9521 8.33044 14.9221 8.20794 14.7372 8.03387C14.2558 7.57182 13.7809 7.10332 13.3232 6.61979C13.1276 6.41348 13.0115 6.42637 12.8138 6.62408C11.533 7.91997 10.2371 9.20081 8.94768 10.4881C8.85742 10.5784 8.7693 10.6729 8.62102 10.8298ZM19.463 3.25221C19.4695 2.97928 19.4093 2.74289 19.2675 2.52583C18.8183 1.84028 17.905 1.67266 17.2817 2.22926C16.5553 2.87828 15.8827 3.58961 15.1842 4.27087C15.0381 4.4127 15.1047 4.51156 15.2208 4.62546C15.7301 5.12619 16.2394 5.62692 16.7359 6.1384C16.8863 6.29313 16.983 6.30388 17.1399 6.14485C17.7803 5.49153 18.4358 4.84896 19.0826 4.19995C19.3491 3.93346 19.4845 3.6154 19.463 3.25221ZM12.9793 3.78088C12.8654 3.93346 12.7644 4.09894 12.6333 4.23433C12.4958 4.37617 12.485 4.47288 12.6333 4.61686C14.0109 5.98152 15.3863 7.35262 16.7552 8.72586C16.9035 8.87415 17.0066 8.86985 17.1313 8.71942C17.1915 8.64635 17.2602 8.57758 17.3333 8.5174C17.5267 8.36267 17.5181 8.23158 17.3397 8.05536C15.9858 6.71649 14.6405 5.36903 13.2909 4.02587C13.2243 3.95925 13.1663 3.87974 12.9815 3.78088H12.9793Z" fill="black"/>
<path d="M6.20469 23C4.49404 22.9527 3.69029 21.2743 4.10936 20.189C4.53487 19.0909 5.13446 18.098 5.79207 17.1352C5.99193 16.843 6.35512 16.8193 6.55069 17.0944C7.27707 18.113 7.98626 19.1553 8.30647 20.3803C8.64817 21.6934 7.56504 23 6.20254 22.9979L6.20469 23ZM7.4275 20.8445C7.42106 20.7542 7.4275 20.6919 7.41031 20.636C7.17606 19.813 6.71187 19.1038 6.2842 18.3774C6.21758 18.2635 6.15311 18.3043 6.09939 18.3924C5.68032 19.0844 5.22902 19.7614 5.00337 20.5479C4.86583 21.0315 5.02486 21.4484 5.40524 21.76C5.81141 22.0931 6.28205 22.1339 6.7484 21.9061C7.19111 21.6912 7.41461 21.3108 7.4275 20.8466V20.8445Z" fill="black"/>
</svg>
