<svg width="20" height="20" viewBox="0 0 20 20" fill="none" xmlns="http://www.w3.org/2000/svg">
<g clip-path="url(#clip0_1197_26)">
<path d="M1 10.5568C1.07221 10.2163 1.07609 9.86695 1.13703 9.52399C1.40368 8.02227 2.00039 6.67139 2.92751 5.46888C3.07194 5.28138 3.27307 5.2451 3.43546 5.36535C3.60172 5.48809 3.6225 5.70049 3.48337 5.90043C3.34881 6.09397 3.21425 6.28787 3.07264 6.47572C3.00431 6.56644 3.00783 6.61269 3.1135 6.6721C3.53761 6.91118 3.9589 7.15596 4.37597 7.40749C4.47953 7.46975 4.52814 7.46085 4.59542 7.35875C4.92935 6.8539 5.32951 6.40705 5.79378 6.02104C5.95616 5.88584 6.1263 5.75883 6.30031 5.63894C6.39436 5.57383 6.41761 5.52651 6.35209 5.41693C6.10164 4.99677 5.8607 4.57055 5.62258 4.14291C5.56869 4.04578 5.52571 4.01234 5.43025 4.09274C5.3591 4.15323 5.27773 4.20303 5.19636 4.24928C5.01037 4.35495 4.82121 4.31759 4.71378 4.15927C4.60282 3.99562 4.63839 3.79105 4.81699 3.66119C5.00227 3.52671 5.19319 3.39863 5.38939 3.28158C6.93824 2.35835 8.61636 1.91683 10.4093 2.01325C13.1456 2.16054 15.3813 3.32819 17.0866 5.50054C18.1028 6.79485 18.7055 8.277 18.9207 9.90929C19.1395 11.569 18.9028 13.1735 18.2501 14.7147C18.1187 15.0253 17.9668 15.3249 17.8031 15.618C17.4043 16.3317 16.5431 16.6249 15.8153 16.3047C15.0826 15.982 14.6899 15.1516 14.9417 14.3778C15.0559 14.027 15.2587 13.7068 15.4028 13.3649C16.6734 10.3529 15.1696 6.77243 12.1441 5.59162C12.0015 5.53612 11.9518 5.53896 11.9247 5.71543C11.7433 6.89517 11.5495 8.07314 11.3544 9.25075C11.3378 9.35108 11.3551 9.41156 11.4298 9.48023C12.6655 10.6159 12.2421 12.6324 10.6598 13.1593C9.68791 13.483 8.61706 13.0543 8.11475 12.14C7.62231 11.2445 7.82943 10.1153 8.60438 9.45105C8.87315 9.22087 9.17327 9.05721 9.51988 8.98926C9.64 8.96578 9.70728 8.91063 9.75202 8.78967C10.1645 7.67147 10.5826 6.55577 11.0039 5.44077C11.0497 5.32016 11.0546 5.27996 10.9021 5.2579C9.42689 5.04373 8.0517 5.32088 6.80861 6.14912C5.4063 7.08338 4.53448 8.39476 4.2393 10.0726C3.99941 11.4363 4.21288 12.7331 4.87511 13.9487C5.12732 14.4116 5.22841 14.8898 5.03292 15.3946C4.80219 15.9898 4.36787 16.3502 3.73487 16.4157C3.06524 16.4851 2.53581 16.2125 2.20258 15.6244C1.51886 14.4166 1.12047 13.1159 1.031 11.723C1.02712 11.6654 1.01057 11.6085 1 11.5508C1 11.2192 1 10.888 1 10.5564V10.5568ZM2.59569 11.448C2.3382 11.448 2.08035 11.4512 1.82286 11.4462C1.7274 11.4445 1.70591 11.479 1.71155 11.5711C1.79151 12.8846 2.15714 14.112 2.7993 15.2559C2.89687 15.4298 3.03354 15.564 3.21777 15.6451C3.55804 15.7945 3.94517 15.7137 4.2002 15.4394C4.46333 15.1559 4.51335 14.7699 4.30517 14.3896C3.82294 13.5072 3.53233 12.5694 3.46258 11.5636C3.45589 11.4683 3.41855 11.4455 3.33295 11.4469C3.08708 11.4509 2.84121 11.4484 2.59534 11.4484L2.59569 11.448ZM17.4261 11.448C17.1743 11.448 16.9228 11.4519 16.6709 11.4462C16.5719 11.4441 16.5416 11.4786 16.536 11.5772C16.5152 11.9376 16.455 12.2923 16.3726 12.6438C16.2327 13.2393 16.014 13.8036 15.7184 14.3373C15.5814 14.5849 15.5166 14.8403 15.6131 15.1178C15.7332 15.4619 15.9735 15.6693 16.3321 15.7091C16.729 15.7532 17.0196 15.5778 17.2148 15.2285C17.846 14.0989 18.2036 12.8882 18.2877 11.5935C18.2958 11.4683 18.2575 11.4434 18.1461 11.4462C17.9063 11.4526 17.666 11.4484 17.4261 11.4484V11.448ZM9.64845 3.60035C9.64845 3.34597 9.64775 3.0916 9.64881 2.83722C9.64916 2.76642 9.65021 2.71483 9.54877 2.72088C8.38845 2.79132 7.28767 3.08199 6.24853 3.61138C6.16681 3.65301 6.17068 3.69072 6.21049 3.75938C6.46446 4.19805 6.71773 4.63743 6.96571 5.08002C7.01362 5.16576 7.05342 5.18141 7.14254 5.13694C7.89742 4.76231 8.69773 4.55347 9.53538 4.49228C9.62943 4.48552 9.65127 4.45136 9.64951 4.36349C9.64458 4.10911 9.64775 3.85473 9.64775 3.60035H9.64845ZM15.5169 7.46406C15.5398 7.45196 15.5663 7.43915 15.5913 7.42457C16.0316 7.1677 16.4705 6.90798 16.9133 6.65574C17.0034 6.60451 16.9886 6.56644 16.9418 6.49493C16.3095 5.53149 15.5166 4.73171 14.5655 4.08919C14.4753 4.02799 14.4387 4.03119 14.3838 4.13046C14.1411 4.56841 13.8934 5.00352 13.6384 5.43401C13.5792 5.53363 13.6081 5.57419 13.6881 5.62862C14.3799 6.10038 14.9597 6.68562 15.4264 7.38508C15.4479 7.41745 15.4627 7.46157 15.5169 7.46406ZM17.4166 10.7375C17.6681 10.7375 17.9196 10.735 18.1712 10.739C18.2589 10.7404 18.2913 10.7215 18.2842 10.6201C18.205 9.47062 17.9285 8.37519 17.4226 7.33954C17.3677 7.22676 17.3258 7.2296 17.2324 7.2851C16.8146 7.53414 16.3958 7.78105 15.9717 8.01906C15.8625 8.08026 15.8551 8.13469 15.9062 8.24C16.2694 8.99104 16.4786 9.78513 16.5357 10.6183C16.5431 10.7276 16.5913 10.7404 16.6794 10.739C16.9249 10.7354 17.1708 10.7375 17.4166 10.7375ZM2.56857 10.7375C2.82043 10.7375 3.07229 10.7343 3.32415 10.7393C3.41679 10.7411 3.45695 10.7187 3.46434 10.6144C3.52247 9.78619 3.72818 8.99637 4.08994 8.24996C4.14313 8.14003 4.14172 8.08097 4.02231 8.01479C3.60207 7.78105 3.18712 7.53735 2.77569 7.28866C2.66614 7.22249 2.62986 7.24241 2.57491 7.35483C2.07155 8.38658 1.79397 9.47667 1.71577 10.6219C1.70873 10.7261 1.74571 10.7404 1.83096 10.7393C2.07683 10.7361 2.32305 10.7382 2.56892 10.7382L2.56857 10.7375ZM10.3515 3.59466C10.3515 3.84904 10.3558 4.10342 10.3494 4.35744C10.347 4.45599 10.378 4.48908 10.4752 4.49477C10.6326 4.50366 10.7897 4.52465 10.9454 4.5492C11.304 4.60541 11.3037 4.60755 11.4435 4.25996C11.4544 4.23256 11.4657 4.20517 11.4795 4.1792C11.5675 4.01092 11.7155 3.94118 11.8881 3.9853C12.0494 4.02657 12.1537 4.17457 12.1417 4.36135C12.135 4.46702 12.1223 4.57446 12.0945 4.67621C12.0667 4.77868 12.0945 4.82172 12.1921 4.85837C12.4108 4.94055 12.6274 5.03056 12.8388 5.13125C12.9402 5.17963 12.9878 5.1654 13.0424 5.0665C13.2798 4.63886 13.5211 4.21335 13.7708 3.79283C13.8371 3.68111 13.8156 3.6434 13.7064 3.58861C12.687 3.07594 11.608 2.79559 10.4731 2.72195C10.3604 2.71448 10.3484 2.75788 10.3501 2.84967C10.354 3.098 10.3515 3.34633 10.3515 3.59466ZM9.36771 9.80149C8.82419 10.037 8.49695 10.6539 8.5674 11.2712C8.6389 11.8981 9.12818 12.4196 9.75096 12.5321C10.3836 12.6466 10.9993 12.3221 11.304 11.7195C11.5161 11.2997 11.4858 10.6148 11.1857 10.3191C11.1642 10.449 11.1473 10.5707 11.1233 10.6913C11.0659 10.9802 11.0652 11.2829 10.9476 11.5565C10.7355 12.0493 10.1423 12.2784 9.62943 12.0777C9.09436 11.8685 8.82489 11.3228 9.00383 10.7877C9.11198 10.4639 9.23984 10.1469 9.36806 9.80149H9.36771ZM10.8521 7.944C10.8253 7.96392 10.8116 7.96854 10.8081 7.97708C10.4266 8.99068 10.0454 10.0046 9.66571 11.0189C9.63049 11.1136 9.64599 11.2025 9.71256 11.2836C9.81014 11.4032 9.92955 11.4587 10.0828 11.4284C10.2617 11.3932 10.322 11.2648 10.3477 11.0994C10.4495 10.4529 10.5559 9.80718 10.6598 9.1611C10.7239 8.76085 10.7862 8.36061 10.8521 7.94435V7.944Z" fill="black"/>
<path d="M10.0003 14.5865C10.6558 14.5865 11.311 14.5858 11.9666 14.5865C12.3484 14.5869 12.4608 14.7 12.4611 15.08C12.4611 15.3873 12.4629 15.6947 12.4608 16.0021C12.4586 16.2939 12.334 16.4308 12.0455 16.4315C10.6819 16.4351 9.31869 16.4351 7.95513 16.4315C7.66699 16.4308 7.54194 16.2939 7.53982 16.0021C7.53771 15.689 7.53877 15.3756 7.53947 15.0625C7.54018 14.7067 7.65783 14.5879 8.01677 14.5872C8.67794 14.5858 9.33912 14.5869 10.0006 14.5869L10.0003 14.5865ZM9.99924 15.7228C10.5318 15.7228 11.0648 15.715 11.597 15.7271C11.7742 15.731 11.764 15.6375 11.7587 15.5197C11.7534 15.4087 11.7989 15.2909 11.5992 15.2927C10.534 15.302 9.46839 15.3012 8.40319 15.2927C8.22671 15.2913 8.23622 15.382 8.24186 15.4998C8.24714 15.6108 8.20135 15.7317 8.40143 15.7268C8.93368 15.7136 9.46663 15.7225 9.99924 15.7225V15.7228Z" fill="black"/>
<path d="M10.5104 17.4982C10.2884 17.4982 10.0665 17.5028 9.8446 17.4971C9.59521 17.4904 9.44303 17.3552 9.43951 17.1488C9.43599 16.9432 9.58957 16.7941 9.83403 16.7909C10.2895 16.7845 10.745 16.7877 11.2008 16.7909C11.3582 16.792 11.4843 16.8557 11.5498 17.0101C11.603 17.1353 11.5812 17.2524 11.5023 17.3598C11.4209 17.4705 11.3022 17.4968 11.1765 17.4979C10.9545 17.5003 10.7326 17.4986 10.5107 17.4986L10.5104 17.4982Z" fill="black"/>
<path d="M7.394 6.90504C7.1985 6.89863 7.04528 6.73071 7.05514 6.53325C7.0643 6.34505 7.22915 6.191 7.41373 6.19811C7.605 6.20558 7.75893 6.37671 7.75083 6.57345C7.74308 6.76522 7.58598 6.91108 7.394 6.90504Z" fill="black"/>
<path d="M12.6007 6.9057C12.4102 6.90819 12.2552 6.75805 12.2506 6.56665C12.246 6.37133 12.4045 6.20198 12.5958 6.19842C12.7786 6.19486 12.9428 6.35532 12.9473 6.54174C12.9523 6.74133 12.7983 6.90321 12.6007 6.90606V6.9057Z" fill="black"/>
<path d="M5.15513 11.0901C5.15725 11.2843 5.00754 11.4409 4.81556 11.4455C4.62042 11.4501 4.45063 11.2829 4.45416 11.0894C4.45768 10.9029 4.62218 10.7404 4.80746 10.7404C4.99592 10.7404 5.15302 10.8983 5.15513 11.0897V11.0901Z" fill="black"/>
<path d="M14.8449 11.084C14.8502 10.8929 15.0118 10.7374 15.1996 10.7424C15.3863 10.7474 15.5473 10.9132 15.5458 11.0982C15.5444 11.2932 15.3736 11.454 15.177 11.4458C14.984 11.4376 14.8396 11.28 14.8449 11.084Z" fill="black"/>
<path d="M4.23324 4.90987C4.23324 5.09452 4.07297 5.25995 3.88874 5.26458C3.70522 5.2692 3.53825 5.10875 3.53332 4.92304C3.52804 4.7327 3.69818 4.5573 3.88663 4.55872C4.0698 4.56015 4.23289 4.72558 4.23324 4.91023V4.90987Z" fill="black"/>
<path d="M8.75275 17.491C8.56113 17.4811 8.41037 17.3163 8.42093 17.1278C8.43185 16.9278 8.59917 16.7827 8.80136 16.7973C8.9944 16.8111 9.13424 16.9734 9.12156 17.1683C9.10888 17.3612 8.94861 17.5014 8.75275 17.491Z" fill="black"/>
</g>
<defs>
<clipPath id="clip0_1197_26">
<rect width="18" height="15.5" fill="white" transform="translate(1 2)"/>
</clipPath>
</defs>
</svg>
