<svg width="20" height="20" viewBox="0 0 20 20" fill="none" xmlns="http://www.w3.org/2000/svg">
<path d="M10.0047 4.01024C12.7928 4.01024 15.5814 4.02872 18.3689 4.00011C19.3424 3.98997 20.01 4.71247 19.9999 5.62573C19.9731 7.98995 19.9909 10.3542 19.9909 12.7184C19.9909 13.7455 19.4175 14.3357 18.388 14.3607C18.2246 14.3649 18.1251 14.4346 18.0571 14.5753C17.6255 15.4671 16.8822 15.8778 15.9224 15.8802C14.968 15.882 14.2366 15.4611 13.802 14.5866C13.7269 14.4352 13.6262 14.3589 13.4563 14.3607C13.129 14.3649 12.8017 14.3655 12.475 14.3607C12.3063 14.3583 12.2002 14.4275 12.1251 14.5801C11.6876 15.4635 10.9496 15.8844 9.98623 15.8808C9.03303 15.8772 8.301 15.4588 7.86523 14.5854C7.79131 14.437 7.69176 14.3571 7.51888 14.3607C7.19161 14.3673 6.86434 14.3661 6.53767 14.3613C6.36837 14.3589 6.26762 14.4328 6.18953 14.5837C5.74602 15.4403 5.03246 15.8892 4.07151 15.8898C3.10401 15.8904 2.37853 15.451 1.9368 14.5771C1.8599 14.4251 1.7526 14.3637 1.58449 14.3613C0.60566 14.3488 0.000596122 13.7378 0 12.7673C0 10.3732 0 7.97922 0 5.5846C0.000596122 4.62126 0.609833 4.01084 1.57376 4.01084C4.38448 4.00964 7.19459 4.01084 10.0053 4.01084L10.0047 4.01024ZM12.5788 9.56311C12.5859 8.1974 11.4044 6.97952 10.0619 6.96939C8.58654 6.95806 7.4235 8.10679 7.41516 9.58398C7.40741 10.9545 8.56687 12.1288 9.93258 12.1336C11.3955 12.139 12.571 10.9968 12.5788 9.56311ZM18.4899 9.55596C18.4923 8.09785 17.3889 6.9831 15.9296 6.96998C14.5245 6.95747 13.3448 8.13421 13.3436 9.5494C13.3424 10.9557 14.512 12.1384 15.901 12.1348C17.3752 12.1318 18.4875 11.023 18.4899 9.55536V9.55596ZM4.05363 6.99085C2.58478 6.998 1.47779 8.11335 1.47898 9.58517C1.48017 10.9735 2.66824 12.1407 4.0739 12.1354C5.47955 12.13 6.65749 10.9533 6.64676 9.5649C6.63543 8.09189 5.5189 6.9831 4.05303 6.99025L4.05363 6.99085ZM2.21996 5.49101C2.21996 5.49101 2.21996 5.49101 2.21996 5.49041C2.09418 5.49041 1.9678 5.48564 1.84202 5.4916C1.62682 5.50233 1.48911 5.64063 1.48673 5.84093C1.48434 6.0299 1.61311 6.18728 1.81161 6.19681C2.07748 6.20993 2.34574 6.21052 2.61161 6.19681C2.80475 6.18668 2.94246 6.01857 2.93828 5.83854C2.93411 5.65554 2.79283 5.5071 2.5979 5.49339C2.47271 5.48504 2.34574 5.4916 2.21996 5.4916V5.49101ZM12.5817 11.8206C12.5239 11.8153 12.4548 11.8427 12.3981 11.8939C12.2116 12.0644 12.0136 12.2194 11.8116 12.3708C11.6601 12.4847 11.6494 12.6486 11.7335 12.8114C11.8217 12.9819 11.9707 13.0379 12.146 12.9694C12.4661 12.8442 12.6986 12.5998 12.9203 12.3506C13.005 12.2552 12.9931 12.127 12.9275 12.015C12.8554 11.8922 12.7516 11.8165 12.5812 11.82L12.5817 11.8206ZM7.39966 6.20158C7.52544 6.20158 7.65182 6.20933 7.77701 6.19979C7.98982 6.1837 8.12514 6.03765 8.12276 5.84033C8.12037 5.64361 7.98028 5.49876 7.76747 5.4922C7.52306 5.48445 7.27865 5.48504 7.03424 5.4922C6.82142 5.49876 6.68074 5.64242 6.67776 5.83914C6.67418 6.03705 6.8095 6.18489 7.02172 6.20039C7.1469 6.20993 7.27328 6.20218 7.39906 6.20218L7.39966 6.20158ZM12.5961 5.49041C12.4703 5.49041 12.3439 5.48504 12.2187 5.4916C12.0065 5.50352 11.8682 5.64659 11.8682 5.84451C11.8682 6.03288 11.9964 6.18728 12.1955 6.19741C12.4613 6.21052 12.729 6.21112 12.9949 6.19622C13.1952 6.18489 13.312 6.03348 13.3072 5.83497C13.3025 5.63765 13.1785 5.50531 12.974 5.49279C12.8488 5.48504 12.7224 5.4916 12.5966 5.49101L12.5961 5.49041ZM17.7954 5.49101C17.6619 5.49101 17.5284 5.48445 17.3954 5.49279C17.1939 5.50531 17.0562 5.64421 17.0592 5.83616C17.0622 6.0299 17.1594 6.17714 17.3561 6.19204C17.6363 6.21291 17.92 6.2141 18.1996 6.19264C18.391 6.17833 18.5 6.03765 18.5078 5.84272C18.5149 5.6609 18.3665 5.5077 18.1734 5.49339C18.0482 5.48385 17.9212 5.4916 17.7954 5.49101ZM8.30457 12.6349C8.31053 12.5378 8.27238 12.4346 8.18296 12.3768C7.98267 12.2469 7.82291 12.0692 7.63215 11.9291C7.43304 11.7831 7.24407 11.7884 7.11352 11.9351C6.98118 12.0835 6.99072 12.2749 7.15167 12.4555C7.33587 12.6618 7.5624 12.8203 7.79966 12.9556C8.02678 13.0856 8.3004 12.9091 8.30517 12.6349H8.30457ZM17.9755 12.9914C17.9975 12.989 18.0214 12.9914 18.0416 12.9843C18.3927 12.8519 18.6538 12.6015 18.8684 12.3083C18.9602 12.1831 18.8959 12.0358 18.7886 11.9267C18.6789 11.8147 18.5215 11.7616 18.4059 11.8528C18.1638 12.0448 17.8962 12.2093 17.6893 12.4436C17.5975 12.5473 17.591 12.6755 17.6524 12.7971C17.7173 12.9252 17.8246 12.9974 17.9743 12.992L17.9755 12.9914ZM2.37197 12.6206C2.37793 12.536 2.33799 12.4334 2.24917 12.3756C2.04887 12.2457 1.88971 12.0674 1.69895 11.9279C1.49925 11.7819 1.31266 11.789 1.18151 11.9387C1.05096 12.0877 1.06229 12.2802 1.22205 12.4591C1.40148 12.6594 1.62324 12.8114 1.85036 12.9479C2.08643 13.0898 2.36958 12.9181 2.37137 12.6206H2.37197Z" fill="black"/>
<path d="M8.11914 9.52313C8.12033 8.54191 9.01988 7.67694 10.0369 7.67933C11.0068 7.68171 11.8747 8.58424 11.8682 9.58394C11.8616 10.5777 10.9728 11.4295 9.94924 11.423C8.96027 11.417 8.11795 10.5419 8.11914 9.52313Z" fill="black"/>
<path d="M15.9587 11.4041C14.9113 11.4303 14.0875 10.6387 14.0583 9.57815C14.0309 8.57428 14.8589 7.71467 15.8836 7.68487C16.894 7.65506 17.7626 8.47592 17.796 9.49231C17.8305 10.551 17.0371 11.3772 15.9587 11.4047V11.4041Z" fill="black"/>
<path d="M4.06856 11.4052C3.01104 11.4088 2.20746 10.6106 2.19495 9.5447C2.18302 8.54441 3.04502 7.6854 4.0614 7.68421C5.08196 7.68301 5.9374 8.5301 5.93382 9.53755C5.92965 10.6016 5.13025 11.4016 4.06856 11.4052Z" fill="black"/>
</svg>
