<svg width="24" height="24" viewBox="0 0 24 24" fill="none" xmlns="http://www.w3.org/2000/svg">
<path d="M15.003 14.988C14.9726 15.7397 14.975 15.7178 14.3639 15.8323C14.2506 15.853 14.1398 15.8871 14.0266 15.9018C13.8038 15.9298 13.6516 16.0017 13.6078 16.2648C13.5774 16.4452 13.581 16.5609 13.7332 16.6779C13.9304 16.8302 14.1045 17.0105 14.2932 17.175C14.4406 17.3041 14.4771 17.4491 14.387 17.627C14.2604 17.8804 14.1204 18.1266 13.9645 18.3642C13.8622 18.5213 13.7247 18.5688 13.5457 18.5091C13.2827 18.4214 13.0161 18.3471 12.7568 18.2521C12.6314 18.2058 12.5608 18.2338 12.4561 18.3154C12.2199 18.4982 12.1785 18.6882 12.3051 18.9539C12.394 19.1415 12.4341 19.3511 12.5035 19.5484C12.562 19.7178 12.5254 19.8506 12.3769 19.9554C12.1334 20.126 11.8753 20.2722 11.6062 20.3989C11.4395 20.4769 11.297 20.444 11.1728 20.3002C10.9926 20.0906 10.7978 19.8933 10.6189 19.6825C10.5373 19.5862 10.4606 19.5838 10.3388 19.5996C10.0442 19.6386 9.91638 19.7897 9.89081 20.0797C9.87133 20.2868 9.80072 20.4878 9.76176 20.6937C9.72767 20.8716 9.6254 20.9667 9.44765 20.9813C9.15058 21.0069 8.85473 21.0057 8.55767 20.9813C8.3787 20.9667 8.27521 20.8753 8.23869 20.6986C8.18025 20.4208 8.10963 20.1467 8.05972 19.8677C8.03658 19.7434 7.97449 19.7044 7.86492 19.6532C7.57394 19.518 7.39132 19.6252 7.22087 19.8567C7.10521 20.0139 6.95789 20.1467 6.83127 20.2965C6.70344 20.4488 6.55491 20.4793 6.37959 20.3952C6.11783 20.2697 5.86703 20.1248 5.62718 19.9603C5.47743 19.8579 5.4336 19.73 5.49204 19.5582C5.58335 19.2901 5.66005 19.016 5.75745 18.7504C5.8025 18.6298 5.76232 18.564 5.69171 18.4677C5.50787 18.2167 5.30333 18.1948 5.03548 18.3179C4.85286 18.4019 4.65076 18.4409 4.45961 18.5079C4.2709 18.5737 4.13089 18.5189 4.02619 18.3544C3.88009 18.1266 3.7486 17.8914 3.6232 17.6526C3.52215 17.4601 3.55259 17.309 3.71573 17.1677C3.92027 16.991 4.1102 16.7985 4.3196 16.6279C4.42918 16.539 4.41822 16.4549 4.40605 16.3306C4.37439 16.0224 4.19907 15.9188 3.91905 15.8896C3.71938 15.8689 3.52337 15.8079 3.3237 15.7689C3.14108 15.7336 3.04003 15.6337 3.02177 15.4436C2.99255 15.1537 2.99376 14.8649 3.01933 14.5737C3.03759 14.3739 3.13864 14.2703 3.32979 14.2325C3.60129 14.1789 3.87035 14.1131 4.14185 14.0632C4.26482 14.0413 4.33543 13.9913 4.34761 13.8621C4.35369 13.8024 4.37196 13.7427 4.39509 13.6867C4.45231 13.549 4.42065 13.4552 4.29891 13.3577C4.08828 13.1896 3.89714 12.9971 3.69625 12.818C3.55746 12.6937 3.52215 12.5548 3.60738 12.383C3.73399 12.1284 3.87522 11.8835 4.02741 11.6446C4.13333 11.4789 4.27334 11.4302 4.46205 11.4948C4.7165 11.5825 4.97826 11.6544 5.23028 11.747C5.36055 11.7945 5.43725 11.7641 5.54926 11.6788C5.79276 11.4936 5.8098 11.2974 5.68927 11.0367C5.60283 10.8478 5.55779 10.6395 5.49082 10.4421C5.43238 10.2703 5.48108 10.1411 5.6284 10.04C5.86824 9.87552 6.12148 9.73419 6.38202 9.60625C6.5476 9.52584 6.69248 9.54777 6.81788 9.69154C7.0005 9.89989 7.19409 10.0985 7.37184 10.3093C7.45828 10.4128 7.53985 10.4177 7.6689 10.3994C7.95379 10.358 8.08285 10.2167 8.10598 9.93279C8.12303 9.73297 8.18877 9.5368 8.22773 9.3382C8.26669 9.14082 8.37018 9.02873 8.5808 9.01533C8.86447 8.99705 9.14693 8.99583 9.4306 9.01776C9.61688 9.03239 9.72645 9.12255 9.76419 9.31018C9.8202 9.58798 9.89325 9.86212 9.94195 10.1411C9.96508 10.2703 10.0369 10.3007 10.1453 10.347C10.4229 10.4677 10.6067 10.3873 10.7735 10.1521C10.8892 9.98762 11.045 9.85237 11.1765 9.69763C11.3067 9.54412 11.4565 9.52462 11.6294 9.60869C11.8838 9.73419 12.131 9.87187 12.366 10.0315C12.5206 10.1363 12.5681 10.2715 12.506 10.4518C12.4171 10.7138 12.3428 10.9806 12.2479 11.2414C12.2028 11.3656 12.2357 11.4363 12.3148 11.5411C12.4974 11.7823 12.6935 11.8091 12.9552 11.6873C13.1439 11.6008 13.3521 11.5557 13.5494 11.4887C13.7283 11.4278 13.8659 11.4777 13.967 11.6349C14.1204 11.8737 14.2628 12.1186 14.3894 12.372C14.4783 12.5499 14.443 12.6937 14.2945 12.8228C14.0863 13.0044 13.8878 13.1993 13.676 13.376C13.5774 13.4589 13.5786 13.5356 13.592 13.655C13.6261 13.9511 13.7807 14.079 14.068 14.1058C14.2677 14.1253 14.4637 14.1887 14.6621 14.2264C14.863 14.2642 14.9726 14.3739 14.9799 14.5822C14.986 14.737 14.9982 14.8917 15.0042 14.9831L15.003 14.988ZM6.4502 11.4765C6.44655 11.6178 6.39785 11.7031 6.31628 11.7701C6.11783 11.9346 5.93886 12.1162 5.77328 12.3136C5.66736 12.4403 5.53831 12.4768 5.37516 12.4196C5.12071 12.3306 4.85773 12.266 4.60571 12.1698C4.44744 12.1101 4.38778 12.1832 4.32569 12.3014C4.26725 12.4122 4.20516 12.4975 4.34882 12.6084C4.56675 12.7778 4.76277 12.9751 4.96731 13.1616C5.08418 13.2676 5.12071 13.3918 5.06349 13.5454C4.97583 13.7793 4.91252 14.0218 4.87234 14.2691C4.84312 14.4506 4.73842 14.553 4.5558 14.5883C4.2843 14.6407 4.01645 14.7126 3.74373 14.7565C3.58303 14.782 3.5952 14.8844 3.59885 14.9916C3.60251 15.1 3.56355 15.2207 3.7413 15.2475C4.00062 15.2877 4.25508 15.362 4.5144 15.4059C4.73111 15.4424 4.85043 15.5533 4.88086 15.7714C4.91252 15.9992 4.97461 16.221 5.0574 16.4354C5.12193 16.6036 5.0854 16.7364 4.95513 16.8533C4.74451 17.0422 4.53997 17.2408 4.32326 17.4223C4.21855 17.5088 4.24899 17.5783 4.30865 17.6611C4.37317 17.7489 4.37926 17.9085 4.5631 17.8427C4.82973 17.7489 5.10488 17.6758 5.37151 17.5819C5.54439 17.521 5.67223 17.5649 5.78302 17.6989C5.93764 17.8865 6.10809 18.0596 6.2968 18.2143C6.43924 18.3313 6.47699 18.4689 6.41368 18.6468C6.32602 18.8942 6.26758 19.1537 6.16896 19.3961C6.09713 19.5728 6.20062 19.613 6.31141 19.6861C6.43559 19.7678 6.51716 19.7629 6.61578 19.641C6.78014 19.4364 6.96885 19.2512 7.14052 19.0513C7.26348 18.9076 7.40593 18.8808 7.57638 18.9466C7.79065 19.0306 8.01223 19.0891 8.23869 19.1269C8.43835 19.1598 8.54793 19.2597 8.58323 19.4632C8.6295 19.7288 8.7062 19.9895 8.75003 20.2551C8.7756 20.4159 8.87787 20.4038 8.985 20.3989C9.08971 20.394 9.21267 20.4428 9.24189 20.2612C9.28572 19.9883 9.36364 19.7215 9.41356 19.4498C9.44765 19.2646 9.5487 19.1646 9.73011 19.133C9.96995 19.0903 10.2049 19.0318 10.4314 18.9441C10.5945 18.8808 10.7309 18.9124 10.849 19.0489C11.0352 19.2621 11.2361 19.4632 11.4163 19.6812C11.5137 19.7994 11.5904 19.7446 11.6744 19.6873C11.7609 19.6289 11.8997 19.6118 11.8376 19.44C11.7414 19.1744 11.6671 18.899 11.5734 18.6322C11.5162 18.4689 11.549 18.3398 11.6781 18.2338C11.8765 18.0693 12.0567 17.8878 12.2211 17.6904C12.3282 17.5612 12.4548 17.5247 12.6168 17.5807C12.8907 17.6745 13.1695 17.755 13.4447 17.8451C13.6321 17.9073 13.6236 17.7306 13.6918 17.6489C13.7539 17.5746 13.7722 17.5088 13.6772 17.4284C13.4605 17.2457 13.2572 17.0471 13.0453 16.8594C12.9053 16.7364 12.8749 16.5987 12.9406 16.4232C13.0222 16.2088 13.0818 15.9858 13.1159 15.758C13.1451 15.5594 13.2511 15.4473 13.452 15.4107C13.7113 15.3644 13.9645 15.2889 14.2251 15.2523C14.4004 15.2268 14.3967 15.1256 14.3992 14.9965C14.4016 14.86 14.3809 14.7711 14.2153 14.7467C13.9621 14.7089 13.7149 14.6346 13.4629 14.5908C13.2523 14.5542 13.1439 14.4397 13.1135 14.2325C13.0806 14.012 13.0258 13.7939 12.9443 13.588C12.8676 13.3955 12.9138 13.2517 13.066 13.1214C13.2657 12.9496 13.4532 12.7644 13.6553 12.5962C13.7539 12.5134 13.7661 12.4451 13.6906 12.344C13.62 12.2502 13.6066 12.093 13.4154 12.1625C13.15 12.2587 12.8749 12.333 12.607 12.4232C12.4524 12.4744 12.3294 12.439 12.2259 12.3184C12.0555 12.1174 11.8704 11.931 11.6683 11.7616C11.5478 11.6605 11.5162 11.535 11.5697 11.379C11.6635 11.1122 11.7365 10.8368 11.8339 10.5712C11.896 10.4043 11.773 10.3775 11.6805 10.319C11.5856 10.2581 11.5052 10.2094 11.4041 10.3324C11.2288 10.5469 11.0328 10.743 10.8502 10.9502C10.7345 11.0817 10.6006 11.1256 10.4338 11.0598C10.2013 10.9684 9.95899 10.9087 9.71306 10.8649C9.54018 10.8332 9.444 10.7345 9.41112 10.5578C9.36121 10.2922 9.28329 10.0327 9.24555 9.76587C9.21754 9.56727 9.08971 9.61235 8.96796 9.60016C8.82795 9.58554 8.76342 9.63428 8.73907 9.77805C8.69403 10.0437 8.62585 10.3056 8.57349 10.57C8.54062 10.7357 8.44688 10.8332 8.28252 10.8636C8.0305 10.9099 7.78213 10.9733 7.54229 11.0647C7.38401 11.1244 7.25496 11.0817 7.14417 10.9562C6.97494 10.7637 6.79597 10.5798 6.63039 10.3836C6.53664 10.2727 6.46238 10.2203 6.31141 10.3093C6.16653 10.3946 6.09104 10.4713 6.1787 10.6382C6.20914 10.6967 6.22253 10.765 6.24201 10.8295C6.31263 11.0549 6.38446 11.2791 6.44533 11.4753L6.4502 11.4765Z" fill="#B22234"/>
<path d="M18.1766 4.54753C18.1803 4.63404 18.145 4.69861 18.1109 4.76563C18.0098 4.95691 17.9088 5.14699 17.8126 5.34071C17.7189 5.52957 17.77 5.64653 17.9684 5.70989C18.1803 5.7769 18.3921 5.84635 18.6052 5.90971C18.7659 5.95723 18.8523 6.0547 18.873 6.22406C18.9023 6.47383 18.9023 6.72117 18.873 6.97094C18.8536 7.14273 18.7647 7.23899 18.6064 7.28772C18.3873 7.35596 18.1681 7.42419 17.9514 7.49485C17.7785 7.55212 17.7237 7.67274 17.8029 7.83601C17.9003 8.03583 18.0001 8.23564 18.1109 8.42815C18.2132 8.60726 18.1888 8.7559 18.0549 8.90699C17.9112 9.06903 17.7578 9.22012 17.5971 9.36511C17.4547 9.49304 17.311 9.5235 17.1369 9.42237C16.9567 9.31759 16.768 9.22621 16.5817 9.13117C16.3614 9.01786 16.2457 9.0666 16.1739 9.29809C16.1093 9.504 16.0436 9.70991 15.9815 9.91704C15.934 10.0791 15.8318 10.1619 15.6625 10.1802C15.4397 10.2034 15.2194 10.2022 14.9966 10.19C14.7677 10.1766 14.6386 10.0718 14.5838 9.85003C14.5351 9.65387 14.467 9.46258 14.4061 9.26885C14.344 9.07513 14.221 9.02517 14.0372 9.11899C13.8266 9.22621 13.6172 9.33343 13.4078 9.4443C13.2787 9.51253 13.1606 9.49669 13.0498 9.40775C12.8441 9.24205 12.6566 9.05807 12.4922 8.85094C12.3972 8.73275 12.3875 8.60726 12.4581 8.47323C12.5653 8.27098 12.6724 8.0675 12.7771 7.86403C12.8781 7.66787 12.8282 7.5509 12.6152 7.48145C12.4106 7.41444 12.2049 7.34986 11.9979 7.28894C11.8311 7.24021 11.7374 7.14395 11.7191 6.96241C11.6948 6.71264 11.6935 6.46408 11.7215 6.21553C11.7398 6.05348 11.8226 5.95966 11.976 5.91458C12.1964 5.85001 12.4143 5.77934 12.6322 5.70867C12.8197 5.64775 12.8733 5.52591 12.7856 5.35168C12.6833 5.14699 12.5762 4.94351 12.4666 4.74126C12.3826 4.5853 12.3997 4.44884 12.5166 4.3136C12.6748 4.1284 12.8453 3.9566 13.0328 3.80065C13.1545 3.69952 13.2799 3.67881 13.4248 3.75922C13.6135 3.86401 13.8071 3.95904 13.9994 4.05773C14.2393 4.18201 14.3379 4.14302 14.4183 3.89081C14.4816 3.69099 14.5485 3.49239 14.6045 3.29135C14.6532 3.11956 14.7592 3.03183 14.9357 3.01599C15.178 2.99528 15.4203 2.99406 15.6625 3.01599C15.8403 3.03183 15.9401 3.12565 15.9888 3.29623C16.0485 3.51067 16.1191 3.72267 16.1909 3.93345C16.2554 4.12109 16.3735 4.16982 16.5476 4.0821C16.7583 3.97488 16.9677 3.86644 17.1746 3.75435C17.294 3.68977 17.4084 3.68612 17.5168 3.76775C17.7493 3.9432 17.9538 4.14911 18.1292 4.38183C18.1669 4.43178 18.1827 4.49027 18.1791 4.54509L18.1766 4.54753ZM18.2899 6.59445C18.3118 6.47992 18.2692 6.41656 18.1523 6.39341C18.061 6.37514 17.9745 6.32153 17.882 6.31056C17.4863 6.25939 17.2684 6.03155 17.1625 5.65506C17.1211 5.50763 17.1053 5.38336 17.1795 5.24933C17.2635 5.09581 17.3427 4.93864 17.4267 4.78512C17.4863 4.67668 17.5399 4.58896 17.4157 4.46833C17.2976 4.3538 17.216 4.40863 17.115 4.46346C16.9543 4.54875 16.7899 4.62795 16.6316 4.71689C16.5026 4.78877 16.3869 4.76806 16.2469 4.73273C15.8366 4.62673 15.6199 4.37452 15.5676 3.9627C15.559 3.8969 15.5177 3.83598 15.5079 3.77019C15.4872 3.62032 15.3959 3.59961 15.2644 3.59839C15.0794 3.59839 15.0854 3.74704 15.0635 3.8506C14.9734 4.27217 14.831 4.63282 14.3428 4.73517C14.2113 4.76319 14.1005 4.79365 13.9763 4.72542C13.7937 4.62429 13.6025 4.53657 13.4211 4.433C13.3189 4.37452 13.2543 4.39645 13.1776 4.47686C13.1034 4.55362 13.0681 4.61576 13.1302 4.72176C13.2385 4.90818 13.331 5.10312 13.4321 5.29441C13.4905 5.40407 13.4905 5.51129 13.4382 5.6246C13.3871 5.73426 13.3408 5.84757 13.2994 5.96088C13.2519 6.09125 13.1679 6.17288 13.0328 6.21187C12.8319 6.26914 12.6359 6.3459 12.4338 6.39707C12.312 6.42753 12.2974 6.49698 12.295 6.60176C12.2925 6.71386 12.3266 6.77478 12.4386 6.80524C12.6334 6.85763 12.8234 6.92829 13.0182 6.9819C13.1691 7.02455 13.2373 7.13055 13.3116 7.26092C13.5137 7.61182 13.4918 7.93348 13.2507 8.2527C13.2069 8.31119 13.1862 8.38673 13.146 8.44887C13.0863 8.5439 13.0693 8.61822 13.1643 8.71448C13.2592 8.81073 13.3384 8.82048 13.4455 8.75225C13.5076 8.71204 13.5806 8.68889 13.6415 8.64625C13.952 8.42572 14.26 8.37211 14.6131 8.57558C14.764 8.6633 14.8797 8.74372 14.9272 8.91308C14.9807 9.10193 15.0477 9.28591 15.0964 9.47476C15.1281 9.59782 15.2084 9.60391 15.3095 9.60635C15.4142 9.60757 15.4738 9.57102 15.497 9.46623C15.514 9.38704 15.5554 9.31272 15.5676 9.23352C15.6236 8.83388 15.8269 8.57802 16.2299 8.4708C16.3845 8.42937 16.5111 8.40988 16.6523 8.48907C16.8228 8.58533 17.0018 8.66574 17.1698 8.76443C17.272 8.82413 17.339 8.80098 17.4157 8.72057C17.4888 8.64503 17.5241 8.58289 17.4608 8.47689C17.3561 8.30387 17.2708 8.1199 17.1746 7.94201C17.1065 7.81408 17.1162 7.69467 17.1564 7.55456C17.2647 7.17563 17.4815 6.93439 17.8857 6.882C17.9709 6.87103 18.0525 6.82717 18.1377 6.80767C18.2546 6.78087 18.3179 6.72238 18.2899 6.59689V6.59445Z" fill="#B22234"/>
<path d="M20.4168 11.836C20.3997 12.0066 20.3023 12.1418 20.2366 12.2868C20.1246 12.5329 20.1806 12.6743 20.4314 12.7681C21.0024 12.9801 21.0231 13.0105 20.9902 13.6173C20.9683 14.0279 20.9464 14.0572 20.5556 14.19C20.5105 14.2058 20.4655 14.2192 20.4216 14.235C20.1915 14.3167 20.1258 14.4665 20.228 14.6871C20.4667 15.2012 20.5836 15.1659 20.0138 15.7142C19.7496 15.9688 19.6936 15.9725 19.3551 15.8129C19.276 15.7751 19.1993 15.73 19.1153 15.7044C18.9619 15.6569 18.8401 15.7117 18.7585 15.8494C18.7354 15.8896 18.7305 15.9396 18.7098 15.9822C18.6307 16.1467 18.6478 16.3855 18.4323 16.4489C18.1376 16.5354 17.8308 16.5317 17.5338 16.4416C17.412 16.405 17.3804 16.2771 17.3475 16.1674C17.1795 15.6204 17.0602 15.5802 16.5792 15.8446C16.3808 15.953 16.2079 15.942 16.0484 15.7788C16.0156 15.7446 15.9778 15.7154 15.9437 15.6837C15.6467 15.3994 15.5846 15.0721 15.7574 14.7017C15.8707 14.4604 15.8049 14.313 15.5456 14.2265C15.0063 14.0474 14.9977 14.0364 15.0026 13.4699C15.0026 13.3822 15.0123 13.2944 15.0136 13.2067C15.0172 13.0264 15.1122 12.9204 15.2765 12.8643C15.391 12.8253 15.5079 12.7888 15.6199 12.7449C15.7794 12.6828 15.8475 12.5134 15.7818 12.355C15.766 12.3173 15.7477 12.2819 15.7307 12.2454C15.5042 11.7751 15.5091 11.741 15.8816 11.3742C15.934 11.3218 15.9924 11.2755 16.0448 11.2231C16.197 11.0721 16.3625 11.0343 16.5561 11.1464C16.6547 11.2036 16.7619 11.2487 16.8678 11.2926C17.0078 11.3499 17.1746 11.2804 17.2318 11.1403C17.2732 11.0404 17.3134 10.9393 17.3402 10.8357C17.3998 10.6018 17.5545 10.5055 17.7846 10.5055C17.8454 10.5055 17.9063 10.5006 17.9672 10.5006C18.5053 10.497 18.5224 10.5092 18.7086 11.0136C18.8279 11.3365 18.9387 11.3803 19.2553 11.2305C19.7216 11.0099 19.7459 11.0099 20.1087 11.3791C20.2378 11.5107 20.3973 11.6289 20.4168 11.8348V11.836ZM19.0654 15.0355C19.1883 15.0392 19.3125 15.144 19.4549 15.2025C19.5365 15.2366 19.6071 15.2792 19.6936 15.1964C19.7849 15.1099 19.7264 15.0428 19.6936 14.9624C19.6278 14.8028 19.4817 14.653 19.5426 14.4714C19.6595 14.1193 19.7459 13.7282 20.2207 13.6685C20.3133 13.6575 20.4009 13.6271 20.3997 13.493C20.3997 13.3651 20.3047 13.3663 20.228 13.331C20.0819 13.264 19.8689 13.2749 19.7995 13.1287C19.6497 12.8144 19.3892 12.5037 19.6485 12.115C19.6997 12.0383 19.8178 11.9396 19.696 11.8116C19.5694 11.6788 19.4744 11.808 19.3709 11.8409C19.2942 11.864 19.2248 11.9091 19.1506 11.942C19.0727 11.9761 18.9923 11.9773 18.9144 11.9469C18.5625 11.8092 18.19 11.6934 18.1486 11.2268C18.1486 11.2134 18.1388 11.2012 18.1352 11.189C18.1133 11.1196 18.0634 11.1013 17.9952 11.1013C17.927 11.1013 17.8783 11.1196 17.8552 11.189C17.8138 11.3096 17.7699 11.4303 17.7261 11.5509C17.692 11.6435 17.6348 11.7142 17.5423 11.7556C17.2014 11.9067 16.8629 12.0724 16.5074 11.7909C16.4867 11.7751 16.4599 11.7641 16.4331 11.758C16.3284 11.7373 16.2237 11.8518 16.2603 11.9542C16.2846 12.0236 16.3163 12.0931 16.3552 12.1552C16.4806 12.3575 16.4465 12.539 16.3711 12.7644C16.2603 13.0922 16.0703 13.2749 15.7465 13.3407C15.727 13.3444 15.7087 13.3554 15.6893 13.3614C15.6199 13.3809 15.5955 13.426 15.5943 13.4967C15.5919 13.5771 15.626 13.6234 15.699 13.6478C15.7635 13.6685 15.8244 13.6989 15.8902 13.7136C16.1251 13.7647 16.2712 13.9 16.3187 14.14C16.3272 14.1851 16.3504 14.2302 16.3759 14.2692C16.4977 14.4556 16.4806 14.6371 16.3698 14.8211C16.3357 14.8784 16.3126 14.9429 16.2797 15.0026C16.2408 15.0745 16.2298 15.133 16.2992 15.1988C16.3662 15.2634 16.4271 15.2573 16.5001 15.2207C16.5963 15.172 16.6949 15.1294 16.7911 15.0806C16.8934 15.0294 16.9944 15.0258 17.1028 15.066C17.4546 15.1988 17.8028 15.3316 17.8454 15.7836C17.8466 15.797 17.8552 15.8092 17.8588 15.8214C17.8795 15.8811 17.9233 15.9006 17.9842 15.8982C18.0475 15.8969 18.1072 15.8957 18.1315 15.8214C18.1522 15.7568 18.1766 15.6947 18.1985 15.6301C18.2959 15.3462 18.7232 15.0392 19.0654 15.0355Z" fill="#B22234"/>
<path d="M9.46932 7.13432C9.3707 7.05512 9.26965 6.97836 9.17469 6.89551C9.13573 6.86261 9.08337 6.81997 9.13938 6.76149C9.24652 6.64939 9.35487 6.53852 9.4681 6.43252C9.52654 6.37891 9.5655 6.43861 9.60202 6.47516C9.86013 6.73224 10.1195 6.98811 10.3739 7.24885C10.5395 7.41943 10.5407 7.57782 10.3763 7.74474C10.1219 8.00548 9.86013 8.25891 9.60568 8.51843C9.54115 8.58422 9.48758 8.60372 9.42549 8.5233C9.42184 8.51843 9.41575 8.51355 9.4121 8.50868C9.31713 8.39659 9.12477 8.31252 9.13694 8.18215C9.1479 8.06396 9.31104 7.9604 9.40966 7.84709C9.33661 7.7752 9.25139 7.79591 9.17712 7.79591C6.97226 7.78617 5.11438 8.57935 3.62904 10.2181C3.49512 10.3655 3.42451 10.368 3.2845 10.24C3.01178 9.9927 2.99961 9.99635 3.25771 9.72343C4.87575 8.01279 6.86025 7.166 9.2173 7.20255C9.27087 7.20255 9.32565 7.20742 9.37922 7.20742C9.3914 7.20742 9.40479 7.20133 9.41697 7.19768C9.43523 7.17574 9.45349 7.15381 9.47175 7.1331L9.46932 7.13432Z" fill="#B22234"/>
<path d="M19.338 4.72286C19.2978 4.92024 19.254 5.1164 19.2174 5.31378C19.1992 5.41126 19.1626 5.44659 19.0555 5.43319C18.5856 5.3747 18.5831 5.37349 18.6842 4.9044C18.756 4.56812 18.8205 4.23062 18.8936 3.89434C18.9471 3.64944 19.0567 3.56659 19.2941 3.61045C19.7385 3.69209 20.1792 3.78834 20.6236 3.87119C20.732 3.89191 20.749 3.94186 20.7259 4.03811C20.5932 4.59127 20.7368 4.48649 20.1951 4.40364C20.0977 4.38901 20.0039 4.34393 19.8834 4.36099C20.0697 4.76916 20.2133 5.18098 20.2949 5.61351C20.5713 7.09266 20.2511 8.43656 19.3781 9.65618C19.3014 9.7634 19.2503 9.77315 19.1444 9.68664C18.823 9.42347 18.8217 9.42956 19.0409 9.08841C19.8822 7.77496 20.0124 6.38598 19.4707 4.92877C19.4451 4.86054 19.411 4.79474 19.3806 4.72773C19.366 4.72651 19.3514 4.72529 19.338 4.72408V4.72286Z" fill="#B22234"/>
<path d="M8.99349 11.7043C10.8161 11.7019 12.2953 13.1762 12.2977 14.9965C12.3002 16.8168 10.8234 18.2984 9.00323 18.3008C7.18309 18.3045 5.70263 16.8277 5.7002 15.0062C5.69776 13.1823 7.16848 11.7068 8.99228 11.7043H8.99349ZM6.30164 15.0026C6.30164 16.4854 7.51425 17.705 8.98984 17.7074C10.4776 17.7099 11.6963 16.4915 11.6963 15.0001C11.6963 13.5186 10.4861 12.3014 9.00689 12.2965C7.51912 12.2916 6.30042 13.51 6.30164 15.0026Z" fill="#B22234"/>
<path d="M16.7948 6.59704C16.7948 7.42312 16.1094 8.10787 15.2876 8.10178C14.4706 8.0969 13.801 7.41947 13.7998 6.59948C13.7998 5.76609 14.4706 5.09597 15.3046 5.09962C16.1264 5.10328 16.7936 5.7734 16.7948 6.59704ZM16.1934 6.58121C16.1861 6.0841 15.7721 5.68811 15.2742 5.7003C14.7726 5.71248 14.3891 6.11699 14.4 6.62385C14.4098 7.10999 14.8188 7.50476 15.3058 7.49866C15.8001 7.49257 16.2007 7.07953 16.1934 6.58242V6.58121Z" fill="#B22234"/>
<path d="M19.1909 13.5078C19.1897 14.1682 18.6516 14.7043 17.9942 14.703C17.3379 14.7018 16.7986 14.1621 16.7974 13.5053C16.7961 12.8425 17.3477 12.2918 18.0075 12.2979C18.665 12.3052 19.1934 12.845 19.1922 13.5078H19.1909ZM17.9868 14.1036C18.3119 14.1085 18.5956 13.827 18.5944 13.4992C18.5944 13.18 18.3229 12.9047 18.0039 12.8998C17.68 12.8949 17.4098 13.1557 17.4012 13.4822C17.3927 13.8173 17.6581 14.0987 17.9881 14.1036H17.9868Z" fill="#B22234"/>
</svg>
