<svg width="24" height="24" viewBox="0 0 24 24" fill="none" xmlns="http://www.w3.org/2000/svg">
<path d="M11.3658 22.9219C9.1691 22.9219 6.9724 22.9518 4.7757 22.902C4.2259 22.8896 3.35518 23.315 3.16611 22.4841C2.94221 21.5039 2.77056 20.2028 3.86517 19.7177C5.04189 19.1953 4.95979 18.4191 4.95731 17.4887C4.94487 12.7743 4.94735 8.06 4.95482 3.34568C4.95482 1.58932 5.54939 1.00967 7.34556 1.00718C10.1244 0.999715 12.9008 0.994739 15.6771 1.00967C17.2096 1.01713 17.8688 1.66644 17.8763 3.19144C17.8937 6.6768 17.8887 10.1597 17.8763 13.645C17.8763 14.2545 17.8614 14.7073 18.7047 14.8193C19.6376 14.9437 19.7172 15.7621 19.7073 16.5433C19.7023 16.909 19.6749 17.3817 20.1924 17.3717C20.7248 17.3618 20.6303 16.8717 20.6303 16.5209C20.6377 14.3491 20.6228 12.1748 20.6427 10.003C20.6477 9.49296 20.5084 9.26906 19.9785 9.05014C18.6923 8.52273 18.247 6.33598 19.2744 5.41053C20.2571 4.52488 20.5283 3.84075 19.2943 3.00734C19.0082 2.8133 18.6226 2.47994 18.9983 2.10677C19.3739 1.73609 19.6501 2.16897 19.9287 2.3854C21.1328 3.31832 21.7149 4.41542 21.6428 6.04989C21.4885 9.4855 21.593 12.9335 21.598 16.3791C21.598 16.8767 21.598 17.3742 21.2845 17.7922C20.9586 18.2275 20.4984 18.3693 19.966 18.2972C19.4187 18.225 19.0381 17.934 18.9013 17.4066C18.8216 17.0931 18.8167 16.7597 18.8017 16.4313C18.7818 16.0333 18.6997 15.6303 18.2221 15.6452C17.7046 15.6601 17.9086 16.1303 17.8887 16.4139C17.8539 16.904 17.8887 17.3966 17.8763 17.8892C17.8564 18.628 17.7768 19.2749 18.7968 19.5933C19.6302 19.852 20.0705 21.9791 19.6003 22.6632C19.3366 23.0463 18.9286 22.9145 18.5754 22.917C16.1722 22.9269 13.769 22.9219 11.3633 22.9219H11.3658ZM16.9359 10.7742C16.9359 8.31873 16.9061 5.8633 16.9508 3.40788C16.9707 2.38789 16.6523 1.89282 15.5453 1.90775C12.7739 1.94507 10.0025 1.94009 7.22864 1.91024C6.1987 1.90029 5.8529 2.35555 5.85788 3.32827C5.88027 8.32122 5.88276 13.3142 5.8529 18.3046C5.84793 19.051 6.07431 19.2873 6.83806 19.2774C9.85821 19.24 12.8784 19.2376 15.8985 19.2774C16.6921 19.2873 16.9707 19.0808 16.9533 18.2599C16.9011 15.7646 16.9359 13.2669 16.9359 10.7717V10.7742ZM11.3036 21.999C13.4953 21.999 15.6871 22.0064 17.8788 21.994C18.2569 21.994 18.7769 22.1433 18.7918 21.4865C18.8042 20.9292 18.7196 20.3993 18.0554 20.2401C17.8191 20.1829 17.5628 20.2003 17.3141 20.1978C13.3859 20.1978 9.45768 20.1978 5.52949 20.1978C5.32301 20.1978 5.11403 20.1879 4.91004 20.2177C4.1861 20.3172 3.98956 20.8073 3.98956 21.4492C3.98956 22.2229 4.58663 21.9841 4.97721 21.989C7.08684 22.0114 9.19398 21.999 11.3036 21.999ZM20.573 8.28142V5.5996C19.3889 6.45788 19.3565 7.42811 20.573 8.28142Z" fill="white"/>
<path d="M11.3458 9.19412C10.1865 9.19412 9.02472 9.16427 7.86791 9.20407C7.10416 9.23144 6.7111 9.01749 6.73598 8.17911C6.77827 6.70635 6.76085 5.23111 6.74344 3.75586C6.73598 3.08416 7.01709 2.78812 7.70372 2.7906C10.1467 2.80304 12.5897 2.80553 15.0327 2.7906C15.7019 2.78563 16.0303 3.02197 16.0203 3.71854C16.0004 5.23359 16.0004 6.74865 16.0203 8.2637C16.0303 8.93539 15.7765 9.22398 15.0725 9.20407C13.8311 9.16924 12.5872 9.19412 11.3458 9.19412ZM11.3085 3.72849C11.3085 3.75835 11.3085 3.79069 11.3085 3.82054C10.1591 3.82054 8.56946 3.36528 7.96493 3.93498C7.18377 4.67136 7.80323 6.2486 7.69874 7.45766C7.6465 8.06716 7.84054 8.34579 8.51722 8.33335C10.4204 8.30101 12.326 8.29853 14.2266 8.33335C14.9506 8.34828 15.1596 8.06468 15.1272 7.39049C15.0824 6.45011 15.0849 5.50725 15.1272 4.56687C15.1546 3.93249 14.9456 3.6862 14.2839 3.71605C13.2937 3.76083 12.2986 3.72849 11.306 3.72849H11.3085Z" fill="white"/>
</svg>
