<svg width="13" height="19" viewBox="0 0 13 19" fill="none" xmlns="http://www.w3.org/2000/svg">
<path d="M7.19516 0.909546C7.54776 0.974197 7.90449 1.01271 8.2525 1.10992C10.4433 1.72066 12.0472 3.64139 12.2485 5.89912C12.3452 6.98443 12.1416 8.02755 11.8074 9.05096C11.3791 10.3632 10.7377 11.5719 9.99165 12.7278C9.91417 12.8475 9.90729 12.8878 10.0609 12.9387C10.7945 13.1808 11.4814 13.511 12.033 14.0717C12.8473 14.8989 12.867 15.9984 12.0797 16.849C11.5639 17.406 10.9046 17.7302 10.1989 17.9664C8.87471 18.4097 7.50925 18.5331 6.12223 18.4634C5.14743 18.4143 4.19096 18.2607 3.26843 17.932C2.67236 17.7197 2.1093 17.4436 1.64207 17.0053C0.638837 16.0644 0.667265 14.804 1.70856 13.9044C2.22714 13.4559 2.83009 13.1634 3.47522 12.9488C3.67146 12.8837 3.67146 12.8846 3.5628 12.7141C2.74251 11.4275 2.04052 10.0845 1.62419 8.60804C1.32799 7.55803 1.15834 6.48969 1.3908 5.40713C1.886 3.09713 3.29777 1.64684 5.58073 1.04756C5.83841 0.979699 6.10756 0.954481 6.37121 0.909546C6.64586 0.909546 6.92051 0.909546 7.1947 0.909546H7.19516ZM6.777 3.17645C5.00758 3.1792 3.55959 4.62949 3.55867 6.3989C3.55775 8.17749 5.01033 9.62869 6.78892 9.62594C8.56062 9.62273 10.0059 8.17611 10.0077 6.40441C10.0091 4.6272 8.55466 3.1737 6.77745 3.17691L6.777 3.17645ZM6.7747 17.3258C7.20984 17.3258 7.64359 17.2992 8.07506 17.2442C8.90589 17.1383 9.71884 16.9622 10.4754 16.5862C10.7945 16.4276 11.0948 16.2377 11.3081 15.942C11.5369 15.6247 11.53 15.3051 11.2943 14.9924C11.1723 14.8306 11.0183 14.704 10.85 14.593C10.3722 14.2785 9.83805 14.0951 9.29792 13.9241C9.20805 13.8956 9.16357 13.9337 9.11451 13.9997C8.54595 14.7673 7.94117 15.506 7.30337 16.2176C6.97874 16.5798 6.58671 16.5789 6.26254 16.2171C5.6252 15.505 5.01996 14.7673 4.45186 13.9988C4.39592 13.9232 4.34502 13.8975 4.25195 13.9319C4.05937 14.0029 3.859 14.0543 3.6678 14.1281C3.20332 14.3083 2.74343 14.5013 2.38395 14.8636C1.99375 15.2561 1.99467 15.6917 2.37845 16.0864C2.64668 16.362 2.97406 16.5472 3.32391 16.6944C4.4271 17.1589 5.58944 17.3056 6.7747 17.3253V17.3258Z" fill="white"/>
<path d="M6.7747 8.45651C5.65317 8.45284 4.72468 7.5138 4.73247 6.39043C4.74027 5.26936 5.66372 4.35095 6.78296 4.35095C7.90861 4.35095 8.83849 5.28312 8.83344 6.4074C8.82886 7.53581 7.8999 8.46063 6.7747 8.45697V8.45651Z" fill="white"/>
</svg>
