<svg width="24" height="24" viewBox="0 0 24 24" fill="none" xmlns="http://www.w3.org/2000/svg">
<path d="M12.5617 0C13.0419 0.0883005 13.5277 0.140905 14.0016 0.273669C16.985 1.10783 19.1693 3.73117 19.4434 6.8148C19.5751 8.29712 19.2979 9.72183 18.8427 11.1196C18.2595 12.9119 17.3859 14.5627 16.37 16.1415C16.2645 16.3049 16.2551 16.36 16.4643 16.4295C17.4633 16.7602 18.3987 17.2111 19.1499 17.977C20.2589 19.1067 20.2857 20.6085 19.2136 21.7702C18.5111 22.531 17.6132 22.9738 16.6522 23.2963C14.8489 23.9019 12.9894 24.0704 11.1006 23.9752C9.77305 23.9082 8.47052 23.6984 7.21419 23.2493C6.40245 22.9594 5.63567 22.5824 4.99939 21.9837C3.63317 20.6986 3.67189 18.9771 5.08993 17.7484C5.79615 17.1359 6.61725 16.7364 7.49581 16.4433C7.76306 16.3544 7.76306 16.3556 7.61507 16.1227C6.49799 14.3654 5.54201 12.5312 4.97504 10.5147C4.57167 9.08055 4.34063 7.6214 4.65721 6.14284C5.33158 2.98781 7.25416 1.007 10.3631 0.1885C10.714 0.0958155 11.0806 0.061372 11.4396 0C11.8136 0 12.1877 0 12.5611 0H12.5617ZM11.9922 3.09616C9.5826 3.09991 7.6107 5.08073 7.60945 7.49741C7.6082 9.92661 9.58635 11.9087 12.0085 11.9049C14.4212 11.9005 16.3894 9.92473 16.3919 7.50492C16.3937 5.07759 14.4131 3.0924 11.9928 3.09678L11.9922 3.09616ZM11.9891 22.4214C12.5817 22.4214 13.1724 22.3851 13.7599 22.31C14.8914 22.1653 15.9985 21.9248 17.0288 21.4113C17.4634 21.1946 17.8723 20.9354 18.1627 20.5314C18.4743 20.0981 18.4649 19.6616 18.144 19.2345C17.9779 19.0134 17.7681 18.8406 17.5389 18.689C16.8883 18.2594 16.1608 18.0089 15.4253 17.7753C15.3029 17.7365 15.2423 17.7885 15.1755 17.8787C14.4012 18.927 13.5776 19.9359 12.7091 20.9078C12.267 21.4025 11.7331 21.4013 11.2916 20.9072C10.4237 19.9346 9.59946 18.927 8.82581 17.8774C8.74963 17.7741 8.68032 17.739 8.55357 17.786C8.29131 17.8831 8.01844 17.9532 7.75806 18.054C7.12553 18.3001 6.49924 18.5638 6.0097 19.0585C5.47832 19.5946 5.47957 20.1895 6.0022 20.7287C6.36749 21.1051 6.81332 21.3581 7.28975 21.5591C8.79209 22.1935 10.375 22.3939 11.9891 22.4208V22.4214Z" fill="white"/>
<path d="M11.9892 10.3076C10.4619 10.3026 9.19746 9.02003 9.20807 7.48573C9.21869 5.95456 10.4763 4.7002 12.0005 4.7002C13.5334 4.7002 14.7997 5.97335 14.7928 7.5089C14.7866 9.05009 13.5215 10.3132 11.9892 10.3082V10.3076Z" fill="white"/>
</svg>
