<svg width="24" height="24" viewBox="0 0 24 24" fill="none" xmlns="http://www.w3.org/2000/svg">
<path d="M12.5397 1C12.9811 1.08094 13.4277 1.12916 13.8634 1.25086C16.6063 2.01551 18.6143 4.42024 18.8664 7.2469C18.9875 8.60569 18.7326 9.91167 18.3141 11.193C17.7779 12.8359 16.9748 14.3491 16.0408 15.7963C15.9438 15.9462 15.9352 15.9967 16.1275 16.0604C17.046 16.3635 17.906 16.7768 18.5965 17.4789C19.6161 18.5145 19.6408 19.8911 18.6551 20.956C18.0093 21.6535 17.1838 22.0593 16.3003 22.355C14.6424 22.9101 12.9329 23.0645 11.1964 22.9772C9.97592 22.9158 8.77844 22.7235 7.62343 22.3119C6.87716 22.0461 6.17222 21.7005 5.58725 21.1517C4.33121 19.9738 4.3668 18.3957 5.67049 17.2694C6.31975 16.7079 7.07464 16.3417 7.88233 16.073C8.12803 15.9915 8.12803 15.9927 7.99198 15.7791C6.96499 14.1683 6.08611 12.4869 5.56486 10.6384C5.19402 9.32384 4.98162 7.98628 5.27267 6.63093C5.89265 3.73883 7.66017 1.92309 10.5184 1.17279C10.841 1.08783 11.178 1.05626 11.5081 1C11.8519 1 12.1958 1 12.5391 1H12.5397ZM12.0161 3.83814C9.80084 3.84159 7.98796 5.65733 7.98681 7.87262C7.98567 10.0994 9.80428 11.9163 12.0311 11.9128C14.2492 11.9088 16.0586 10.0977 16.0609 7.87951C16.0627 5.65446 14.2417 3.8347 12.0167 3.83872L12.0161 3.83814ZM12.0133 21.553C12.558 21.553 13.1011 21.5197 13.6413 21.4508C14.6815 21.3182 15.6993 21.0978 16.6465 20.627C17.046 20.4284 17.422 20.1908 17.689 19.8205C17.9754 19.4232 17.9668 19.0231 17.6717 18.6316C17.519 18.429 17.3262 18.2705 17.1155 18.1316C16.5173 17.7378 15.8485 17.5082 15.1723 17.2941C15.0598 17.2585 15.0041 17.3061 14.9427 17.3888C14.2308 18.3498 13.4737 19.2746 12.6751 20.1655C12.2687 20.619 11.7779 20.6179 11.372 20.1649C10.5741 19.2734 9.81634 18.3498 9.10508 17.3876C9.03504 17.2929 8.97132 17.2608 8.85479 17.3038C8.61368 17.3928 8.36282 17.4571 8.12344 17.5495C7.54192 17.7751 6.96614 18.0168 6.51608 18.4703C6.02755 18.9617 6.0287 19.5071 6.50919 20.0013C6.84501 20.3463 7.25489 20.5782 7.6929 20.7625C9.07408 21.344 10.5293 21.5277 12.0133 21.5524V21.553Z" fill="black"/>
<path d="M12.0139 10.449C10.6098 10.4444 9.44733 9.26869 9.45709 7.86225C9.46685 6.45868 10.623 5.30884 12.0243 5.30884C13.4336 5.30884 14.5978 6.4759 14.5915 7.88349C14.5857 9.29624 13.4227 10.4541 12.0139 10.4495V10.449Z" fill="black"/>
</svg>
