<svg width="24" height="24" viewBox="0 0 24 24" fill="none" xmlns="http://www.w3.org/2000/svg">
<path d="M6.63281 12.0568C6.63281 11.8459 6.71671 11.6437 6.86606 11.4946C7.0154 11.3455 7.21795 11.2618 7.42916 11.2618H11.138V7.55906C11.138 7.34821 11.2219 7.14599 11.3713 6.9969C11.5206 6.8478 11.7232 6.76404 11.9344 6.76404C12.1456 6.76404 12.3481 6.8478 12.4975 6.9969C12.6468 7.14599 12.7307 7.34821 12.7307 7.55906V11.2618H16.4396C16.6508 11.2618 16.8533 11.3455 17.0027 11.4946C17.152 11.6437 17.2359 11.8459 17.2359 12.0568C17.2359 12.2676 17.152 12.4699 17.0027 12.619C16.8533 12.7681 16.6508 12.8518 16.4396 12.8518H12.7307V16.5545C12.7307 16.7654 12.6468 16.9676 12.4975 17.1167C12.3481 17.2658 12.1456 17.3495 11.9344 17.3495C11.7232 17.3495 11.5206 17.2658 11.3713 17.1167C11.2219 16.9676 11.138 16.7654 11.138 16.5545V12.8518H7.42916C7.21795 12.8518 7.0154 12.7681 6.86606 12.619C6.71671 12.4699 6.63281 12.2676 6.63281 12.0568Z" fill="black"/>
<path fill-rule="evenodd" clip-rule="evenodd" d="M7.0273 3.27432C10.3321 2.90856 13.6673 2.90856 16.9721 3.27432C18.912 3.49056 20.4781 5.01595 20.7054 6.96324C21.0982 10.3098 21.0982 13.6902 20.7054 17.0367C20.4771 18.984 18.9109 20.5084 16.9721 20.7257C13.6673 21.0914 10.3321 21.0914 7.0273 20.7257C5.0874 20.5084 3.52125 18.984 3.29403 17.0367C2.90199 13.6903 2.90199 10.3097 3.29403 6.96324C3.52125 5.01595 5.08846 3.49056 7.0273 3.27432ZM16.7958 4.85377C13.6082 4.50103 10.3912 4.50103 7.20356 4.85377C6.61346 4.91913 6.06266 5.18119 5.64015 5.59761C5.21764 6.01404 4.94808 6.56051 4.87504 7.14874C4.49741 10.3723 4.49741 13.6288 4.87504 16.8523C4.94831 17.4403 5.21796 17.9866 5.64045 18.4028C6.06294 18.819 6.61362 19.0809 7.20356 19.1462C10.3645 19.4981 13.6349 19.4981 16.7958 19.1462C17.3856 19.0807 17.936 18.8187 18.3583 18.4025C18.7806 17.9863 19.0501 17.4402 19.1233 16.8523C19.5009 13.6288 19.5009 10.3723 19.1233 7.14874C19.0498 6.56105 18.7802 6.01519 18.358 5.59921C17.9357 5.18323 17.3854 4.92137 16.7958 4.85589" fill="black"/>
</svg>
