<svg width="24" height="24" viewBox="0 0 24 24" fill="none" xmlns="http://www.w3.org/2000/svg">
<path d="M0.000894721 12.4785C0.000894721 12.1765 -0.0011184 11.8765 0.000894721 11.5746C0.00894721 10.568 0.705488 9.84732 1.71406 9.81108C2.15896 9.79498 2.60588 9.79699 3.05078 9.81108C3.26215 9.81712 3.39905 9.74666 3.5299 9.58159C4.21839 8.70588 4.92902 7.84627 5.60945 6.96453C6.12884 6.29617 6.78109 5.99017 7.63063 6.00024C9.34782 6.02238 11.065 6.01635 12.7822 6.00024C13.4284 5.9942 13.974 6.1935 14.4672 6.60619C15.6811 7.6208 16.9091 8.6173 18.1271 9.62789C18.272 9.74868 18.425 9.81309 18.6042 9.84128C19.8281 10.0225 21.0501 10.2137 22.2741 10.3888C23.4477 10.5559 23.9953 11.178 23.9973 12.3677C23.9973 12.8247 24.0034 13.2817 23.9973 13.7387C23.9772 14.8077 23.2686 15.5122 22.2036 15.5304C22.103 15.5304 22.0023 15.5404 21.9037 15.5304C21.7205 15.5102 21.6319 15.5787 21.5675 15.7578C21.183 16.8067 20.3012 17.4287 19.2282 17.4267C18.1754 17.4267 17.2775 16.7946 16.9131 15.7719C16.8407 15.5706 16.742 15.5284 16.5508 15.5284C13.7747 15.5324 10.9986 15.5344 8.22249 15.5263C8.0091 15.5263 7.91851 15.5887 7.84402 15.7901C7.46555 16.8027 6.58984 17.4187 5.54705 17.4267C4.49217 17.4348 3.59432 16.8248 3.2078 15.8041C3.12526 15.5867 3.0246 15.5203 2.80115 15.5263C2.44684 15.5384 2.0885 15.5525 1.73419 15.4901C0.743737 15.315 0.0230391 14.4876 0.00492097 13.481C-0.0011184 13.1468 0.00492097 12.8126 0.00492097 12.4785H0.000894721ZM4.9572 10.9606C3.90837 10.9606 2.86154 10.9565 1.81271 10.9606C1.34365 10.9626 1.14435 11.1699 1.14032 11.637C1.1363 12.2288 1.13227 12.8187 1.14032 13.4105C1.14837 13.9621 1.52684 14.3547 2.08045 14.3889C2.33612 14.405 2.5938 14.3809 2.84946 14.397C3.0387 14.4091 3.11318 14.3346 3.17962 14.1594C3.57419 13.1126 4.47003 12.4765 5.51886 12.4765C6.57173 12.4765 7.4575 13.1066 7.8561 14.1614C7.92253 14.3346 7.99702 14.397 8.18424 14.397C10.9724 14.3909 13.7606 14.3909 16.5468 14.397C16.746 14.397 16.8326 14.3386 16.9011 14.1433C17.2614 13.1287 18.1673 12.4865 19.2141 12.4765C20.265 12.4664 21.183 13.1186 21.5655 14.1433C21.5957 14.2218 21.5936 14.3225 21.6822 14.3728C22.1473 14.6385 22.8317 14.2601 22.8398 13.7246C22.8478 13.2334 22.8438 12.7442 22.8398 12.253C22.8357 11.788 22.6848 11.6128 22.2217 11.5383C21.8151 11.4719 21.4084 11.4035 20.9998 11.3551C19.9711 11.2323 18.9625 10.9606 17.9197 10.9586C15.4878 10.9545 13.058 10.9586 10.6262 10.9565C10.0927 10.9565 9.90143 10.7613 9.90143 10.2298C9.90143 9.48294 9.90143 8.73607 9.90143 7.98921C9.90143 7.12356 9.90143 7.13363 9.04787 7.13765C8.81032 7.13765 8.74791 7.21617 8.75194 7.44365C8.76402 8.35761 8.75798 9.27156 8.75597 10.1855C8.75597 10.7593 8.56472 10.9525 7.99702 10.9545C6.9824 10.9565 5.96779 10.9545 4.95318 10.9545L4.9572 10.9606ZM16.4461 9.76075C16.428 9.73257 16.4159 9.70439 16.3938 9.68627C15.4496 8.90719 14.5034 8.13012 13.5573 7.35306C13.3761 7.20409 13.1647 7.14772 12.9352 7.14772C12.3897 7.14369 11.8441 7.15376 11.2985 7.14168C11.0892 7.13765 11.0368 7.21415 11.0388 7.41345C11.0489 8.10395 11.055 8.79445 11.0368 9.48496C11.0288 9.75471 11.1153 9.81712 11.373 9.81511C12.9654 9.80504 14.5578 9.81108 16.1502 9.80706C16.2448 9.80706 16.3475 9.83927 16.4461 9.76075ZM4.80823 9.80706C5.74635 9.80706 6.59991 9.80706 7.45347 9.80706C7.64472 9.80706 7.62258 9.67419 7.62459 9.5534C7.62459 8.90719 7.62459 8.26098 7.62459 7.61678C7.62459 7.11148 7.48971 7.02895 7.01059 7.2363C6.88376 7.29065 6.77505 7.36312 6.6905 7.46781C6.08254 8.22071 5.4786 8.97564 4.81024 9.80706H4.80823ZM19.2202 16.2833C19.967 16.2873 20.5589 15.7015 20.5609 14.9586C20.5609 14.2359 19.9791 13.632 19.2625 13.6159C18.5277 13.5998 17.8935 14.2299 17.8976 14.9687C17.9016 15.6874 18.4995 16.2792 19.2222 16.2833H19.2202ZM5.51282 16.2833C6.26171 16.2833 6.8435 15.7015 6.8435 14.9546C6.8435 14.2259 6.26372 13.63 5.54503 13.6159C4.80421 13.6018 4.18618 14.2238 4.19423 14.9747C4.20027 15.7035 4.78609 16.2813 5.51484 16.2833H5.51282Z" fill="black"/>
<path d="M10.849 12.4726C10.7161 12.4726 10.5813 12.4806 10.4484 12.4726C10.1344 12.4464 9.92298 12.233 9.90889 11.9391C9.89479 11.6331 10.1001 11.3734 10.4202 11.3432C10.696 11.317 10.9779 11.3211 11.2557 11.3392C11.5959 11.3633 11.8093 11.619 11.7932 11.9431C11.7791 12.2511 11.5596 12.4545 11.2174 12.4726C11.0946 12.4786 10.9718 12.4726 10.849 12.4726Z" fill="black"/>
<path d="M19.2398 14.395C19.5659 14.397 19.8115 14.6426 19.8075 14.9627C19.8034 15.2748 19.5397 15.5324 19.2277 15.5304C18.9116 15.5284 18.664 15.2728 18.666 14.9507C18.666 14.6205 18.9036 14.393 19.2398 14.395Z" fill="black"/>
<path d="M4.95528 14.9349C4.96333 14.6047 5.20088 14.3853 5.5411 14.3954C5.87125 14.4034 6.10276 14.651 6.09068 14.9792C6.0786 15.2972 5.81488 15.5428 5.49882 15.5308C5.18075 15.5187 4.94723 15.263 4.95528 14.9369V14.9349Z" fill="black"/>
</svg>
