<svg width="24" height="24" viewBox="0 0 24 24" fill="none" xmlns="http://www.w3.org/2000/svg">
<path d="M4.05648 22C3.98917 21.9776 3.92187 21.9551 3.85456 21.9322C3.35526 21.7631 3.00725 21.3102 3.00517 20.7852C2.99943 19.0929 2.99682 17.4002 3.00621 15.7079C3.00986 15.0546 3.55248 14.5166 4.20518 14.5046C4.85579 14.4926 5.50692 14.4942 6.15754 14.5036C6.82954 14.5135 7.3638 15.0556 7.3732 15.7324C7.38154 16.2986 7.37946 16.8653 7.37267 17.4315C7.37059 17.5755 7.39667 17.6324 7.55998 17.6303C8.27581 17.6204 8.99164 17.6219 9.70799 17.6292C9.84782 17.6308 9.88852 17.5891 9.8786 17.4544C9.86713 17.2989 9.87443 17.1424 9.87652 16.9858C9.87965 16.7103 9.96782 16.463 10.1332 16.2433C10.4343 15.8431 10.7332 15.4407 11.0369 15.0421C11.099 14.9607 11.1282 14.8787 11.1277 14.7749C11.125 12.529 11.125 10.2831 11.1277 8.03718C11.1277 7.9229 11.0917 7.84463 11.0108 7.76688C10.776 7.54145 10.5517 7.30559 10.3179 7.0786C10.1421 6.90796 9.99652 6.71802 9.93234 6.47903C9.90782 6.38875 9.86087 6.37467 9.78052 6.37519C9.02556 6.37727 8.27059 6.37988 7.51563 6.3731C7.37894 6.37206 7.37424 6.43363 7.37476 6.53747C7.37789 7.08434 7.37737 7.63121 7.3758 8.17807C7.37372 8.97228 6.84728 9.49931 6.05423 9.5014C5.46831 9.50297 4.8824 9.50349 4.297 9.5014C3.541 9.49827 3.00412 8.96497 3.00308 8.21042C2.99995 6.56878 2.99995 4.92818 3.00308 3.28811C3.00412 2.54347 3.541 2.006 4.28239 2.00235C4.88761 1.99922 5.49284 1.99922 6.09806 2.00235C6.83058 2.00652 7.36902 2.54087 7.37476 3.27089C7.37946 3.82402 7.37998 4.37767 7.37267 4.93079C7.37111 5.07273 7.3925 5.13326 7.55841 5.13065C8.27425 5.12021 8.99008 5.12439 9.70643 5.12804C9.81756 5.12856 9.86921 5.11656 9.888 4.97932C9.9793 4.31192 10.4875 3.88037 11.1642 3.87672C11.5544 3.87463 11.9452 3.87463 12.3355 3.87672C13.0127 3.88037 13.5188 4.31035 13.6112 4.97932C13.6299 5.11604 13.6816 5.12856 13.7927 5.12804C14.5085 5.12439 15.2249 5.12074 15.9407 5.13065C16.1051 5.13274 16.1291 5.07482 16.127 4.93132C16.1197 4.39123 16.1228 3.85063 16.1244 3.31055C16.127 2.53095 16.6576 2.00339 17.4402 2.00183C18.0261 2.00026 18.6115 1.99974 19.1974 2.00183C19.9644 2.00444 20.4961 2.53669 20.4971 3.30689C20.4992 4.93445 20.4992 6.56148 20.4971 8.18903C20.4961 8.96967 19.9649 9.49827 19.1839 9.50036C18.598 9.50192 18.0126 9.50245 17.4267 9.50036C16.6592 9.49775 16.127 8.96549 16.1244 8.19738C16.1223 7.64425 16.1202 7.0906 16.1265 6.53747C16.128 6.41276 16.0962 6.37206 15.9658 6.3731C15.2239 6.37936 14.4819 6.3778 13.74 6.37414C13.6435 6.37414 13.5882 6.39136 13.5605 6.49625C13.5021 6.71489 13.3706 6.89231 13.2105 7.05042C12.9647 7.29254 12.7237 7.53937 12.4769 7.78045C12.408 7.84776 12.3725 7.91507 12.3725 8.01683C12.3757 10.2758 12.3757 12.5347 12.3736 14.7932C12.3736 14.8834 12.3997 14.9539 12.4534 15.0249C12.72 15.3781 12.9684 15.746 13.2511 16.0857C13.5298 16.4207 13.6466 16.7886 13.6289 17.2196C13.6122 17.6251 13.6252 17.6256 14.027 17.6256C14.6452 17.6256 15.2635 17.6183 15.8818 17.6298C16.068 17.6334 16.1374 17.6005 16.1306 17.3918C16.1124 16.8585 16.1223 16.3242 16.1254 15.7909C16.1291 15.0363 16.6639 14.5041 17.4209 14.5009C18.0199 14.4989 18.6183 14.4978 19.2173 14.5009C19.9592 14.5046 20.4966 15.041 20.4982 15.7857C20.5013 17.4132 20.4997 19.0402 20.4987 20.6678C20.4987 21.3514 20.1627 21.7861 19.4964 21.9734C19.4781 21.9786 19.462 21.9911 19.4448 22H17.1793C17.1621 21.9911 17.146 21.9786 17.1277 21.9734C16.4567 21.785 16.1259 21.3493 16.1249 20.649C16.1244 20.1157 16.1207 19.5819 16.1275 19.0486C16.1291 18.9176 16.1019 18.8701 15.959 18.8717C15.2369 18.879 14.5148 18.8769 13.7927 18.8733C13.6811 18.8727 13.631 18.8863 13.6117 19.022C13.5188 19.6904 13.0122 20.1204 12.336 20.1246C11.9457 20.1267 11.5555 20.1267 11.1652 20.1246C10.4885 20.1204 9.98087 19.6899 9.88852 19.023C9.86973 18.8884 9.82069 18.8727 9.70799 18.8733C8.9859 18.8769 8.26381 18.879 7.54172 18.8717C7.39928 18.8701 7.37163 18.9171 7.3732 19.0486C7.37998 19.6148 7.37946 20.1809 7.37476 20.7466C7.37111 21.1708 7.19267 21.51 6.85302 21.7657C6.69337 21.8857 6.50554 21.9363 6.32188 22H4.05648ZM6.12623 5.76101C6.12623 4.98663 6.12154 4.21277 6.13041 3.43839C6.13197 3.2808 6.08449 3.24532 5.93527 3.24793C5.42814 3.2568 4.92048 3.25523 4.41335 3.24845C4.28865 3.24689 4.24848 3.27872 4.249 3.40917C4.2537 4.97045 4.2537 6.53173 4.249 8.09301C4.249 8.22399 4.28918 8.25478 4.41387 8.25321C4.92779 8.24695 5.44171 8.24591 5.95562 8.25321C6.09023 8.2553 6.13145 8.2219 6.13041 8.08258C6.12362 7.30872 6.12727 6.53434 6.12727 5.75996L6.12623 5.76101ZM19.2486 5.77144C19.2486 4.9908 19.2444 4.21016 19.2522 3.42952C19.2538 3.2808 19.2121 3.24532 19.0681 3.24793C18.5541 3.2568 18.0402 3.25471 17.5263 3.24897C17.4105 3.24793 17.3708 3.27454 17.3708 3.39873C17.375 4.9668 17.375 6.53434 17.3708 8.10241C17.3708 8.22503 17.4068 8.25478 17.5247 8.25373C18.0449 8.24747 18.5656 8.24539 19.0858 8.25478C19.2329 8.25739 19.2517 8.20051 19.2507 8.07423C19.2454 7.30663 19.2481 6.53904 19.2481 5.77144H19.2486ZM6.12623 18.2492C6.12623 17.4748 6.12362 16.7009 6.12884 15.9266C6.12988 15.7998 6.11006 15.7439 5.96345 15.7465C5.44327 15.7559 4.92257 15.7538 4.40239 15.7476C4.28344 15.746 4.24848 15.7778 4.249 15.8994C4.25318 17.4675 4.25318 19.035 4.249 20.6031C4.249 20.7283 4.2897 20.7539 4.405 20.7523C4.91892 20.7466 5.43284 20.7445 5.94675 20.7534C6.0918 20.756 6.13197 20.7189 6.13041 20.5713C6.12258 19.7974 6.12675 19.023 6.12675 18.2486L6.12623 18.2492ZM17.374 18.2513C17.374 19.0256 17.3766 19.7995 17.3713 20.5739C17.3703 20.7001 17.3886 20.757 17.5362 20.7544C18.0564 20.745 18.5771 20.7471 19.0973 20.7534C19.2152 20.7549 19.2517 20.7247 19.2512 20.602C19.247 19.034 19.247 17.4664 19.2512 15.8984C19.2512 15.7742 19.2121 15.747 19.0957 15.7486C18.5818 15.7544 18.0679 15.7564 17.554 15.7476C17.41 15.745 17.3682 15.7804 17.3698 15.9292C17.3776 16.703 17.3734 17.4774 17.3734 18.2518L17.374 18.2513ZM12.3751 17.9147C12.3751 17.6548 12.3751 17.3955 12.3751 17.1356C12.3751 17.0719 12.3809 17.0098 12.3355 16.9509C12.1612 16.7249 11.9901 16.4959 11.8221 16.2657C11.7678 16.1916 11.7318 16.1942 11.6791 16.2673C11.5111 16.4979 11.34 16.7265 11.1668 16.9535C11.1318 16.9994 11.1261 17.0464 11.1261 17.0986C11.1261 17.6506 11.1282 18.2022 11.1245 18.7543C11.124 18.8456 11.1511 18.879 11.2456 18.8774C11.5831 18.8727 11.9207 18.8727 12.2583 18.8774C12.3548 18.879 12.3788 18.8425 12.3778 18.7527C12.3736 18.4735 12.3762 18.1944 12.3762 17.9152L12.3751 17.9147ZM11.7496 5.12648C11.5936 5.12648 11.4376 5.13222 11.2816 5.12439C11.171 5.11917 11.1167 5.13952 11.1224 5.26998C11.1334 5.51627 11.1271 5.76414 11.1245 6.01096C11.124 6.07932 11.1376 6.13411 11.1897 6.1842C11.3536 6.34179 11.5148 6.50251 11.6718 6.66688C11.7313 6.72898 11.771 6.72637 11.8294 6.66584C11.987 6.50199 12.1487 6.34179 12.3115 6.18316C12.3569 6.1388 12.3762 6.09184 12.3757 6.0287C12.3736 5.76883 12.3715 5.50845 12.3762 5.24858C12.3778 5.15778 12.3511 5.12074 12.2557 5.12439C12.0871 5.13065 11.9176 5.12595 11.7485 5.12595L11.7496 5.12648Z" fill="#B22234"/>
</svg>
