<svg width="32" height="32" viewBox="0 0 32 32" fill="none" xmlns="http://www.w3.org/2000/svg">
<g filter="url(#filter0_d_1113_17)">
<path fill-rule="evenodd" clip-rule="evenodd" d="M16.0007 1C24.2846 1 30.9972 7.71616 30.9972 16C30.9972 24.2838 24.2853 31 16.0007 31C7.71688 31 1 24.2838 1 16C1 7.71616 7.71688 1 16.0007 1Z" fill="#E1514B"/>
<path opacity="0.78" d="M5.29736 8.44989C5.29736 12.4897 10.059 10.2617 15.9684 10.2617C21.8779 10.2617 26.6987 12.4897 26.6987 8.44989C26.6987 4.41005 21.9079 1.1355 15.9977 1.1355C10.0875 1.1355 5.29736 4.41005 5.29736 8.44989Z" fill="url(#paint0_linear_1113_17)"/>
</g>
<defs>
<filter id="filter0_d_1113_17" x="0.05965" y="0.05965" width="31.8778" height="31.8807" filterUnits="userSpaceOnUse" color-interpolation-filters="sRGB">
<feFlood flood-opacity="0" result="BackgroundImageFix"/>
<feColorMatrix in="SourceAlpha" type="matrix" values="0 0 0 0 0 0 0 0 0 0 0 0 0 0 0 0 0 0 127 0" result="hardAlpha"/>
<feOffset/>
<feGaussianBlur stdDeviation="0.470175"/>
<feComposite in2="hardAlpha" operator="out"/>
<feColorMatrix type="matrix" values="0 0 0 0 0 0 0 0 0 0 0 0 0 0 0 0 0 0 0.5 0"/>
<feBlend mode="normal" in2="BackgroundImageFix" result="effect1_dropShadow_1113_17"/>
<feBlend mode="normal" in="SourceGraphic" in2="effect1_dropShadow_1113_17" result="shape"/>
</filter>
<linearGradient id="paint0_linear_1113_17" x1="15.9984" y1="0.44671" x2="15.9984" y2="10.6873" gradientUnits="userSpaceOnUse">
<stop stop-color="white"/>
<stop offset="0.1375" stop-color="white" stop-opacity="0.8625"/>
<stop offset="1" stop-color="white" stop-opacity="0"/>
</linearGradient>
</defs>
</svg>
