<svg width="93" height="95" viewBox="0 0 93 95" fill="none" xmlns="http://www.w3.org/2000/svg">
<path d="M45.1478 95.0031C37.2226 94.5941 30.0893 91.1286 25.8323 83.0025C23.4162 78.3898 23.3467 73.5195 24.8878 68.62C27.0765 61.665 30.9294 55.8387 36.8935 51.4756C37.4821 51.0454 38.0841 50.8542 38.8279 50.8595C43.7351 50.8887 48.6395 50.8754 53.5466 50.8728C54.0149 50.8728 54.4724 50.8515 54.8818 51.1569C62.8927 57.1505 67.9844 64.9128 68.2493 75.0093C68.45 82.6706 64.2546 88.1915 57.7314 91.9916C54.1754 94.063 50.261 94.942 45.1451 95.0031H45.1478ZM47.8556 64.7667C47.8556 63.3433 47.877 61.9173 47.8449 60.4939C47.8288 59.7742 48.0669 59.6866 48.6422 60.0371C50.2342 61.0117 51.077 62.4192 51.2456 64.2675C51.3606 65.5395 52.0965 66.2406 53.0998 66.137C54.162 66.0255 54.7667 65.1491 54.6249 63.8612C54.2075 60.0982 52.2008 57.5754 48.5887 56.3432C48.1552 56.1945 47.8395 56.0671 47.7352 55.5439C47.5719 54.726 46.9592 54.2958 46.1538 54.2825C45.3003 54.2719 44.6822 54.7154 44.495 55.5758C44.404 55.9874 44.2194 56.152 43.81 56.2848C39.949 57.5462 37.6078 60.5922 37.5517 64.3578C37.4981 68.1154 39.842 71.2357 43.7484 72.5688C44.1792 72.7148 44.4067 72.8821 44.404 73.3867C44.3826 76.268 44.3826 79.1493 44.404 82.0306C44.4093 82.7423 44.1284 82.7263 43.6387 82.4316C42.0788 81.4862 41.2066 80.1292 41.0541 78.3075C40.9444 76.9717 40.2246 76.2361 39.1785 76.3291C38.1162 76.4247 37.5784 77.2213 37.6507 78.589C37.8353 82.0253 40.147 84.9703 43.5585 86.0856C44.0561 86.2476 44.4067 86.4123 44.5297 87.0204C44.6849 87.7826 45.3244 88.1756 46.0843 88.1809C46.8897 88.1889 47.5184 87.7826 47.7084 86.9726C47.8235 86.484 48.0536 86.2875 48.5191 86.1361C52.2597 84.9278 54.6169 81.8128 54.6624 78.0791C54.7079 74.3507 52.3292 71.1481 48.5459 69.9132C47.9974 69.7353 47.8288 69.4883 47.8422 68.9386C47.8796 67.5498 47.8556 66.1556 47.8556 64.7667Z" fill="#B22234"/>
<path d="M46.0866 10.113C28.3391 10.113 13.1682 23.0297 10.6531 40.4529C8.99953 51.917 12.3013 61.9152 20.2479 70.3918C20.652 70.822 20.7964 71.2044 20.7081 71.7913C20.363 74.1017 20.379 76.412 20.8526 78.7091C20.9623 79.2429 20.8767 79.5934 20.2907 79.7633C19.8787 79.8828 19.4613 80.0475 19.1028 80.2785C17.5375 81.2797 16.2773 81.0168 15.0037 79.6518C13.7354 78.2948 12.3655 77.0281 11.1267 75.6366C10.6183 75.0656 10.5354 74.5212 10.8484 73.8255C11.5548 72.256 12.1889 70.6547 12.8953 69.0853C13.2538 68.2886 13.2404 67.5796 12.7588 66.836C10.2705 62.9828 8.5313 58.8135 7.53596 54.3469C7.33261 53.436 6.82424 52.9129 5.97071 52.5942C4.38138 51.9993 2.82415 51.3142 1.22947 50.7406C0.450858 50.4591 0.124429 49.9785 0.0842947 49.1951C-0.0307579 46.9431 -0.0254067 44.6939 0.0842947 42.4419C0.124429 41.6214 0.450858 41.1168 1.27228 40.8247C2.86964 40.2564 4.42686 39.5739 6.01352 38.9711C6.82959 38.6631 7.32458 38.1558 7.5199 37.2848C8.52594 32.7863 10.2705 28.5852 12.7829 24.7054C13.2404 23.9963 13.2538 23.3059 12.9113 22.5437C12.2076 20.9716 11.5708 19.373 10.8618 17.8035C10.5327 17.0759 10.6156 16.5103 11.1507 15.9048C12.6732 14.184 14.2973 12.5694 16.0365 11.0637C16.6117 10.5645 17.1495 10.4609 17.8532 10.7769C19.4319 11.4859 21.0426 12.1206 22.6239 12.8217C23.4212 13.1749 24.141 13.1749 24.8928 12.6969C28.8046 10.2113 33.0295 8.46655 37.5727 7.49196C38.3915 7.31669 38.9105 6.83868 39.2102 6.05529C39.8256 4.44867 40.5025 2.86329 41.1153 1.25667C41.3989 0.513112 41.8591 0.197099 42.6752 0.133365C44.9789 -0.0392468 47.2719 -0.0392468 49.573 0.133365C50.3997 0.194444 50.8359 0.539668 51.1141 1.27526C51.7108 2.85533 52.3744 4.40884 52.971 5.98625C53.2948 6.84134 53.862 7.32731 54.7637 7.52117C59.208 8.47186 63.3418 10.1794 67.168 12.6092C68.0135 13.1457 68.7921 13.1961 69.7018 12.7739C71.2109 12.0755 72.7788 11.5019 74.2852 10.8008C75.0772 10.4317 75.6471 10.583 76.2705 11.1274C77.9535 12.596 79.5214 14.1707 81.0118 15.8278C81.6138 16.497 81.678 17.1131 81.3168 17.8991C80.6265 19.4049 80.0218 20.9477 79.3341 22.4534C78.9542 23.2846 78.9916 24.0123 79.492 24.7903C81.9348 28.5905 83.6713 32.6907 84.6426 37.0963C84.8566 38.0656 85.357 38.6577 86.3095 38.9977C87.8748 39.558 89.3972 40.2378 90.9571 40.8167C91.7063 41.0956 92.0916 41.547 92.1317 42.3463C92.2441 44.6328 92.2468 46.9139 92.1264 49.2004C92.0836 49.9891 91.7411 50.4671 90.9758 50.7486C89.3517 51.3461 87.7624 52.0312 86.141 52.6367C85.3062 52.95 84.8674 53.5024 84.6774 54.3575C83.6767 58.8242 81.9375 62.9908 79.4492 66.8466C78.9943 67.553 78.9435 68.2355 79.2886 69.003C79.9897 70.5751 80.6211 72.179 81.3328 73.7458C81.6833 74.5133 81.5683 75.1028 81.0091 75.7269C79.5 77.4158 77.9027 79.0092 76.1929 80.4936C75.5856 81.0221 75.0183 81.1283 74.2879 80.7698C73.3648 80.3157 72.1179 80.1723 71.5346 79.4659C70.9192 78.7197 71.6684 77.5327 71.7085 76.5235C71.7728 74.8983 71.7808 73.2758 71.5186 71.6692C71.4356 71.1619 71.5641 70.8141 71.9226 70.437C79.0692 62.9191 82.3844 53.9698 81.9295 43.6608C81.2365 27.9691 69.1346 13.9981 53.6212 10.8991C51.1275 10.3998 48.6178 10.0944 46.0732 10.1104L46.0866 10.113Z" fill="#B22234"/>
<path d="M46.0823 40.7144C43.5806 40.7144 41.0815 40.6959 38.5798 40.7277C37.9725 40.7357 37.7102 40.5445 37.547 39.9629C36.6453 36.7152 35.6928 33.478 34.7858 30.2329C34.2908 28.459 35.2486 27.2002 37.0788 27.1471C38.5486 27.1046 39.2835 27.8199 39.2835 29.2928C39.2835 29.6912 39.2701 30.0868 39.2915 30.4852C39.3451 31.5288 40.0086 32.1954 40.9772 32.198C41.9297 32.2007 42.6575 31.5262 42.6843 30.4958C42.7244 28.9078 42.6923 27.3197 42.7003 25.7317C42.711 23.5435 44.1157 22.0352 46.1332 22.0352C48.164 22.0352 49.5392 23.5117 49.5607 25.7317C49.574 27.2215 49.55 28.7113 49.5687 30.1984C49.5874 31.4704 50.2349 32.2007 51.2945 32.198C52.3594 32.1954 52.9534 31.4863 52.9828 30.1825C52.9908 29.8186 52.948 29.4495 52.9935 29.091C53.0738 28.4616 52.6564 27.4207 53.2397 27.2773C54.3554 27.0011 55.637 26.8444 56.7153 27.58C57.502 28.1164 57.8097 28.937 57.5555 29.8505C56.5949 33.3213 55.5862 36.7815 54.6203 40.2524C54.4624 40.8207 54.0638 40.7091 53.6838 40.7118C51.15 40.7171 48.6162 40.7118 46.0823 40.7118V40.7144Z" fill="#B22234"/>
<path d="M46.1703 44.0981C49.4372 44.0981 52.7015 44.0955 55.9685 44.0981C57.2849 44.0981 58.1036 44.778 58.0795 45.8163C58.0555 46.8281 57.2635 47.4787 56.0059 47.4787C49.4078 47.484 42.807 47.484 36.2088 47.4787C34.9566 47.4787 34.162 46.8148 34.1486 45.803C34.1352 44.7939 34.9379 44.1008 36.1741 44.0981C39.5079 44.0902 42.8391 44.0955 46.1729 44.0955L46.1703 44.0981Z" fill="#B22234"/>
<path d="M44.4211 64.4797C44.4211 65.8367 44.4104 67.191 44.4264 68.5453C44.4318 69.0605 44.2846 69.2199 43.7977 68.941C42.0772 67.9585 41.0899 66.5165 41.0632 64.5222C41.0337 62.488 41.997 60.9982 43.7441 59.9732C44.2953 59.6492 44.4345 59.8616 44.4291 60.4087C44.4157 61.763 44.4238 63.12 44.4238 64.4744L44.4211 64.4797Z" fill="#B22234"/>
<path d="M47.8396 77.9988C47.8396 76.6737 47.8557 75.3486 47.8316 74.0261C47.8209 73.4392 47.9574 73.2055 48.5513 73.5534C50.2718 74.5599 51.2243 76.0443 51.2243 78.0227C51.2243 79.9613 50.2932 81.4272 48.6289 82.439C48.0376 82.7975 47.8129 82.6727 47.8289 81.9689C47.8584 80.6464 47.8369 79.3213 47.8369 77.9962L47.8396 77.9988Z" fill="#B22234"/>
</svg>
